<svg xmlns="http://www.w3.org/2000/svg" xmlns:xlink="http://www.w3.org/1999/xlink" x="0px" y="0px"
	 viewBox="0 0 496 304" style="enable-background:new 0 0 496 304;" xml:space="preserve">
<style type="text/css">
	.st0{fill:none;stroke:#000000;stroke-width:48;stroke-linecap:round;stroke-linejoin:round;stroke-miterlimit:128;}
</style>
<path class="st0" d="M204.2,78.8c-31.8,49.1-25.6,113.7,15,155.9c39.9,41.6,104.1,48.1,151.5,15.4c10-6.9,18.9-15.2,26.4-24.7
	c7.4-9.3,13.4-19.7,17.8-30.7c9.1-22.7,11.5-47.5,6.8-71.5c-4.6-23.8-16-45.7-32.9-63c-16.6-17.2-38-28.9-61.4-33.8
	c-23.3-4.8-47.5-2.3-69.3,7C236,42.9,217.3,58.7,204.2,78.8z"/>
<path d="M411.2,206c-10.7-7.8-25.7-5.4-33.5,5.3s-5.4,25.7,5.3,33.5L411.2,206z M457.9,299.4c10.7,7.8,25.7,5.4,33.5-5.3
	c7.8-10.7,5.4-25.7-5.3-33.5L457.9,299.4z M88,176c13.3,0,24-10.7,24-24c0-13.3-10.7-24-24-24V176z M24,128c-13.3,0-24,10.7-24,24
	c0,13.3,10.7,24,24,24V128z M88,272c13.3,0,24-10.7,24-24c0-13.3-10.7-24-24-24V272z M24,224c-13.3,0-24,10.7-24,24
	c0,13.3,10.7,24,24,24V224z M120,80c13.3,0,24-10.7,24-24s-10.7-24-24-24V80z M24,32C10.7,32,0,42.7,0,56s10.7,24,24,24V32z
	 M382.9,244.8l75,54.6l28.3-38.8l-75-54.6L382.9,244.8z M88,128H24v48h64V128z M88,224H24v48h64V224z M120,32H24v48h96V32z"/>
</svg>
