<?xml version="1.0" encoding="utf-8"?>
<svg version="1.1" xmlns="http://www.w3.org/2000/svg" xmlns:xlink="http://www.w3.org/1999/xlink" x="0px" y="0px"
	 viewBox="0 0 44.9 44.8" style="enable-background:new 0 0 44.9 44.8;" xml:space="preserve">
<g>
	<g>
		<path d="M44.9,39.9c-0.2,0.9-0.7,1.8-1.6,2.2c-0.5,0.2-1,0.3-1.6,0.3c-12.8,0-25.6,0-38.4,0c-2,0-3.1-1.2-3.1-3.2
			c0-4.2,0-8.4,0-12.6c0-0.2,0-0.5,0.1-0.7c2.6-7.7,5.3-15.3,7.9-23c0.1-0.4,0.3-0.5,0.7-0.5c9.1,0,18.2,0,27.3,0
			c0.4,0,0.6,0.1,0.7,0.5c2.6,7.6,5.2,15.2,7.9,22.8c0,0.1,0.1,0.3,0.2,0.4C44.9,30.8,44.9,35.3,44.9,39.9z M43,25.6
			c-0.1-0.2-0.1-0.3-0.2-0.5c-2.4-6.9-4.7-13.8-7.1-20.6c-0.1-0.4-0.3-0.4-0.7-0.4c-8.4,0-16.7,0-25.1,0c-0.4,0-0.5,0.1-0.6,0.5
			C7.2,11,4.9,17.4,2.7,23.8c-0.2,0.6-0.4,1.2-0.6,1.9c0.2,0,0.4,0,0.6,0c3.2,0,6.4,0,9.6,0c1.5,0,2.3,0.8,2.3,2.3
			c0,0.9,0,1.8,0,2.7c0,0.5,0.1,0.6,0.6,0.6c4.9,0,9.8,0,14.8,0c0.5,0,0.6-0.1,0.6-0.6c0-0.9,0-1.8,0-2.8c0-0.3,0-0.6,0.1-0.9
			c0.4-1,1.1-1.3,2.1-1.3c3.2,0,6.4,0,9.6,0C42.5,25.6,42.7,25.6,43,25.6z M1.8,27.2c0,0.2,0,0.3,0,0.5c0,3.8,0,7.7,0,11.5
			c0,1.1,0.5,1.6,1.6,1.6c12.8,0,25.6,0,38.3,0c1.1,0,1.6-0.5,1.6-1.6c0-3.8,0-7.6,0-11.4c0-0.2,0-0.3,0-0.5c-0.1,0-0.2,0-0.3,0
			c-3.5,0-6.9,0-10.4,0c-0.4,0-0.5,0.2-0.5,0.6c0,0.9,0,1.9,0,2.8c0,1.3-0.8,2.2-2.2,2.2c-4.9,0-9.9,0-14.8,0
			c-1.3,0-2.1-0.8-2.2-2.2c0-0.9,0-1.9,0-2.8c0-0.6-0.1-0.6-0.6-0.6c-3.4,0-6.8,0-10.1,0C2.1,27.2,1.9,27.2,1.8,27.2z"/>
		<path d="M38.5,19.3c0,1.6,0,3.1,0,4.7c-0.5,0-1,0-1.6,0c0-1.1,0-2.1,0-3.1c-9.6,0-19.1,0-28.7,0c0,1,0,2.1,0,3.1
			c-0.6,0-1.1,0-1.6,0c0-1.6,0-3.1,0-4.7C17.2,19.3,27.8,19.3,38.5,19.3z"/>
		<path d="M36.1,12.9c0,1.6,0,3.2,0,4.7c-0.5,0-1,0-1.6,0c0-1,0-2.1,0-3.1c-8,0-15.9,0-23.9,0c0,1,0,2.1,0,3.1c-0.6,0-1.1,0-1.6,0
			c0-1.6,0-3.1,0-4.7C18,12.9,27,12.9,36.1,12.9z"/>
		<path d="M33.7,6.5c0,1.6,0,3.1,0,4.7c-0.5,0-1,0-1.6,0c0-1,0-2.1,0-3.1c-6.4,0-12.8,0-19.2,0c0,1.1,0,2.1,0,3.1c-0.5,0-1,0-1.6,0
			c0-1.6,0-3.1,0-4.7C18.8,6.5,26.2,6.5,33.7,6.5z"/>
	</g>
</g>
</svg>
