<?xml version="1.0" encoding="utf-8"?>
<!-- Generator: Adobe Illustrator 24.1.2, SVG Export Plug-In . SVG Version: 6.00 Build 0)  -->
<svg version="1.1" id="Layer_1" xmlns="http://www.w3.org/2000/svg" xmlns:xlink="http://www.w3.org/1999/xlink" x="0px" y="0px"
	 viewBox="0 0 502.3 502.3" style="enable-background:new 0 0 502.3 502.3;" xml:space="preserve">
<g>
	<path d="M0,251C0.2,112,112.4,0,251.2,0c139,0,251.6,112.9,251.1,251.6c-0.5,139-112.9,251.1-251.5,250.7
		C111.9,501.9-0.2,389.6,0,251z M251.1,450c109.5,0,198.8-89.3,198.8-198.8S360.7,52.4,251.2,52.3c-109.6,0-198.8,89.2-198.8,198.8
		C52.3,360.6,141.5,449.9,251.1,450z"/>
	<path d="M251.8,265.6c1.4-1.9,2.3-3.6,3.5-4.9c16.9-17.3,33.8-34.5,50.9-51.6c8.1-8.2,19.4-10.1,29.5-5.6
		c9.8,4.4,16,14.5,15.4,25.3c-0.4,6.8-3,12.6-7.8,17.4c-24.8,24.9-49.6,49.8-74.6,74.5c-11.1,11-26.8,10.7-37.9-0.4
		c-24.6-24.5-49-49-73.5-73.5c-11.1-11.1-11.4-27.4-0.9-38c10.5-10.5,26.5-10.3,37.6,0.5C212.9,227.7,231.7,246,251.8,265.6z"/>
</g>
</svg>
