<?xml version="1.0" encoding="utf-8"?>
<!-- Generator: Adobe Illustrator 24.1.2, SVG Export Plug-In . SVG Version: 6.00 Build 0)  -->
<svg version="1.1" id="_x32_" xmlns="http://www.w3.org/2000/svg" xmlns:xlink="http://www.w3.org/1999/xlink" x="0px" y="0px"
	 viewBox="0 0 738.3 709.5" style="enable-background:new 0 0 738.3 709.5;" xml:space="preserve">
<style type="text/css">
	.st0{fill:#6D521D;}
	.st1{fill:#423217;}
	.st2{fill:#6184E5;}
	.st3{fill:#EDB914;}
	.st4{fill:#4C3A0D;}
</style>
<g>
	<g id="XMLID_1_">
		<g>
			<path class="st0" d="M688.6,451.1v58c0,9.6-1.9,18.9-5.8,28.1c-4.9,12-13.2,23.9-24.5,35.3v-91h-1.6
				c11.2-8.5,21.1-17.6,29.4-27.4C686.9,453.1,687.8,452.1,688.6,451.1z"/>
			<path class="st0" d="M631.3,498.5v96.1c-12.8,8.7-27.4,16.9-43.8,24.2v-98.6c7.9-3.3,15.5-6.7,22.8-10.3S624.6,502.5,631.3,498.5
				z"/>
			<path class="st0" d="M560.6,530.3v99.4c-9.5,3.4-19.4,6.6-29.7,9.6c-9.9,2.8-20.3,5.4-30.9,7.7V546.6
				C521.3,542.2,541.6,536.7,560.6,530.3z"/>
			<path class="st0" d="M473.1,551.6V652c-28.7,4.8-59.1,7.8-90.9,8.4V559.5C413.8,558.9,444.2,556.1,473.1,551.6z"/>
			<path class="st0" d="M355.2,559.4v101.1c-30.5-0.6-59.8-3.4-87.5-7.9V552C295.6,556.3,324.9,558.8,355.2,559.4z"/>
			<path class="st0" d="M240.7,547.3v100.5c-22.2-4.7-43-10.6-62.2-17.4h1.6v-98.9c6.2,2,12.5,4,18.9,5.8
				C212.3,541.1,226.3,544.4,240.7,547.3z"/>
			<path class="st0" d="M153.3,521.6v98.7h-0.1c-4.9-2.1-9.6-4.3-14.2-6.6c-10.7-5.3-20.5-10.9-29.5-16.8v-96.4
				C122.9,508.2,137.5,515.2,153.3,521.6z"/>
			<path class="st0" d="M82.6,482.9v92.8h-0.1c-3.9-3.7-7.5-7.4-10.7-11.1c-7.6-9-13.4-18.1-17.2-27.4c-3.8-9.3-5.7-18.6-5.7-28.1
				v-58c7.5,9.2,16.3,17.9,26.3,26.1C77.6,479.1,80.1,481,82.6,482.9z"/>
			<path class="st1" d="M728,556c-3,7.3-6.7,14.4-11,21.1c-4.2,6.7-9,13.2-14.3,19.3c-10.5,12.3-22.8,23.4-36.7,33.5
				c-13.9,10.1-29.3,19.3-45.9,27.5c-33.3,16.5-72,29.4-114.4,38.3c-21.2,4.5-43.3,7.9-66.3,10.2c-22.9,2.3-46.5,3.5-70.8,3.5
				c-63.4,0-123-8.3-175.3-23.1l-0.3-0.1c-26.1-7.5-50.5-16.6-72.6-27.3c-22.1-10.7-42-23-59.2-36.9c-11.5-9.3-21.7-19.4-30.5-30.4
				c-8.8-11.1-16.1-23-21.4-35.8C3.4,541.2,0,525.4,0,509.1V381.2c0-16.3,3.4-32.1,9.5-46.8c6.1-14.6,14.7-28.1,25.2-40.4
				c10.5-12.3,22.8-23.4,36.7-33.6c13.8-10.2,29.2-19.3,45.8-27.6c33.3-16.5,72-29.4,114.4-38.3s88.6-13.7,137-13.7
				c31.8,0,62.5,2.1,92,6c29.4,3.9,57.4,9.7,83.6,17.2c18,5.2,35.1,11.1,51.3,17.7l8.3,31.5c0.6,2.6,3,4.5,5.7,4.5s5-1.9,5.6-4.5
				l5.3-20.2c20.7,10.3,39.4,22,55.6,35.2c11.5,9.3,21.7,19.4,30.5,30.4s16.1,23,21.4,35.8c6.1,14.7,9.5,30.5,9.6,46.8v128
				C737.5,525.5,734.1,541.3,728,556z M688.6,509.1v-58c-0.8,1-1.7,2-2.5,3c-8.3,9.8-18.2,18.9-29.4,27.4h1.6v91
				c11.3-11.4,19.6-23.3,24.5-35.3C686.7,528,688.6,518.7,688.6,509.1z M688.7,381.4c0-9.5-2-18.8-5.8-28.1
				c-3.8-9.3-9.5-18.5-17.2-27.4c-15.3-17.9-38.2-34.8-67.2-49.1c-57.9-28.7-139.5-46.9-229.7-46.9c-59.2,0-114.7,7.8-162.2,21.3
				c-47.5,13.5-87,32.8-114.3,55.1c-18.3,14.8-30.9,30.8-37.6,47c-3.8,9.2-5.7,18.6-5.7,28.1s1.9,18.8,5.7,28.1
				c3.8,9.2,9.6,18.4,17.2,27.3c15.3,17.9,38.3,34.8,67.2,49.1c57.9,28.7,139.5,46.9,229.7,46.9c59.2,0,114.7-7.9,162.2-21.4
				c47.5-13.5,87-32.8,114.3-55.1c18.2-14.8,30.9-30.9,37.5-47C686.6,400,688.7,390.9,688.7,381.4z M631.3,594.6v-96.1
				c-6.7,4-13.7,7.8-21,11.4s-14.9,7-22.8,10.3v98.6C603.9,611.5,618.5,603.3,631.3,594.6z M560.6,629.7v-99.4
				c-19,6.4-39.3,11.9-60.6,16.3V647c10.6-2.3,21-4.9,30.9-7.7C541.2,636.3,551.1,633.1,560.6,629.7z M473.1,652V551.6
				c-28.9,4.5-59.3,7.3-90.9,7.9v100.9C414,659.8,444.4,656.8,473.1,652z M355.2,660.5V559.4c-30.3-0.6-59.6-3.1-87.5-7.4v100.6
				C295.4,657.1,324.7,659.9,355.2,660.5z M240.7,647.8V547.3c-14.4-2.9-28.4-6.2-41.7-10c-6.4-1.8-12.7-3.8-18.9-5.8v98.9h-1.6
				C197.7,637.2,218.5,643.1,240.7,647.8z M153.3,620.3v-98.7c-15.8-6.4-30.4-13.4-43.8-21.1v96.4c9,5.9,18.8,11.5,29.5,16.8
				c4.6,2.3,9.3,4.5,14.2,6.6H153.3z M82.6,575.7v-92.8c-2.5-1.9-5-3.8-7.4-5.7c-10-8.2-18.8-16.9-26.3-26.1v58
				c0,9.5,1.9,18.8,5.7,28.1c3.8,9.3,9.6,18.4,17.2,27.4C75,568.3,78.6,572,82.6,575.7L82.6,575.7z"/>
			<path class="st2" d="M733.8,123.2c2.6,0.6,4.5,2.9,4.5,5.6c0,2.8-1.9,5.1-4.5,5.6l-90.1,23.9c-2.4,0.5-4.3,2.4-4.8,4.8L620.4,233
				c-8-4-16.3-7.8-24.9-11.3L580,163.1c-0.5-2.4-2.5-4.3-4.8-4.8l-90.1-23.9c-2.7-0.5-4.5-2.8-4.5-5.5c0-2.8,1.8-5.1,4.5-5.6
				l90.1-23.9c2.4-0.5,4.3-2.4,4.8-4.8l23.8-90.1c0.7-2.6,3-4.5,5.7-4.5s5,1.9,5.6,4.5l23.8,90c0.5,2.4,2.5,4.3,4.8,4.8L733.8,123.2
				z"/>
			<path class="st3" d="M682.9,353.3c3.8,9.3,5.8,18.6,5.8,28.1s-2.1,18.6-5.9,27.9c-6.6,16.1-19.3,32.2-37.5,47
				c-27.3,22.3-66.8,41.6-114.3,55.1c-47.5,13.5-103,21.4-162.2,21.4c-90.2,0-171.8-18.2-229.7-46.9c-28.9-14.3-51.9-31.2-67.2-49.1
				c-7.6-8.9-13.4-18.1-17.2-27.3c-3.8-9.3-5.7-18.6-5.7-28.1s1.9-18.9,5.7-28.1c6.7-16.2,19.3-32.2,37.6-47
				c27.3-22.3,66.8-41.6,114.3-55.1c47.5-13.5,103-21.3,162.2-21.3c90.2,0,171.8,18.2,229.7,46.9c29,14.3,51.9,31.2,67.2,49.1
				C673.4,334.8,679.1,344,682.9,353.3z M595.6,381.4c6.4-2.7,9.5-10,6.8-16.5c-3.1-8-7.9-15.6-14-22.8
				c-12.3-14.4-29.9-27.2-51.6-37.9c-21.6-10.7-47.3-19.3-75.7-25.3c-28.4-6-59.6-9.3-92.4-9.3h-0.2c-21.5,0-42.4,1.4-62.2,4.1
				c-19.8,2.7-38.7,6.6-56.2,11.5c-35,9.9-64.3,24.1-85.5,41.4c-7.1,5.8-13.2,11.8-18.3,18.2c-5.1,6.4-9.1,13.1-12,20.1
				c-3.3,7.9-5,16.3-5,24.7c0,7,5.6,12.6,12.6,12.6s12.6-5.6,12.6-12.6c0-5.1,1-9.9,3.1-15.1c3.7-9,11.2-18.8,22.9-28.3
				c8.7-7.2,19.7-14,32.6-20.3c12.9-6.2,27.6-11.8,43.8-16.4c32.4-9.2,70.6-14.6,111.4-14.6h0.7c61.9,0,117.9,12.7,156.4,31.9
				c9.6,4.8,18.2,9.9,25.5,15.3c7.3,5.4,13.4,10.9,18,16.4c4.7,5.5,8,10.9,10.1,16C581.8,381,589.1,384.1,595.6,381.4z M572.6,422.2
				c0.1-1.2-0.8-2.3-2-2.5l-40.9-10.8c-1.1-0.2-1.9-1.1-2.2-2.2l-10.8-40.9c-0.3-1.2-1.3-2-2.6-2c-1.2,0-2.3,0.9-2.6,2l-10.8,40.9
				c-0.2,1.1-1.1,1.9-2.2,2.2l-40.9,10.8c-1.2,0.2-2.1,1.3-2.1,2.5c0,1.2,0.9,2.3,2.1,2.5l40.9,10.8c1.1,0.2,1.9,1.1,2.2,2.2
				l10.8,40.9c0.3,1.2,1.4,2,2.6,2c1.2,0,2.3-0.9,2.6-2l10.8-40.9c0.2-1.1,1.1-2,2.2-2.2l40.9-10.8
				C571.8,424.5,572.6,423.4,572.6,422.2z"/>
			<path d="M595.5,221.7c8.6,3.5,16.9,7.3,24.9,11.3l-5.3,20.2c-0.6,2.6-2.9,4.5-5.6,4.5s-5.1-1.9-5.7-4.5L595.5,221.7z"/>
			<path class="st4" d="M602.4,364.9c2.7,6.5-0.4,13.8-6.8,16.5c-6.5,2.7-13.8-0.4-16.5-6.8c-2.1-5.1-5.4-10.5-10.1-16
				c-4.7-5.5-10.7-11.1-18-16.4c-7.3-5.4-15.9-10.5-25.5-15.3C486.9,307.7,430.9,295,369,295h-0.7c-40.8,0-79,5.4-111.4,14.6
				c-16.2,4.5-30.9,10.1-43.8,16.4c-12.9,6.2-23.9,13.1-32.6,20.3c-11.7,9.5-19.2,19.3-22.9,28.3c-2.1,5.2-3.1,10-3.1,15.1
				c0,7-5.6,12.6-12.6,12.6s-12.6-5.6-12.6-12.6c0-8.4,1.7-16.8,5-24.7c2.9-7,6.9-13.7,12-20.1c5.1-6.4,11.2-12.5,18.3-18.2
				c21.2-17.3,50.5-31.5,85.5-41.4c17.5-5,36.4-8.9,56.2-11.5c19.9-2.7,40.7-4.1,62.2-4.1h0.2c32.8,0,63.9,3.4,92.4,9.3
				c28.4,6,54.1,14.6,75.7,25.3c21.7,10.7,39.3,23.5,51.6,37.9C594.5,349.3,599.3,356.9,602.4,364.9z"/>
			<path class="st2" d="M570.6,419.7c1.2,0.2,2.1,1.3,2,2.5c0,1.2-0.8,2.3-2,2.5l-40.9,10.8c-1.1,0.2-2,1.1-2.2,2.2l-10.8,40.9
				c-0.3,1.1-1.4,2-2.6,2c-1.2,0-2.3-0.8-2.6-2l-10.8-40.9c-0.3-1.1-1.1-2-2.2-2.2l-40.9-10.8c-1.2-0.2-2.1-1.3-2.1-2.5
				c0-1.2,0.9-2.3,2.1-2.5l40.9-10.8c1.1-0.3,2-1.1,2.2-2.2l10.8-40.9c0.3-1.1,1.4-2,2.6-2c1.3,0,2.3,0.8,2.6,2l10.8,40.9
				c0.3,1.1,1.1,2,2.2,2.2L570.6,419.7z"/>
			<path class="st2" d="M205.6,120.3c1.9,0.4,3.2,2.1,3.2,4c0,1.9-1.3,3.6-3.2,4l-64.4,17.1c-1.7,0.3-3,1.7-3.4,3.4l-17,64.4
				c-0.5,1.9-2.2,3.2-4.1,3.2c-2,0-3.6-1.3-4.1-3.2l-17-64.4c-0.4-1.7-1.7-3-3.4-3.4l-64.4-17.1c-1.9-0.3-3.2-2-3.2-4s1.3-3.6,3.2-4
				l64.4-17.1c1.7-0.4,3-1.7,3.4-3.4l17-64.4c0.5-1.9,2.2-3.2,4.1-3.2c2,0,3.6,1.3,4.1,3.2l17,64.4c0.3,1.7,1.7,3,3.4,3.4
				L205.6,120.3z"/>
		</g>
		<g>
		</g>
	</g>
</g>
</svg>
