<?xml version="1.0" encoding="utf-8"?>
<!-- Generator: Adobe Illustrator 24.1.2, SVG Export Plug-In . SVG Version: 6.00 Build 0)  -->
<svg version="1.1" id="Layer_1" xmlns="http://www.w3.org/2000/svg" xmlns:xlink="http://www.w3.org/1999/xlink" x="0px" y="0px"
	 viewBox="0 0 239.6 225.9" style="enable-background:new 0 0 239.6 225.9;" xml:space="preserve">
<g>
	<path d="M160.8,7.1c-1.8,0-3.6,0-5.5,0c-0.1,0.3-0.2,0.6-0.3,0.9c8.8,2.3,15.3,10.2,25.6,9.5c3.5-0.2,7.1,2.7,10.7,4.1
		c-0.1,0.4-0.2,0.8-0.4,1.2c-2.6,0-5.3,0-7.9,0c-0.1,0.3-0.2,0.6-0.3,1c5.5,3.4,8.8,10.8,17.3,8.9c4.5-1,7.1,2.1,10,5.7
		c-3.8,0-7.1,0-11.3,0c2.7,3.6,4.4,7.1,7.2,9c2,1.4,5.6,1,8.3,0.7c4.3-0.5,6.3,1.8,8,5.9c-4,0-7.7,0-12.1,0c1.8,3.3,3.1,5.9,4.6,8.4
		c0.4,0.6,1.6,1,2.5,1.1c2.1,0.2,4.3,0.3,6.4,0c4.5-0.8,6.3,1.6,7.2,5.9c-4.1,0-8.2,0-12.7,0c1.1,3.1,1.8,5.7,2.9,8.1
		c0.3,0.7,1.6,1.4,2.5,1.5c2.4,0.2,4.7,0.1,7.1,0.1c4.9,0,5.2,0.4,5.3,6c-4.1,0-8.2,0-12.7,0c0.5,2.8,0.7,5.3,1.5,7.6
		c0.3,0.9,1.9,1.7,3,1.8c3.5,0.2,7,0.1,10.6,0.1c0.4,2,0.6,3.7,1,5.8c-4.6,0-8.9,0-13.8,0c0.2,3.3,0.3,6.3,0.4,9.5
		c4.6,0,8.9,0,13.6,0c0,2.1,0,3.9,0,6.1c-4.6,0-9.3,0-14.4,0c-0.2,3.3-0.3,6.3-0.5,9.7c4.6,0,8.9,0,13.7,0c-0.3,2.2-0.5,3.8-0.7,5.9
		c-4.5,0-8.8,0-13.4,0c-0.7,3.3-1.3,6.3-2,9.7c4.6,0,8.7,0,12.8,0c-0.1,5.2-0.6,5.7-5.2,5.7c-0.5,0-1,0-1.5,0c-8.8,0-9,0.2-10.7,9.7
		c2,0,4,0,6,0c2,0,4,0,6,0c-0.9,5.5-1.3,5.9-6.5,5.9c-9.3,0-9.3,0-13.3,8.8c0,0.1,0,0.2,0,0.8c3.7,0,7.5,0,11.6,0
		c-1.8,4.2-4,6.8-8.6,6c-1.2-0.2-2.5,0.1-3.7-0.1c-2.8-0.4-4.7,0.6-6.1,3.1c-1.2,2-2.9,3.8-4.7,6.1c3.6,0,6.9,0,10.1,0
		c0.1,0.3,0.3,0.6,0.4,0.9c-2.2,2-3.5,5.8-7.1,5.2c-8.9-1.7-14.1,3.8-19.9,9.5c3,0,5.7,0,8.3,0c0.1,0.3,0.2,0.6,0.3,0.9
		c-3.6,2.2-6.7,5.7-11.6,5.2c-4.2-0.4-8,0.5-11.7,2.8c-3.7,2.4-7.9,4-11.8,6.6c2.7,0,5.3,0,8,0c0,0.3,0.1,0.6,0.1,0.9
		c-3.9,1-7.7,2.1-11.6,2.9c-21.2,3.9-42.5,5.9-63.6,0.9c-38.1-9.1-65.3-31.8-79.9-68.2c-18.5-46.1-5.8-96,31.9-128.1
		c22.4-19,48.6-28,77.9-26.4c13.1,0.7,26.2,3.4,39.3,5.3c1.2,0.2,2.3,0.7,3.4,1.1C160.9,6.7,160.8,6.9,160.8,7.1z M113.1,218.3
		c58,0.1,105.3-47.2,105.4-105.4c0.1-58.2-47-105.5-105.1-105.7C55.4,7.1,7.5,54.9,7.6,112.9C7.6,170.9,55,218.3,113.1,218.3z"/>
	<path d="M152.1,111.8c0.2-11.5,6.8-18.4,16.6-17.2c5.3,0.7,9.3,3.5,10.4,8.8c0.9,4.4,1.2,9.2,0.7,13.7c-0.7,6.9-5.8,11.2-12.2,11.6
		c-7.4,0.4-12.6-3.2-14.5-10.2C152.5,116.3,152.4,114.1,152.1,111.8z M172.9,112.2c-0.6-2.9-0.7-5.7-1.8-8.1c-0.7-1.5-2.9-3-4.4-3.1
		c-1.5,0-4,1.5-4.5,2.9c-2,5.2-2,10.8,0.1,16c0.6,1.4,2.7,3.1,4.1,3.1c1.6-0.1,3.7-1.6,4.5-3.1C172,117.6,172.3,114.8,172.9,112.2z"
		/>
	<path d="M144.3,111.3c-0.3,2.3-0.3,4.4-0.8,6.3c-1.5,6.8-6.3,10.8-12.9,11c-6.8,0.2-12.5-3.4-13.6-10.3c-0.8-4.9-0.7-10.3,0.6-15
		c1.6-6.1,7-9,13.3-8.7c6.1,0.3,10.8,4,12.4,10.1C143.9,106.9,144,109.3,144.3,111.3z M136.2,112c-0.5-2.8-0.4-5.5-1.5-7.6
		c-0.8-1.6-2.9-3.4-4.5-3.4c-1.6,0-4.1,1.7-4.7,3.2c-1.9,5-1.9,10.3,0.1,15.3c0.7,1.6,2.9,3.4,4.5,3.5c1.4,0.1,3.6-1.8,4.3-3.3
		C135.6,117.3,135.8,114.5,136.2,112z"/>
	<path d="M144.3,65.8c-0.1,5.9-1.1,11.4-6.4,14.9c-7.4,5.1-17.2,2.1-20.5-6.3c-2.1-5.5-2.1-11.3,0-16.9c2.4-6.2,7.2-8.9,14.3-8.4
		c5.7,0.4,10.1,4.2,11.6,10.1C143.9,61.3,144,63.6,144.3,65.8z M136.2,66.1c-0.5-2.6-0.4-5.3-1.5-7.4c-0.8-1.6-3-3.6-4.5-3.5
		c-1.7,0.1-4.6,2.1-4.7,3.5c-0.5,5-0.5,10.1,0.1,15c0.2,1.4,2.9,3.5,4.4,3.4c1.6,0,3.8-1.9,4.5-3.5
		C135.7,71.3,135.8,68.5,136.2,66.1z"/>
	<path d="M152.3,156.5c0.5-2,0.8-5,1.8-7.8c2.2-5.7,6.9-8.7,12.8-8.4c5.9,0.2,10.2,3.1,12.3,8.7c2.2,5.9,2,11.8-0.3,17.6
		c-2.1,5.4-7.9,8.4-14.1,7.8c-6.1-0.7-10.7-5.1-12-11.6C152.7,161,152.6,159.2,152.3,156.5z M172.9,157.7c-0.7-2.9-0.9-5.7-2-8.1
		c-0.6-1.4-2.8-2.9-4.2-2.9c-1.6,0.1-4,1.5-4.6,2.9c-2.1,5.4-2.1,11,0.2,16.4c0.6,1.4,2.8,2.8,4.2,2.8c1.5,0,3.5-1.5,4.2-2.9
		C172,163.3,172.3,160.4,172.9,157.7z"/>
	<path d="M71.6,112.2c-0.2,1.3-0.2,3.5-0.8,5.5c-1.9,7.2-6.6,10.8-13.4,10.8c-6.8,0-11.7-3.6-13.2-10.9c-0.8-3.9-0.9-8.3-0.1-12.2
		c1.6-7.8,7.1-11.6,14.6-11c6.9,0.6,11.8,5.7,12.6,13.2C71.4,108.9,71.5,110.2,71.6,112.2z M63.4,112.1c-0.4-2.9-0.3-5.6-1.4-7.7
		c-0.8-1.6-3-3.4-4.6-3.4c-1.6,0-4.1,1.7-4.7,3.2c-2,5.1-2.1,10.5,0.2,15.6c0.7,1.5,2.9,3.2,4.3,3.2c1.5,0,3.7-1.8,4.4-3.3
		C62.9,117.3,63,114.5,63.4,112.1z"/>
	<path d="M108.1,65.3c-0.3,7.2-1.4,13.1-7.9,16.3c-7.9,3.9-17,0.3-19.2-8.1c-1.1-4.4-1.1-9.4-0.3-14c1.1-6.6,6.3-10.3,12.8-10.4
		c7-0.1,11.9,3.5,13.7,10.4C107.8,61.6,107.9,63.9,108.1,65.3z M100,66.2c-0.4-2.6-0.7-4.8-1.1-7c-0.6-2.6-2.3-4.7-4.8-4.2
		c-1.8,0.3-4.1,2.1-4.8,3.7c-2,4.8-1.9,10.1,0.2,14.9c0.7,1.6,3,3.5,4.5,3.4c1.6,0,3.7-1.9,4.5-3.6C99.5,71.3,99.6,68.5,100,66.2z"
		/>
	<path d="M108.2,157.4c-0.2,9-3.7,14.5-10.4,16.4c-7.3,2.1-14.3-1.5-16.8-8.7c-1.7-5.1-1.7-10.4,0-15.5c2-6.1,7-9.6,13.3-9.4
		c6.4,0.2,11.2,4,12.9,10.5C107.8,153,107.9,155.2,108.2,157.4z M100,158c-0.4-2.5-0.6-4.9-1.1-7.2c-0.6-2.5-2.2-4.7-4.9-4.1
		c-1.8,0.4-4.1,2.1-4.8,3.8c-2,4.9-1.9,10.1,0.2,14.9c0.7,1.6,3,3.4,4.5,3.4c1.6-0.1,3.7-2,4.5-3.6C99.5,163,99.5,160.3,100,158z"/>
	<path d="M70.5,77.7c0,1.7,0,3.1,0,4.6c-7.1,0-14.1,0-21.3,0c0-1.5,0-2.9,0-4.7c2.2-0.1,4.3-0.2,6.8-0.3c0-6.2,0-12.2,0-18.9
		c-3.4,2.4-7,5.9-9.9-0.7c5.8-3.1,9.6-10.2,18.3-8.1c0,9.2,0,18.3,0,27.7C66.7,77.4,68.7,77.6,70.5,77.7z"/>
	<path d="M85.3,128c0-1.5,0-2.8,0-4.5c2.3-0.1,4.5-0.2,6.9-0.3c0-6.2,0-12.2,0-18.3c-2.1,0.9-4.2,2.2-6.3,2.4
		c-1.1,0.1-2.4-1.8-4.3-3.4c6.4-3.3,10.1-10.5,18.8-8.6c0,9.2,0,18.4,0,27.9c2.3,0.2,4.2,0.3,6.4,0.4c0,1.5,0,2.8,0,4.4
		C99.8,128,92.8,128,85.3,128z"/>
	<path d="M64.4,168.9c2.4,0.1,4.2,0.2,6.1,0.3c0,1.6,0,3.1,0,4.7c-7.1,0-14,0-21.3,0c0-1.5,0-2.9,0-4.7c2.2-0.1,4.4-0.2,6.8-0.4
		c0-6.2,0-12.2,0-18.2c-2.2,0.9-4.3,2.2-6.4,2.3c-1.1,0.1-2.4-1.8-4.1-3.3c6.3-3.4,10.1-10.6,18.9-8.6
		C64.4,150.3,64.4,159.4,64.4,168.9z"/>
	<path d="M143.3,169.3c0,1.7,0,3,0,4.6c-7.2,0-14.2,0-21.5,0c0-1.6,0-3,0-4.7c2.3-0.1,4.5-0.2,7-0.3c0-6.2,0-12.3,0-18.5
		c-6.7,3.4-6.7,3.4-10.3-1c6-3,9.7-10.3,18.5-8.3c0,9.1,0,18.3,0,27.7C139.3,169,141.1,169.1,143.3,169.3z"/>
	<path d="M173.2,49.5c0,9.2,0,18.3,0,27.6c2.2,0.2,4.2,0.4,6.2,0.6c0,1.6,0,3,0,4.6c-7.2,0-14.1,0-21.4,0c0-1.5,0-2.9,0-4.7
		c2.1-0.1,4.3-0.2,6.9-0.3c0-6.2,0-12.3,0-18.5c-6.8,3.4-6.8,3.4-10-1.2C160.8,54.7,164.4,47.5,173.2,49.5z"/>
</g>
</svg>
