<?xml version="1.0" encoding="utf-8"?>
<!-- Generator: Adobe Illustrator 24.1.2, SVG Export Plug-In . SVG Version: 6.00 Build 0)  -->
<svg version="1.1" id="Layer_1" xmlns="http://www.w3.org/2000/svg" xmlns:xlink="http://www.w3.org/1999/xlink" x="0px" y="0px"
	 viewBox="0 0 29.3 29.3" style="enable-background:new 0 0 29.3 29.3;" xml:space="preserve">
<g id="XMLID_1_">
	<g>
		<path d="M24.8,4.5c2.6,2.6,4.2,6.2,4.2,10.2c0,8-6.4,14.4-14.4,14.4S0.3,22.6,0.3,14.6S6.7,0.2,14.7,0.2
			C18.6,0.2,22.2,1.9,24.8,4.5z M27.7,14.6c0-7.2-5.9-13.1-13.1-13.1S1.6,7.4,1.6,14.6s5.9,13.1,13.1,13.1c3.6,0,6.9-1.5,9.2-3.8
			C26.3,21.5,27.7,18.3,27.7,14.6z"/>
		<path d="M21.9,7l-4,9.5L7.3,21.6L12.4,11L21.9,7z M10.1,18.8l6.1-3l-3.2-3.2L10.1,18.8z"/>
	</g>
	<g>
	</g>
</g>
</svg>
