<?xml version="1.0" encoding="utf-8"?>
<!-- Generator: Adobe Illustrator 24.1.2, SVG Export Plug-In . SVG Version: 6.00 Build 0)  -->
<svg version="1.1" id="Layer_1" xmlns="http://www.w3.org/2000/svg" xmlns:xlink="http://www.w3.org/1999/xlink" x="0px" y="0px"
	 viewBox="0 0 28.7 28.9" style="enable-background:new 0 0 28.7 28.9;" xml:space="preserve">
<g id="XMLID_1_">
	<g>
		<path d="M24.5,4.3c2.6,2.6,4.2,6.2,4.2,10.2c0,8-6.4,14.4-14.4,14.4S0,22.4,0,14.4S6.4,0,14.4,0C18.3,0,21.9,1.7,24.5,4.3z
			 M27.4,14.4c0-7.2-5.9-13.1-13.1-13.1s-13,5.9-13,13.1s5.9,13.1,13.1,13.1c3.6,0,6.9-1.5,9.2-3.8C26,21.3,27.4,18.1,27.4,14.4z"/>
		<path d="M21.6,6.8l-4,9.5L7,21.4l5.1-10.6L21.6,6.8z M9.8,18.6l6.1-3l-3.2-3.2L9.8,18.6z"/>
	</g>
</g>
</svg>
