<?xml version="1.0" encoding="utf-8"?>
<!-- Generator: Adobe Illustrator 24.1.2, SVG Export Plug-In . SVG Version: 6.00 Build 0)  -->
<svg version="1.1" id="Layer_1" xmlns="http://www.w3.org/2000/svg" xmlns:xlink="http://www.w3.org/1999/xlink" x="0px" y="0px"
	 viewBox="0 0 21.3 26.7" style="enable-background:new 0 0 21.3 26.7;" xml:space="preserve">
<style type="text/css">
	.st0{fill-rule:evenodd;clip-rule:evenodd;}
</style>
<path class="st0" d="M21.1,22.1l-0.1,0.1l-4,4c0,0-0.1,0.1-0.1,0.1l-0.2,0.1l0,0l-0.1,0.1l0,0l-0.1,0l0,0l-0.1,0l0,0l-0.2,0l-0.1,0
	l0,0l-0.1,0l-0.2,0l0,0l-0.2,0l0,0l-0.1-0.1l0,0l-0.1-0.1l0,0l-0.1-0.1l-0.1-0.1l-4-4c-0.5-0.5-0.5-1.4,0-1.9
	c0.5-0.5,1.2-0.5,1.8-0.1l0.1,0.1l1.7,1.7l0-12.8c0-0.7,0.5-1.2,1.2-1.3L16,8c0.7,0,1.3,0.6,1.3,1.3l0,12.8l1.7-1.7
	c0.5-0.5,1.2-0.5,1.8-0.1l0.1,0.1c0.4,0.4,0.5,1.1,0.2,1.6L21.1,22.1L21.1,22.1z M0.4,4.4l4-4l0.1-0.1l0.1-0.1l0,0l0.2-0.1l0,0L5,0
	l0,0l0.1,0l0,0l0.2,0h0.2l0,0l0.2,0l0,0l0.2,0l0,0l0.1,0l0.1,0.1l0,0l0.1,0l0,0l0.1,0.1l0,0l0.1,0.1l0,0l0.1,0.1l4,4l0.1,0.1
	c0.4,0.5,0.4,1.2,0,1.6l-0.1,0.1l-0.1,0.1C9.7,6.8,9,6.8,8.5,6.4L8.4,6.3L6.7,4.6l0,12.8c0,0.7-0.5,1.2-1.2,1.3l-0.2,0l-0.2,0
	c-0.6-0.1-1.1-0.6-1.2-1.2l0-0.2L4,4.6L2.3,6.3L2.2,6.4C1.6,6.8,0.9,6.8,0.4,6.3C-0.1,5.8-0.1,5,0.3,4.5L0.4,4.4z"/>
</svg>
