<?xml version="1.0" encoding="utf-8"?>
<!-- Generator: Adobe Illustrator 24.1.2, SVG Export Plug-In . SVG Version: 6.00 Build 0)  -->
<svg version="1.1" id="Layer_1" xmlns="http://www.w3.org/2000/svg" xmlns:xlink="http://www.w3.org/1999/xlink" x="0px" y="0px"
	 viewBox="0 0 1330.3 1482.4" style="enable-background:new 0 0 1330.3 1482.4;" xml:space="preserve">
<g>
	<g>
		<path d="M1330.3,419.5c-0.3,1.1-0.7,2.1-0.8,3.2c-0.4,8.2-3.6,15.5-7.6,22.5c-2.8,4.9-6.3,9.2-10.3,13.2
			c-4.5,4.5-4.5,4.9-1.4,10.2c12,20.6,12.6,41.8,2.9,63.4c-3.3,7.2-8.1,13.4-14,18.7c-3.1,2.8-6.1,5.6-9,8.2
			c-0.7,2.2,0.4,3.8,0.9,5.4c1.4,4.7,3.3,9.4,4.5,14.2c9.3,38.7-15.1,72-49,80c-5.5,1.3-11,2-16.6,2c-21,0-41.9,0-62.9,0.1
			c-1.8,0-3.5,0-5.2,0c-0.4,0.9,0.2,1.4,0.7,1.7c3.9,2.5,5.1,6.3,5.5,10.6c0.1,1.3,0,2.6,0,3.8c0,99,0,198,0,297
			c0,28.3-0.1,56.6-0.1,84.9c0,17.8-3,35-8.3,51.9c-6,19.3-16.6,36-29.7,51c-20.9,24-46.7,39.9-77.9,46.9c-13.2,3-26.5,4.5-39.9,4.5
			c-117.7,0-235.5,0.1-353.2,0.1c-24,0-48,0-72-0.1c-1.6,0-3.2,0-4.8,0c-0.6,1-1.2,1.7-1.7,2.5c-32.9,57-65.9,114.1-98.8,171.1
			c-14.5,25.1-28.8,50.2-43.3,75.3c-1.2,2.1-2.5,4.1-3.8,6.1c-4.5,6.6-10.6,11-18.5,12.7c-10.3,2.3-6.3,2.3-16.9-0.1
			c-7.9-1.7-14-6.1-18.5-12.7c-0.9-1.3-1.8-2.6-2.6-4c-45-77.8-90-155.6-135-233.4c-3.3-5.7-6.4-11.4-9.8-17.4
			c-1.9,0-3.8-0.1-5.7-0.1c-23.7,0-47.3,0-71,0c-8.2,0-16.3-0.3-24.4-1.6c-25.6-3.8-49-13.1-69.7-28.7c-23.3-17.6-40.3-40-50.6-67.3
			c-4.5-11.9-7-24.2-8.4-36.8c-1.2-11.1-1.6-22.3-1.5-33.5c0-13.3,0-26.6,0-39.8C2.1,943.4,2,881.5,1.9,819.6
			c0-5.9-0.3-11.8-0.3-17.7c0.1-46.9,0.2-93.7,0.3-140.6c0.1-18.4,0.2-36.8,0.3-55.2c0.1-18.4,0.2-36.8,0.4-55.2
			c0.2-28.5,8-54.8,23.5-78.8c16.3-25.2,38-44.2,65.4-56.8c13.3-6.1,27.3-9.8,41.8-11.9c3.2-0.4,6.4-0.5,9.6-0.6
			c20.3-0.3,40.6-0.9,60.9-0.9c137.9-0.1,275.8,0,413.6,0c1,0,1.9,0,2.9,0c5.1-0.2,9.8,0.8,13.3,5.2c1.2-1,0.8-2.2,0.8-3.2
			c0-14.1,0.1-28.2,0.1-42.2c0-33.4,0-66.9-0.1-100.3c0-6.3,2.1-11.6,6.7-15.8c3.3-3,7.2-4.8,11.6-5c1.8-0.1,3.5-0.1,5.3-0.1
			c50.7,0,101.4,0,152.1,0c1.3,0,2.6,0,3.8,0c11.2,0.1,18.9,9,19,19.4c0,3.2,0,6.4,0,9.6c0,1.3,0.1,2.5,0.2,3.9c3,0,5.5-1,8-2.1
			c12-4.9,23.5-11,34.1-18.4c5.8-4,11.5-8.2,16.9-12.7c17-14.2,32.8-29.5,46.7-46.8c11.3-14.1,21.4-29.1,30.2-45
			c8.1-14.6,12.7-30.3,13.9-47c1-13.2,1.5-26.5,1.6-39.8c0.1-7.9,1-15.7,3.9-23.1c7.8-20.2,22.6-32,43.5-36.5
			c2.2-0.5,4.4-0.8,6.6-1.2c4.2,0,8.3,0,12.5,0c1.1,0.3,2.1,0.6,3.2,0.8c1.4,0.3,2.9,0.3,4.3,0.6c10.5,2.1,20,6.5,28.5,13
			c11.8,9,20.6,20.5,26.4,34.2c7.7,18.4,11.4,37.6,11.1,57.5c-0.1,9.8-0.9,19.5-2.3,29.2c-2.9,20.6-8.3,40.4-17,59.2
			c-7.1,15.4-14.6,30.6-21.8,45.9c-1.6,3.3-2.8,6.8-4.2,10.2c-0.3,0.8-0.3,1.7-0.5,3c1.6,0,2.9,0,4.2,0c29.7,0,59.5-0.1,89.2-0.1
			c25.3,0,50.5,0.1,75.8,0.3c5.9,0,11.8,0.8,17.6,2.2c24.5,6.1,41.5,29.1,45.7,46.4c1.5,6.4,2.2,12.9,2.1,19.5
			c-0.1,9.8-2.4,19-7,27.6c-3.2,6-4.3,6,2,11.5c7.2,6.3,12.9,13.7,16.9,22.5c2.3,5,4.2,10,4.4,15.6c0,1.1,0.5,2.1,0.8,3.2
			C1330.3,408.6,1330.3,414,1330.3,419.5z M634.4,462.8c-0.3-0.2-0.6-0.3-0.8-0.5c-2.5,2.7-5.5,4.4-9,4.8c-1.9,0.2-3.8,0.2-5.7,0.2
			c-65.6,0-131.2,0-196.8,0c-88.5,0-176.9,0-265.4,0c-2.1,0-4.2,0-6.2,0.1c-6.1,0.3-12.1,0.9-18,2.6c-29.7,8.4-49.5,27.6-60.5,56.2
			c-2.4,6.2-3.7,12.6-3.9,19.2c-0.3,9-0.4,17.9-0.5,26.9c-0.1,23.8-0.1,47.7-0.1,71.5c0,128.3,0,256.6,0.1,384.9
			c0,11,0,22.1,0.1,33.1c0,6.4,0.5,12.8,1.9,19.1c3.5,14.9,10.2,28.2,20.9,39.3c17.2,18,37.9,27.8,63,27.7c25.3-0.1,50.5,0,75.8,0
			c7.5,0,15-0.2,22.6,0.1c7.6,0.3,14.8,2,21,7c3.6,2.9,6.2,6.5,8.4,10.3c6.7,11.5,13.3,23,19.9,34.5c34.5,59.7,68.9,119.4,103.4,179
			c0.9,1.5,1.5,3.1,3.1,4.5c0.7-1,1.4-1.9,2-2.8c2.6-4.4,5.1-8.9,7.6-13.3c23.6-40.9,47.2-81.7,70.8-122.5
			c14.4-24.9,28.7-49.9,43.2-74.8c1.7-2.9,3.6-5.7,5.7-8.3c4.1-5.1,9.1-9,15.3-11.1c5.8-2,11.7-3.1,17.9-3
			c12.6,0.1,25.3,0.1,37.9,0.2c38.7,0.1,77.4,0.1,116.1,0.1c90.4,0,180.8,0,271.1,0c10.1,0,20.2,0,30.2-0.9
			c4.9-0.4,9.9-0.7,14.7-2.2c20.9-6.3,37.2-18.9,49.2-37c9.7-14.7,13.8-31.1,13.7-48.7c-0.1-20.8,0.1-41.6,0.1-62.4
			c0-105.7,0-211.5,0-317.2c0-1.6-0.1-3.2,0-4.8c0.1-1.4,0.2-2.9,0.4-4.3c0.5-3.3,2-6,4.8-8c0.6-0.4,1.5-0.7,1.3-2
			c-1.6,0-3.1,0-4.7,0c-25.4,0-50.9,0-76.3,0c-6.2,0-12.5,0.1-18.7-0.4c-12.6-1-25.2-2.3-37.7-3.8c-16.7-2-33.2-4.7-49.6-8.3
			c-6.9-1.5-13.7-3.1-20.5-5c-9.9-2.8-19.1-7.4-27.9-12.5c-5.2-3.1-10.4-6.3-15.5-9.6c-4.5-2.8-9.2-5.2-14.5-6.1
			c-3.7-0.6-7.6-1-11.4,0.8c-0.1,1.5-0.2,2.9-0.2,4.4c0,5.4,0.2,10.9,0.1,16.3c-0.2,12.5-8,18.5-16.6,19.8c-2.8,0.4-5.7,0.6-8.6,0.6
			c-45.8,0-91.5,0-137.3,0.1c-5.1,0-10.2,0.1-15.4-0.1c-12.6-0.4-20.6-8.3-20.9-20.9c-0.1-2.1,0-4.2,0-6.2
			c0-46.9,0.1-93.7,0.1-140.6C634.4,480.1,634.4,471.4,634.4,462.8z M833.1,317.8c0,2,0,3.6,0,5.2c0,20.6,0,41.3,0,61.9
			c0,60.6,0,121.2,0,181.9c0,1.4-0.1,2.9,0,4.3c0.1,0.9,0.4,1.8,0.6,2.6c4.1,0,7.9,0.1,11.8,0c8.7-0.3,16.8,1.7,24.4,5.8
			c4.5,2.4,8.8,5.1,13.3,7.7c6.4,3.7,12.6,7.5,19.1,11c6.9,3.8,14.3,6.6,22,8c11.6,2.2,23.3,4.3,34.9,6.1
			c10.6,1.6,21.2,2.9,31.8,4.2c12.1,1.5,24.2,2.6,36.3,2.7c21.9,0.1,43.8,0.3,65.7,0.3c32.1,0,64.3,0,96.4-0.1
			c10.9,0,21.8,0,32.6-0.1c5,0,9.9-0.2,14.8-1.2c11-2.2,18.9-11.5,19.6-22.6c0.8-12.9-7.6-22.1-17-24.9c-3.2-1-6.6-1.2-9.9-1.2
			c-20.2,0.1-40.3,0.1-60.5,0.1c-5.3,0-10.6,0.1-15.8-0.3c-10.1-0.7-18-8.7-18.8-18.6c-0.8-10.8,5.5-19.6,15.9-21.9
			c2.3-0.5,4.7-0.7,7.1-0.7c19.5,0,39,0.2,58.5,0.2c10.4,0,20.8-0.1,31.2-0.1c4.2,0,8.3-0.3,12.4-1.2c14.3-3.3,22.7-18.7,17.7-32.5
			c-2-5.5-5.7-9.6-10.7-12.6c-4.5-2.7-9.4-3.8-14.7-3.8c-23.4,0.1-46.7,0.1-70.1,0.1c-5.4,0-10.9,0-16.3-0.2
			c-5-0.1-9.5-1.7-13.1-5.2c-9.8-9.6-9.4-25.7,4.2-33.3c1.4-0.8,2.9-1.3,4.4-1.9c2.8-1,5.6-0.9,8.5-0.9c29.7,0,59.5,0.1,89.2,0.1
			c3.8,0,7.7-0.3,11.4-1.1c14.6-3,21.9-18.3,18.8-29.4c-2.7-9.8-9-15.9-18.8-18.5c-4.7-1.2-9.5-1.1-14.3-1.1
			c-27,0-54.1,0.1-81.1,0.1c-1.4,0-2.9,0-4.3-0.1c-7.5-0.7-13.5-4.1-16.8-11.1c-6.5-13.9,2.7-30,18.5-30c5,0,9.9,0,14.9,0
			c19.8,0,39.7,0,59.5-0.1c10.4-0.1,18.2-4.8,22.8-14c7.1-13.9-0.9-30.7-16.4-34.9c-3-0.8-6-1-9-1c-61.7,0-123.5,0-185.2,0
			c-1.6,0-3.2,0-4.8,0c-6.7-0.1-12-3-16.1-8.2c-2.1-2.7-3.4-5.8-3.6-9.2c-0.8-16.4,1.5-32.2,8.1-47.3c1.9-4.4,3.9-8.7,6-13.1
			c5.6-11.8,11.4-23.6,17-35.5c10.8-23,16.4-47.3,17.7-72.7c0.7-15.4-2.5-30.2-8.3-44.4c-1.3-3.1-3-6-4.9-8.7
			c-4.2-6.1-10-10.3-17-12.8c-3.4-1.2-6.8-1.7-10.4-1.5c-7.4,0.5-13.4,5-15.9,12c-0.9,2.6-1.2,5.3-1.2,8
			c-0.2,13.6-0.6,27.2-1.5,40.7c-1,14.1-3.6,27.9-8.2,41.3c-6.6,19.2-16.2,36.9-27.9,53.4c-16.5,23.4-35.4,44.6-56.9,63.4
			c-3.7,3.3-7.4,6.5-11.2,9.8c-24.7,21.2-52.5,36.9-83.9,45.9C835.3,317,834.4,317.3,833.1,317.8z M791.3,614.9c0-2.3,0-4.3,0-6.4
			c0-106.5,0-213,0-319.5c0-1.3,0-2.6,0-3.8c0-0.9-0.3-1.8-0.4-2.9c-2.2,0-4.1-0.1-6-0.1c-34.2,0-68.4,0-102.7,0c-1.1,0-2.2,0-3.4,0
			c-0.9,0.1-1.8,0.3-2.9,0.4c0,2.3-0.1,4.4-0.1,6.4c0,106.5,0,213,0,319.5c0,1.3-0.1,2.6,0,3.8c0.1,0.9,0.3,1.8,0.4,2.6
			C680.9,615.5,786.6,615.4,791.3,614.9z"/>
		<path d="M407.2,806.3c-0.4,49.2-28.6,87.1-68.3,103.1c-11.6,4.7-23.9,7.2-36.4,8.1c-9.5,0.7-18.8-0.7-28.1-2.7
			c-16.1-3.4-30.7-9.8-43.7-19.8c-19.7-15.2-32.9-34.5-39-58.8c-3-11.7-4.6-23.6-3.5-35.6c4.2-44.4,25.8-76.6,67.2-94.3
			c13.9-5.9,28.8-8.8,44-8.2c31.3,1.2,58.3,12.3,79.6,35.7c12,13.2,20.4,28.5,24.5,46.1C405.7,789.2,407.4,798.6,407.2,806.3z
			 M253.3,808.1c0,0.8,0,1.9,0,3c0.7,14,6.7,25.4,18.3,33.1c16.1,10.8,33,11.4,49.6,1.2c11.2-6.9,17.8-17.4,20.1-30.2
			c2.2-12.2-0.8-23.5-7.9-33.6c-3.6-5.1-8.2-9.3-13.7-12.5c-10.5-6.2-21.9-7.2-33.4-4.4c-13.8,3.3-24,11.6-29.7,24.9
			C254.2,795.3,253.2,801.4,253.3,808.1z"/>
		<path d="M982.2,808.3c-0.8,36.9-15.7,66.6-45.6,88.5c-12,8.8-25.4,14.7-40,17.8c-8,1.7-16,3.1-24.2,2.9
			c-20-0.5-38.8-5.4-56.1-15.8c-18.6-11.2-32.6-26.5-42.3-46c-4.7-9.4-7.2-19.4-9.2-29.7c-6.1-31.9,4.1-70.8,30.7-96.7
			c15-14.6,32.7-24.3,53.3-28.7c12.2-2.6,24.3-3.7,36.7-2c41.4,5.9,71.3,27.6,88.2,66C979.8,778.5,982.4,793.2,982.2,808.3z
			 M916.8,808c1.5-24.1-20.5-44.9-43.9-44.9c-23.8,0-44.4,20.3-44.4,44.7c0,26,22.5,44.7,44.5,44.7
			C895.2,852.5,918.1,832.3,916.8,808z"/>
		<path d="M695,808.1c-1.1,32.9-12.7,61-38,82.8c-13.8,11.9-29.6,20-47.5,23.8c-8.6,1.9-17.3,3.4-26.1,2.9
			c-22-1.1-42.4-6.9-60.7-19.6c-17.7-12.3-30.8-28.3-38.8-48.2c-6.5-16.4-9.7-33.5-7.8-51.2c4.7-42.5,25.8-73.6,65.1-91.4
			c14.5-6.6,30.2-9.8,46.2-9.1c35.6,1.4,64.7,15.6,86.2,44.6c10.1,13.6,16.3,28.9,19.4,45.4C694.2,794.6,695,801.3,695,808.1z
			 M541,808c-0.8,25.8,22.6,44.5,44.2,44.3c22.6-0.2,44.6-18.6,44.5-44.7c-0.1-24.4-19.3-44.5-44.9-44.5
			C559.6,763.1,540.3,784,541,808z"/>
	</g>
</g>
</svg>
