<?xml version="1.0" encoding="utf-8"?>
<!-- Generator: Adobe Illustrator 24.1.2, SVG Export Plug-In . SVG Version: 6.00 Build 0)  -->
<svg version="1.1" id="Layer_1" xmlns="http://www.w3.org/2000/svg" xmlns:xlink="http://www.w3.org/1999/xlink" x="0px" y="0px"
	 viewBox="0 0 16 32" style="enable-background:new 0 0 16 32;" xml:space="preserve">
<style type="text/css">
	.st0{fill-rule:evenodd;clip-rule:evenodd;fill:#434343;}
</style>
<g>
	<path class="st0" d="M4.7,32C2,32,0,29.8,0,27.5V8c0-4.7,2.5-8,7.4-8h1.3C14.1,0,16,3.1,16,8v14h-1.9V8c0-3.2-1.3-6-5.4-6H7.4
		C3.7,2,2,4.6,2,8v19.5C2,28.9,2.9,30,4.7,30h2.7c1.7,0,2.8-1,2.8-2.5V11.5c0-1.1-0.2-1.4-2.2-1.5C5.8,10.1,6,10.5,6,11.5V20H4v-8.5
		C4,9.3,5.3,8.1,7.9,8c2.6,0.1,4.1,1.2,4.1,3.5v15.9c0,2.4-2.1,4.5-4.6,4.5H4.7z"/>
</g>
</svg>
