<?xml version="1.0" encoding="utf-8"?>
<!-- Generator: Adobe Illustrator 24.1.2, SVG Export Plug-In . SVG Version: 6.00 Build 0)  -->
<svg version="1.1" id="Layer_1" xmlns="http://www.w3.org/2000/svg" xmlns:xlink="http://www.w3.org/1999/xlink" x="0px" y="0px"
	 viewBox="0 0 666.7 500" style="enable-background:new 0 0 666.7 500;" xml:space="preserve">
<style type="text/css">
	.st0{fill:none;stroke:#000000;stroke-width:66.6667;stroke-linecap:round;stroke-linejoin:round;stroke-miterlimit:133.3333;}
</style>
<path class="st0" d="M200,50l433.3,0 M200,250l433.3,0 M200,450l433.3,0 M50,50h0.3 M50,250h0.3 M50,450h0.3 M66.7,50
	c0,9.2-7.5,16.7-16.7,16.7S33.3,59.2,33.3,50S40.8,33.3,50,33.3S66.7,40.8,66.7,50z M66.7,250c0,9.2-7.5,16.7-16.7,16.7
	s-16.7-7.5-16.7-16.7c0-9.2,7.5-16.7,16.7-16.7S66.7,240.8,66.7,250z M66.7,450c0,9.2-7.5,16.7-16.7,16.7s-16.7-7.5-16.7-16.7
	s7.5-16.7,16.7-16.7S66.7,440.8,66.7,450z"/>
</svg>
