<svg xmlns="http://www.w3.org/2000/svg" viewBox="0 0 2605.47 486.88"><path d="M817.14,102.56c83.77,0,148,61.36,148,142.29,0,80.26-64.2,141.29-148.14,141.29-83.77,0-147.81-61-147.81-141.29C669.16,163.92,733.36,102.56,817.14,102.56Zm0,215.19c42.8,0,75.57-31.93,75.57-73.4,0-41.64-32.77-73.74-75.57-73.74s-75.58,32.1-75.58,73.74C741.56,285.82,774.33,317.75,817.14,317.75Z" transform="translate(-27.58)" style="fill:#2a3f7f"/><rect x="1426.46" y="162.83" width="43.5" height="216.45" style="fill:#546082"/><polygon points="1388.86 162.29 1388.86 383.31 1386.84 383.31 1258.34 258.3 1258.34 379.55 1214.83 379.55 1214.83 158.8 1216.98 158.8 1345.22 283.54 1345.22 162.29 1388.86 162.29" style="fill:#546082"/><polygon points="1177.24 157.46 1177.24 379.28 1133.73 379.28 1133.73 285.02 1071.43 375.66 1071.16 375.66 1008.72 285.02 1008.72 379.28 965.21 379.28 965.21 157.46 967.63 157.46 1071.29 300.46 1174.82 157.46 1177.24 157.46" style="fill:#546082"/><path d="M1889.18,269a41.47,41.47,0,0,1-1,8.64,34.61,34.61,0,0,1-2.28,7.26c-1.56,4.24-4.63,8.84-9.6,14.41a150.52,150.52,0,0,1-17,15.93c-6.48,5.29-13.87,10.85-22,16.54s-16.44,11.1-25,16.24l-.16.09c-8.85,5.11-19.29,10.63-31,16.41s-24,11.69-36.62,17.68c-12.86,6.09-26.12,12-39.43,17.56s-25.78,10.56-37.27,14.95l-.29.11c-7.86,2.73-16.57,5.63-25.89,8.63-9.5,3-19,5.89-28.06,8.42s-17.49,4.66-25.11,6.4a143.74,143.74,0,0,1-18.3,3.22c-2.67.33-5.49.66-8.48,1L1546.89,444l3.41-13.84a28.51,28.51,0,0,0-.13-14.53,176.69,176.69,0,0,0-6.54-18.39l-4.56-11.13,15.25-3.17c4.87-1,11.85-2.52,20.74-4.5,8.7-1.93,18-4.11,27.72-6.49,9.27-2.28,18.53-4.63,27.51-7,8.82-2.33,17-4.6,24.44-6.74s13.58-4.14,18.64-6l.29-.11.3-.09c7.44-2.27,16.29-5.33,26.32-9.11,10.22-3.85,20.89-8.05,31.69-12.47,11.14-4.56,22.17-9.19,32.79-13.77,10.84-4.67,21.1-9.21,30.5-13.5s17.56-8.24,24.42-11.84c8.33-4.36,12.32-6.77,14.2-8l11.9-7.62a53.48,53.48,0,0,1,7.59-5.79c1.36-.88,2.43-1.65,3.26-2.31a72.15,72.15,0,0,0-7-3.58,142.3,142.3,0,0,0-16.43-6.1c-6.22-1.91-12.87-3.72-19.76-5.37-6.62-1.57-13.31-2.85-19.87-3.8-4.68-.32-10.48-.65-17.28-1-7.14-.32-14.69-.49-22.43-.49s-15.73.17-23.74.5c-7.78.32-14.66.81-20.45,1.45l-.3,0c-10.63.86-14,1.51-15,1.75a6.58,6.58,0,0,0-1.53.54l-.16.15c-.6.8-2.44,3.45-7.2,11.54-5,8.51-10.8,18.18-17.68,29.55-10.69,17.45-18,29.35-22.91,37.5-5.24,8.61-9.12,14.82-11.54,18.46-2.68,4-6.34,9.51-12.76,9.51h-1.22l-1.27-.31a14.38,14.38,0,0,1-6.7-3.9c-3.14-3.14-4.86-7.69-5.4-14.3l-.14-1.62.4-1.59c.32-1.33,1-3.59,3.9-11,2-5.29,4.64-11.52,7.72-18.53s6.54-14.64,10.17-22.37,7.23-15.23,10.59-21.94l2-4.37a27.38,27.38,0,0,1-4.05-3.15,45.82,45.82,0,0,1-8.38-10.62,50.35,50.35,0,0,1-5-11.64c-1.7-6.13-1.07-11.25,1.89-15.2l.43-.57.5-.5c3.5-3.5,8.57-5.8,16-7.23,8.6-2.23,15.37-4.1,20.11-5.57s8.08-2.61,10.32-3.51a8,8,0,0,0,1.27-.61c1-1.28,2.17-3,3.31-4.55,6-10.7,11.68-20.32,16.8-28.57,3.94-6.35,7.7-11.94,11.24-16.7q-5.41.24-12.61.74c-9.78.7-20.3,1.54-31.27,2.51s-22.75,2.15-34.74,3.5c-8.73,1-17.17,2-25.07,3L1585,161.69l5.73-15.48c.71-1.9,1.28-3.6,1.74-5.19a33.88,33.88,0,0,0,.76-3.31l1.41-7.29,12.06-1.25c13.24-1.34,25.58-2.6,36.7-3.77,10.89-1.13,20.14-2.07,27.52-2.78l.24,0c9.51-.67,21.35-1.19,35.19-1.53,9.28-.22,18.74-.34,28.11-.34,4.64,0,9.36,0,14,.09,14.1.17,27.27.43,39.17.75,12.41.36,21.33,1.06,27.26,2.14,17.43,2.51,29.21,5.23,36,8.33,12.76,5.84,14.66,15.14,14.66,20.16a30.83,30.83,0,0,1-2.23,11.52,31.54,31.54,0,0,1-8,11.13,87.6,87.6,0,0,1-12.5,9.42,155.27,155.27,0,0,1-19.08,10.11c-8.88,4.77-20.14,10.09-33.45,15.82q-8,3.47-16.45,7.05a325.75,325.75,0,0,1,43.29,4.89c17.59,3.35,33.18,8.47,46.36,15.21,9,4.33,15.23,8.59,19,13A27.93,27.93,0,0,1,1889.18,269ZM1818.06,152.5l-3.64-.42c-14.88-1.63-33.31-2.8-54.76-3.47l-9.39-.18a31.49,31.49,0,0,1,.52,5.79,41.51,41.51,0,0,1-.35,5.67,29.74,29.74,0,0,1-1.87,6.59,62,62,0,0,1-3.63,7.29c-1.11,1.95-2.54,4.31-4.33,7.18l1.81-.57c10.74-3.25,22.22-7.16,34.11-11.62s23-8.77,33-12.76Q1814.07,154.2,1818.06,152.5Z" transform="translate(-27.58)" style="fill:#4762ae"/><path d="M1852.18,269a31.49,31.49,0,0,1-.75,6.54,24,24,0,0,1-1.77,5.53q-1.5,4.53-7.8,11.58A139.23,139.23,0,0,1,1826,307.45q-9.57,7.82-21.39,16.11t-24.4,15.85q-13.1,7.54-30.45,16.1t-36.48,17.62q-19.14,9.06-39,17.36t-37,14.84q-11.6,4-25.67,8.56t-27.68,8.3q-13.59,3.78-24.66,6.29a131.69,131.69,0,0,1-17.11,3c-2.69.33-5.53.67-8.55,1l-.62.06a38.67,38.67,0,0,0-.2-19.58,185.3,185.3,0,0,0-6.92-19.52l3.46-.72q7.29-1.5,20.88-4.52t27.93-6.55q14.35-3.53,27.68-7t24.66-6.8q11.32-3.27,19.38-6.29,11.56-3.53,26.92-9.31t32-12.58q16.6-6.8,33-13.84t30.7-13.58q14.34-6.54,24.91-12.08t15.09-8.56l12.59-8.05a40.6,40.6,0,0,1,6.79-5.28,41.44,41.44,0,0,0,6.79-5.29l6-6-5.53-5a62.54,62.54,0,0,0-12.33-7,151.58,151.58,0,0,0-17.62-6.55q-9.81-3-20.38-5.53t-21.13-4q-7.07-.49-17.87-1t-22.9-.51q-12.07,0-24.15.51t-21.14,1.5q-12.58,1-16.61,2a12.7,12.7,0,0,0-6,3q-1.51,1-9.06,13.84t-17.62,29.44q-15.09,24.66-22.89,37.49T1598,343.18c-2.35,3.53-3.86,5.2-4.53,5a4.57,4.57,0,0,1-2-1.26c-1.34-1.35-2.19-4-2.52-8q.49-2,3.53-9.82t7.55-18.11q4.53-10.32,10.06-22.15t10.57-21.89l7-15.6h-4q-3.53,0-7.3-3.52a35.3,35.3,0,0,1-6.54-8.3,40,40,0,0,1-4-9.31c-.84-3-.75-5.2.25-6.55q3-3,11.08-4.53,13.57-3.51,20.88-5.78c4.86-1.51,8.56-2.77,11.07-3.78a12,12,0,0,0,5.29-3.52c1-1.34,2.34-3.18,4-5.54q9.06-16.09,16.86-28.68a203.24,203.24,0,0,1,14.34-20.63l9.57-11.58h-12.59q-7.54,0-21.89,1t-31.45,2.52q-17.12,1.5-35,3.52-13.38,1.52-25.21,3c.72-1.94,1.38-3.89,2-5.87.34-1.17.67-2.61,1-4.22l4.66-.48q19.88-2,36.74-3.78t27.42-2.76q14.09-1,34.73-1.51t41.77-.25q21.14.26,39,.75t25.92,2q24.65,3.53,33.46,7.55t8.81,11.07A20.7,20.7,0,0,1,1827,160a21.74,21.74,0,0,1-5.54,7.55,78.47,78.47,0,0,1-11.07,8.31,145.37,145.37,0,0,1-18.11,9.56q-13.1,7.05-33,15.6t-42.52,18.11l-17.61,7.55h30.19q33.7.51,58.88,5.29t43.78,14.34q11.57,5.55,15.85,10.57A18.05,18.05,0,0,1,1852.18,269Zm-41.52-114.49c6.21-3.19,8.81-5.11,7.8-5.79q-7.05-4-29.94-6.54t-55.61-3.52l-25.66-.51,3.52,4.53a39.69,39.69,0,0,1,2,5,20.67,20.67,0,0,1,1,6.55,32,32,0,0,1-.25,4.27,19.86,19.86,0,0,1-1.26,4.28,51.06,51.06,0,0,1-3,6q-2,3.52-5.54,9.06-10.56,16.11-11.82,18.62t1.76,2q1-1,8-3.27t16.61-5.28q16.61-5,34.72-11.83t33.22-12.83Q1801.35,159.25,1810.66,154.47Z" transform="translate(-27.58)" style="fill:#4762ae"/><path d="M2633,249.32a106.93,106.93,0,0,1-2.29,22.73q-3.42,15.54-7.36,30.81a223.16,223.16,0,0,1-9.94,29.81q-4,9.85-7.76,18.94a118.25,118.25,0,0,1-9.32,17.92,65.07,65.07,0,0,1-5.33,7.56q-2.79,3.39-5.85,6.52-9.68,10.44-23.6,6.5-26.13-5.87-36.13-30.51a111.87,111.87,0,0,1-7.61-35.53,289.77,289.77,0,0,1,.14-30.19q.83-15.24,1.68-30.22.35-12.9.95-25.82A185.2,185.2,0,0,0,2520,212q0-1,0-2.58a5.54,5.54,0,0,0-1.08-3.09,7.93,7.93,0,0,0-4.1,2.11,33.58,33.58,0,0,1-3.57,3.15,32.23,32.23,0,0,0-6.61,8.09c-1.69,2.94-3.37,6-5,9.09a324.56,324.56,0,0,0-20.23,52.91,388.47,388.47,0,0,0-11.44,55.37c-.63,5.18-1.41,10.35-2.38,15.52s-1.76,10.35-2.38,15.52a38.7,38.7,0,0,1-.2,4.64,14.27,14.27,0,0,0,.31,4.64q.63,9.81-9.16,10.44a29.26,29.26,0,0,1-17.86-4.41,32.84,32.84,0,0,1-12.3-13.78,76.31,76.31,0,0,1-6.17-18q-1.92-9.27-3.07-18.54-1.56-10-2.51-20.05c.15-.36.29-.73.44-1.09a405.08,405.08,0,0,0,15.64-48.21,36,36,0,0,0,1.21-6.72c.14-2.07.37-4.3.68-6.72s-.9-3.94-3.66-4.6a4.53,4.53,0,0,0-5.13,2.64,4.63,4.63,0,0,0-1.26,2.6,10.16,10.16,0,0,1-.74,2.59q-3.75,13.23-8.73,25.84-.08-16.49.9-33,.84-13.42,1.47-26.08t1.47-26.09q.43-7.22,2.72-9.58c1.53-1.57,4.7-2.38,9.52-2.45a46.59,46.59,0,0,1,30.07,10.46,12.84,12.84,0,0,1,5.33,13.36,355.7,355.7,0,0,0-4.86,44.45q-1,22.22-1.24,44.41l.06,4.13a12.54,12.54,0,0,0,1.09,4.63q2.46-8.28,4.16-15.8t3.66-15.27q3.95-14,8.64-28t10.18-27.49a60.32,60.32,0,0,1,11.57-19.25q12.15-14.59,31.22-9.69,28.35,7.92,36.42,37.23a121.13,121.13,0,0,1,4.56,34q-.83,16.54-1.13,33.05t-1.12,33a184.94,184.94,0,0,0,1,36.65,10.79,10.79,0,0,0,.29,2.31c.18.86.44,2,.81,3.34a71.51,71.51,0,0,0,13.49-14.61,113.37,113.37,0,0,0,9.35-16.64,445.26,445.26,0,0,0,30-77.81,52.5,52.5,0,0,0,1.74-5.44c.49-1.9,1.06-3.89,1.73-6a4.53,4.53,0,0,1,5.13-2.65C2631.61,245.38,2633,246.91,2633,249.32Z" transform="translate(-27.58)" style="fill:#6683d6"/><path d="M2426.53,245.74q4.14,1,3.66,4.6c-.31,2.42-.54,4.65-.68,6.72a36,36,0,0,1-1.21,6.72A405.08,405.08,0,0,1,2412.66,312c-.15.36-.29.73-.44,1.09q-1.12-11.64-1.4-23.27c-.08-3.47-.14-6.94-.15-10.4q5-12.63,8.73-25.84a10.16,10.16,0,0,0,.74-2.59,4.63,4.63,0,0,1,1.26-2.6A4.53,4.53,0,0,1,2426.53,245.74Z" transform="translate(-27.58)" style="fill:#6683d6"/><path d="M2410.82,289.81q.29,11.64,1.4,23.27-9.09,22.79-20.4,45.11a50.54,50.54,0,0,1-5.81,9.36,110.8,110.8,0,0,1-7.39,8.36q-10.2,9.93-25.2,7.55-15.51-2.38-24.92-11.3t-14.23-23.31a148.85,148.85,0,0,1-6-25.47q1.55-5.31,3-10.63,6.41-23.31,11.8-46.6a51.47,51.47,0,0,0,1.39-12.41q1-5.16-3.17-5.63c-3.8-.64-6.19.25-7.19,2.67-.67,1.74-1.34,3.46-2,5.19s-1.32,3.45-2,5.18q-2,8.91-4.43,17.63c.1-2.1.25-4.18.44-6.22q.27-19.62,1.58-38.48t4.17-37c.63-5.17,2.12-8.81,4.51-10.9s6.33-2.83,11.85-2.22c3.79.65,7.5,1.45,11.13,2.45a35.38,35.38,0,0,1,10.64,5q8.33,5.58,6.39,14.89-3.85,23.26-5.87,46.27a374.7,374.7,0,0,0-1.22,46.22q.67,13.92,1.64,27.85a203.19,203.19,0,0,0,3.7,27.31c.36,1.72.64,3.18.83,4.37s.47,2.67.83,4.38q1.62,5.14,5.18,1.49a20,20,0,0,0,3.06-2.63c1-1,1.87-1.91,2.55-2.61a87.27,87.27,0,0,0,12.19-15.64q5.06-8.31,9.59-17.16,9.08-17.66,17.1-35.57,2.49-5.56,4.74-11.24C2410.68,282.87,2410.74,286.34,2410.82,289.81Z" transform="translate(-27.58)" style="fill:#6683d6"/><path d="M2357.53,96.92c3.13,2.72,4,6,2.71,9.78a46.83,46.83,0,0,0-3,9.83q-1,5.19-1.93,10.36a72.27,72.27,0,0,1-2.7,10.87,88.93,88.93,0,0,1-4.25,10.38q-2.52,6.23-9.24,4.76a22.76,22.76,0,0,1-9.85-4q-4.17-3-5.28-9.23-2.18-7.71-3.55-15.44a63.24,63.24,0,0,1-1-15q0-4.14-.09-7.48a48.15,48.15,0,0,1,.43-7c0-3.1.45-5.16,1.47-6.22s2.89-1.75,5.65-2.13Q2344.47,84.7,2357.53,96.92Z" transform="translate(-27.58)" style="fill:#6683d6"/><path d="M2321.26,248.11q4.13.46,3.17,5.63a51.47,51.47,0,0,1-1.39,12.41q-5.39,23.3-11.8,46.6-1.45,5.33-3,10.63-.66-4.42-1.11-9-1.17-10.83-1.55-21.41-.27-7.26.07-14.17,2.46-8.71,4.43-17.63c.67-1.73,1.32-3.45,2-5.18s1.34-3.45,2-5.19C2315.07,248.36,2317.46,247.47,2321.26,248.11Z" transform="translate(-27.58)" style="fill:#6683d6"/><path d="M2307.12,314.36q.45,4.59,1.11,9-5.22,18-11.36,36c-1.34,3.45-2.75,6.92-4.26,10.37a48.43,48.43,0,0,1-5.81,9.89q-7.12,8.86-17.44,8.48-28.29-.18-41.86-25.29A111.07,111.07,0,0,1,2217,338.21,224.05,224.05,0,0,1,2211,312a46.44,46.44,0,0,1-1.36-7.46,35,35,0,0,0-1.37-6.95q-4,11.93-8,23.32t-8,22.82a168.13,168.13,0,0,1-13.57,30.11Q2167.18,393,2146,389.7q-21.19-2.83-34.31-19.18-16.27-22-17.12-47.27-.72-13.65-.17-26.95A67.74,67.74,0,0,0,2109,278.67a48.47,48.47,0,0,0,4.93-18.13c0-2.75-1.61-4.44-4.71-5.1s-5.51.77-7.18,4.22a59.5,59.5,0,0,1-5,8.92,143.1,143.1,0,0,1,14.34-42.07,58.86,58.86,0,0,1,5.82-9.62,85.89,85.89,0,0,1,7.38-8.62q10.68-12,24.31-16a77.53,77.53,0,0,1,29.13-2.7,82.23,82.23,0,0,1,17.08,3.66,31.44,31.44,0,0,1,14.55,10.39c1.69-1.39,2.6-2.78,2.76-4.16a12.68,12.68,0,0,1,1.23-4.15q3-7.26,10.09-8.9a34.3,34.3,0,0,1,14.53-.18,43.89,43.89,0,0,1,13.63,5.5q5.73,4.06,5.32,12.32-4.35,23.28-6.37,46.54a281.56,281.56,0,0,0-.2,46.46q1.24,15.47,3.5,30.92a183.65,183.65,0,0,0,7.1,30.37,28.64,28.64,0,0,0,5.31,11.8,8.41,8.41,0,0,0,3.83-2.88c.84-1.21,1.59-2.35,2.28-3.39a104.25,104.25,0,0,0,9.33-17.15q3.77-8.82,6.75-17.63,6-16.59,11.7-33.45,2.82-8.31,5.2-16.82-.34,6.92-.07,14.17Q2306,303.54,2307.12,314.36ZM2204.3,264.31a68.42,68.42,0,0,0,.81-16.8,50.88,50.88,0,0,0-3.33-18,66.36,66.36,0,0,0-9-15.89,16.63,16.63,0,0,0-6.79-6.1c-2.79-2-5.36-2-7.74.09l-4.61,3.16a60,60,0,0,0-12,14.34,88.55,88.55,0,0,0-7.78,16.88,192.92,192.92,0,0,0-11.19,94.61,95.61,95.61,0,0,0,10.25,35,15.33,15.33,0,0,0,6.14-4c1.36-1.56,2.88-3.21,4.59-5a110.47,110.47,0,0,0,10.65-15.1q4.54-7.8,8.56-16.63a235.63,235.63,0,0,0,9.49-25.16q4-12.67,7.94-25.13A153.92,153.92,0,0,0,2204.3,264.31Z" transform="translate(-27.58)" style="fill:#6683d6"/><path d="M2109.21,255.44c3.1.66,4.68,2.35,4.71,5.1a48.47,48.47,0,0,1-4.93,18.13,67.74,67.74,0,0,1-14.62,17.63q.47-11.32,1.87-22.37c.23-1.78.49-3.57.8-5.35a59.5,59.5,0,0,0,5-8.92Q2104.54,254.48,2109.21,255.44Z" transform="translate(-27.58)" style="fill:#6683d6"/><path d="M2097,268.58c-.31,1.78-.57,3.57-.8,5.35q-1.39,11.06-1.87,22.37a1.27,1.27,0,0,0-.13.11,80.54,80.54,0,0,1-19.46,12.12,18.1,18.1,0,0,1-4.89,1.35,42,42,0,0,1-4.89.32q-22.74-.74-36.06-14a64.87,64.87,0,0,1-17.68-30.75c-.74-3.43-1.38-6.77-1.93-10s-1.2-6.44-1.93-9.52a135.22,135.22,0,0,0-4.2,15q-1.71,7.77-3.67,15.54-3.91,18.12-8.06,36.24a371.88,371.88,0,0,0-6.5,36.72q-1,7.26-1.88,14.74t-1.88,14.73q-.93,8.28-5.78,12.21t-12.61,3q-17.05-1.84-25-16.72a48.51,48.51,0,0,1-6.42-17.47q-6-23.14-9.61-46.08a246.8,246.8,0,0,1-2.92-46.67q.84-15.49,1.42-31a164.17,164.17,0,0,1,4-30.5q2.43-10.87,6.79-14.28c2.88-2.28,8.13-3.29,15.7-3a59.27,59.27,0,0,1,27.46,7.91q7.8,5.06,7.42,15.39-1.89,14-3,28.16t-3,28.69a150.9,150.9,0,0,0-.24,21.68,163.43,163.43,0,0,1-.23,22.2,83.18,83.18,0,0,0,4-12.69c1-4.31,1.78-8.71,2.42-13.19q3.92-16.58,7.59-32.63a322.47,322.47,0,0,1,9.14-32.11c1.32-3.8,2.82-7.53,4.5-11.16s3.35-7.34,5-11.16q6.06-10.4,17.44-9,19.63,1.81,29.68,20.78a76.57,76.57,0,0,1,5.92,18.76,94.59,94.59,0,0,1,1.28,19.86q.09,6.72-.34,13.18t-.88,12.65c0,2.75.15,5.59.37,8.51a28.44,28.44,0,0,0,1.91,8.49q1.61,4.13,5.19,2a55.25,55.25,0,0,1,5.39-2.9,18.73,18.73,0,0,0,5.37-3.95q6.61-6.27,12.74-12.8A51.41,51.41,0,0,0,2097,268.58Z" transform="translate(-27.58)" style="fill:#6683d6"/><path d="M424.77,332.41c-.65,12.74-3.69,24.39-10.21,34.89-10.2,16.43-24.6,27.43-43.42,32.28-21.71,5.57-42,2-61-9.41-2.75-1.67-4.92-2.1-7.75,0-8.68,6.37-16.13,14-21.35,23.23-10.27,18.31-19.68,37.06-29.38,55.66-2.24,4.34-4.12,8.9-6.3,13.31-1.95,4.06-4.56,5.36-7.67,4s-4.77-5.57-3.18-9.26c2.68-6.15,5.43-12.3,8.39-18.31q16.29-32.89,32.64-65.79c2.39-4.85,4.56-9.84,6.88-14.69,1.09-2.24,1.16-4.13-1.38-5.43-2.82-1.45-3.18,1.09-4,2.53-7.38,13-14.33,26.2-22.22,38.87-10.93,17.51-19.9,36-28.59,54.79-2.17,4.63-4.19,9.41-6.58,14-2,3.69-4.49,4.48-7.67,3a6.16,6.16,0,0,1-2.68-8c4.7-10.93,9.62-21.71,14.33-32.64.65-1.59.94-4.92.43-5.14-2-.87-4.63-1.59-6.73-1-7.89,2.1-15.49,5.42-23.45,7-35,6.94-66.51-.94-94-24-19.18-16.07-30.9-36.62-36-60.87-1.38-6.65-1.16-13.67-1.88-20.48a9.33,9.33,0,0,0-2-5c-18-18.24-27.36-40.46-30.76-65.36a174.69,174.69,0,0,1,2.9-62.82,322.61,322.61,0,0,1,12.59-43.57c10-26.19,25.4-49.28,43.42-70.63,15.85-18.82,33.59-35.61,54.21-49a258.31,258.31,0,0,1,55.22-26.92,304.67,304.67,0,0,1,63-15.13A286.9,286.9,0,0,1,295.73,0a419.84,419.84,0,0,1,44.72,2c24.32,2.61,47.84,9.27,71,17.08C426.51,24.1,441.2,30,455.09,37.56c31.05,16.87,57.18,39.23,77.88,68a190.92,190.92,0,0,1,33.15,77.08c4.34,23.16,4.77,46.32-1.23,69.12-6.73,25.91-20.63,47.4-42.13,63.83-22.58,17.23-48,24.39-76.06,21.86-6.3-.58-12.38-2.68-18.6-4.13A19.3,19.3,0,0,1,424.77,332.41ZM249.7,190.92c1.15-1.59,2.53-2.82,3.11-4.41,2.89-8,5.86-15.92,8.18-24.1,4-13.54,4.48-27.43,3-41.47-.29-2.83.58-5.21,3.69-6.23,3.69-1.15,7,1.6,7.38,6.81.8,12.52.8,25-2.17,37.34-4,16.72-9.41,32.93-17.59,48.13a4.94,4.94,0,0,0-.07,3.4,13.14,13.14,0,0,0,1.88,2.9c4.05.87,6.88-1,8.54-4.78.15-.29.58-.8.72-.72,3.48.86,4.64-2,6-4a122.09,122.09,0,0,0,15.27-30.4c4.78-13.61,5.58-27.72,5.43-42a8.54,8.54,0,0,1,1.52-5.21,5.69,5.69,0,0,1,4.7-1.23c3.12.72,4,3.47,4.2,6.44,1.59,26.06-5.06,49.87-18.74,71.94a22.39,22.39,0,0,0-1.59,3.91c.43.29.86.58,1.3.94,3.18-3.26,6.73-6.3,9.62-9.91,17.08-21.57,25.77-45.89,24.83-73.68-.65-19-4.85-36.77-14.77-53C295.94,58,284.65,48.13,269.38,42.85,255.2,38,240.94,38,226.32,40.17a110,110,0,0,0-49.58,20.62c-5.28,3.91-6.58,4.2-8.9,1.38-2.46-3-1.81-5.28,2.82-9.34,7.24-6.29,15.64-10.64,24.39-14.25a17.06,17.06,0,0,0,2.75-1.67,36.87,36.87,0,0,0-21.56,2A153.45,153.45,0,0,0,124.05,74c-5.35,5.42-9.33,11.72-10.2,19.75-.36,3.41.94,6.16,3.62,7,2.24.65,5.5-.07,7.67-1.3C129,97.27,132.23,94,136,91.7c20.77-12.81,42.91-19.11,67.59-14.62,27.43,5,43.79,27.36,47,51.67,2,15.2-.36,30.18-1.74,45.31C248.61,179.49,246.15,185.21,249.7,190.92Zm199.39-37.49c1.59-.36,2.75-.58,3.91-.79,7.31-1.31,14.62-3.62,21.92-3.62,28.3.07,50.45,12,65.72,36,9.26,14.62,13,30.9,12.81,48.13,0,1.81.22,3.62.36,6.15.87-1,1.23-1.23,1.31-1.52.21-.94.43-1.88.57-2.82A148.48,148.48,0,0,0,554,182.24c-4.42-21.35-11.73-41.69-24.47-59.64a11,11,0,0,0-5-3.4c-6-2.1-12.37-3.33-18.09-5.86-10-4.42-17.81-11.73-24.1-20.63-1.67-2.31-2-5.06.5-6.73A9.13,9.13,0,0,1,489,85c1.37.21,2.6,2,3.62,3.4a47.52,47.52,0,0,0,20.19,15.78,27.64,27.64,0,0,0,3.47.94c.15-.29.36-.65.51-.94-6.08-6.73-11.94-13.75-18.31-20.2a188.85,188.85,0,0,0-36.41-28.66c-15.7-9.48-31.77-18.09-50-21.71-17.29-3.47-34.08-3-49.72,6.08-10.71,6.23-17.8,14.91-17.44,28.15s7.09,22.73,18.24,29.1c5.64,3.18,11.72,6.58,18.82,2.89-.15-.5-.29-1.08-.44-1.66-3.33-9.26-7.16-18.31-10-27.72-2.46-8.11,1.38-16.65,7.75-20.05,3.69-1.95,7.38-1.45,9.12,1.23,1.88,2.9,1.08,4.92-3,7.89s-4.56,6.66-1.59,10.5c3.32,4.34,8.1,5.28,13.17,5.35,8.9.07,17.8-.72,26.63.15,11,1,20.77,5.86,29,13.31,3,2.75,3.26,5.21,1.09,7.89-1.88,2.32-5.14,2.53-8,0-9.85-8.54-21.43-11.51-34.09-11.29-5.07.15-10.06.58-15.13.65-2.6,0-5.21-.5-8-.79a10.54,10.54,0,0,0,.58,2.82c3.76,8.61,9.48,15.27,18.67,18.31,3.55,1.16,7.09,2.24,10.71,3.11,15.85,3.91,22.73,16.21,23.09,30.47a14.09,14.09,0,0,0,.36,2.39,5.4,5.4,0,0,0,2.24-3.11c1-6.23,1.89-12.52,3-18.75.29-1.66.58-3.83,1.67-4.77a6.92,6.92,0,0,1,5.21-1.16c2.67.58,3.9,2.89,4.05,5.72a52.48,52.48,0,0,1-3.76,22.58C452.71,146.12,451,149.45,449.09,153.43ZM323.52,378.88a44.55,44.55,0,0,0-8.18-25.55C310,345.88,304.19,338.64,298.4,331a30.43,30.43,0,0,1,4.13,2.17c17.3,12.95,30,29,33.8,50.95.29,1.52.36,2.53,2.6,2.39,3.12-.22,5.29-1.74,5.43-5.36.58-17.87-4.92-33.65-17.22-46.75-15.85-16.94-36.55-24-58.77-27.07-18.46-2.6-37-.58-55.51,1s-37,3.19-55.51.37c-13.61-2.1-26.49-6.52-37.49-15-15.71-12.15-24.54-29-30.76-47.4C85.77,236.23,83.16,226,79.4,216,74.7,203.59,65,203.44,56,209.89,48.13,215.6,43.94,223.78,41.84,233a101.62,101.62,0,0,0-.07,44.08c4.48,20.77,13.46,39,30.54,52.47a70.15,70.15,0,0,0,8,4.92c.22-.36.43-.65.65-1-2.82-2.9-6.15-5.5-8.25-8.83a160.18,160.18,0,0,1-10.85-19.83c-8.4-18.6-10.43-38.14-6.81-58.19.8-4.34,1.81-8.69,3-13,.8-2.67,2.68-4.34,5.79-3.54a5.56,5.56,0,0,1,4,6.37c-.07.58-.14,1.15-.28,1.81-4.06,17.44-4.49,34.88.36,52.18C71,301,75.56,311,83,319.31c14.84,16.72,34.3,23.31,55.8,24.9,13.75,1,27.43-.43,41-2.39l53-7.6c-3.33-.5-6.59-1.37-9.85-1.44-7.09-.22-14.26,0-21.35-.08-13.68-.21-27,3.48-41,1.89-15.71-1.81-31.34-3-45.81-10a62.59,62.59,0,0,1-24.68-21.06c-2-3-1.38-6,1.3-7.89,2.31-1.67,5-1,7,2.1,7.24,10.85,17.66,17.15,29.6,21.28,19.18,6.73,39.08,5.93,59,4.84,16.07-.94,32.14-2.46,48.28-.5,28.15,3.4,51.09,16.35,70.13,37.05C311.5,366.58,314.25,376.06,323.52,378.88Zm104.65-62.17c1.3,2.24,3.62,2.17,5.79,2.24,12,.58,23.16-2.31,34.23-6.87,16.22-6.66,27.87-18,35.76-33.22A66.66,66.66,0,0,0,511,239.63c-1.74-14.84-7.74-27.21-19.4-36.62-11.21-9-23.95-10.93-37.56-7.17a32.18,32.18,0,0,0-15.2,9.85c-1.88,2-4,3.11-6.51.94-2.24-2-2.24-4.2-.58-6.66a29.11,29.11,0,0,1,12.3-10.64c20.2-9.34,39.88-6.22,56,8.25,19.18,17.23,25.48,39.59,20.19,64.85-1.73,8.18-4.77,16.07-7.16,24.1a10.46,10.46,0,0,0,1.16.8c3-1.52,7.09-2.18,9-4.64,4.78-6.08,9.63-12.44,12.67-19.47A82.16,82.16,0,0,0,542.23,224c-1.44-18.38-7.89-34.31-21.42-47.12-12.09-11.51-26.49-17.15-43.06-17.51a72,72,0,0,0-25.41,3.83c-11.65,4.06-22.21,9.77-28.29,21.14-4.27,8.1-7.75,16.64-11.95,24.75-8.9,17.22-19.54,33.15-36.47,43.71-1,.58-1.59,1.81-2.75,3.19,20.7,2.24,33-9.56,44.29-23.6a106.29,106.29,0,0,1-9.63,15.35c-4.05,5.28-8.68,10.13-13,15.27-.58.65-.58,1.88-.73,2.53-2,.51-3.76.94-5.57,1.38.94,1.3,1.74,2,2.61,2,5.21.07,10.56.58,15.63-.14,7.09-1,12.16-5.5,15.27-11.8,3-6.08,5.21-12.52,8.25-18.6,8-15.85,24-20.63,38.5-15.2,17.16,6.3,22.95,24.32,20.85,39.66-1.59,11.37-6.88,21.28-13.68,30.26a47.38,47.38,0,0,1-20.12,15.56c-8.61,3.47-17.08,7.67-26.71,7.31C428.68,316,428.53,316.35,428.17,316.71Zm-27.5,48.71c.51-.51,1.08-.87,1.3-1.31,4.78-7.81,7.89-16.21,8.32-25.47.66-15.13-4.63-28.37-13.53-40.24-14.26-18.89-33.51-29.82-56.52-33.87-14.48-2.54-29.1-3.91-43.65-5.86-31.7-4.35-58.69-17-79.46-42.42-11.94-14.62-28.23-21.06-47.33-18.38-15,2.1-26.13,9.84-31.42,24.32-4.63,12.66-.65,24.17,6.74,34.67,3.32,4.7,6.65,9.69,13,11a53.8,53.8,0,0,0-1.88-6.59c-1-2.39-2.6-4.63-3.69-7-4.13-9,.58-21.49,9.48-25.55,8.25-3.76,18.17-.87,25.4,7,4.42,4.78,8.76,9.63,13.76,13.75,13.1,11,28.87,16,45.45,18.75,16.35,2.67,32.93,4.63,49.14,8.1,27.43,5.86,50.44,19.11,66.94,42.49,11.51,16.28,17,34.3,15.71,54.28-.14,1.88-2.61,4.63.51,5.5,1.15.29,3.76-2.39,4.7-4.27,4.78-9.7,5.86-20.05,4.56-30.62-.58-4.63-1.74-9.19-2.46-13.82-.43-2.75.43-5.07,3.47-5.94s5.21.22,6.73,2.83a11.85,11.85,0,0,1,1.67,4c1.16,6.87,2.39,13.68,3,20.62C401,355.94,400.67,360.5,400.67,365.42ZM99.59,148.87c.51.37,1,.8,1.52,1.16,1.74-1.16,3.48-2.24,5.21-3.4,23-14.91,47.77-19.83,74.55-14.11a56.22,56.22,0,0,1,12,4.56,4.06,4.06,0,0,1,2.17,5.71c-1.15,2.46-3.18,3.48-5.93,2.32a15.94,15.94,0,0,0-3.11-.94c-6.52-1.45-13-3.47-19.62-4a78.14,78.14,0,0,0-39.73,6.73c-18.82,8.61-34.59,20.26-37.63,42.77-.8,5.94-3.26,12.23,1.59,17.8.29.37.07,1.16.21,1.74,1.74,6.66,3.48,13.39,5.43,20,.29,1,1.52,1.73,2.32,2.6l1.52-.43c.07-3.19.51-6.44.29-9.56-1.52-23.81,12.52-49.43,36-58.18,22.51-8.47,44.36-7.17,65.42,5,1.45.87,3,1.52,4.42,2.24V154.37c0-5.57-.07-11.07-.07-16.64,0-13.1-7.82-19.9-19-22.22a54.5,54.5,0,0,0-29.45,2.39,5.51,5.51,0,0,1-4.49-.8,4.5,4.5,0,0,1-1.16-4,7.33,7.33,0,0,1,3.62-3.62c11.22-4.85,22.87-6.08,34.81-2.82,13.83,3.76,23.74,11.72,25.62,26.7,1.09,8.33.73,16.79,1.45,25.19.87,9.7,2.17,19.32,3.55,28.88a41.2,41.2,0,0,0,9.33,20.84c1.67,2,3.84,3.26,5.87,2.1,1.23-.65,1.73-3.33,1.73-5.14.08-3.62-.86-7.24-.65-10.78.87-13.9,2-27.79,3-41.69.73-9.48,1-19-1.16-28.37-3.76-16.36-12.81-28.66-28.8-34.74-17.37-6.59-34.88-4.85-51.68,2-23.23,9.48-41.25,25.54-54.28,47C102.56,141.71,101.26,145.4,99.59,148.87Zm177.83,92.21c3.61,1.16,7.09.14,10.63.65a30.89,30.89,0,0,0,17.52-2.32c14.62-7,27.07-16.64,36.4-30,18.31-26.13,23.81-54.28,12.45-84.68-3.54-9.41-8.83-18-16.93-24.31-3-2.32-6.37-3-10.14-3a28.4,28.4,0,0,0,.37,3.18c6.36,29.6,2.82,57.9-11.22,84.68-8.83,16.79-20.41,31.12-37.85,39.88A24.69,24.69,0,0,0,275.9,227c2.46.87,5,1.73,6.8.94,7.67-3.11,15.41-6.15,22.51-10.21,11.22-6.37,19.18-16.28,25.83-27.21.58-.94,2.1-1.23,3.19-1.81.14,1.23.8,2.75.36,3.62-2.6,4.7-5.21,9.48-8.25,13.9-9.48,13.53-20.7,25-37.13,30.18C285.3,237.75,281.54,239.49,277.42,241.08Zm85.69,142a58.76,58.76,0,0,0-2.17-43.43c-10.64-23.81-29.32-39.22-53.34-48.34A135.42,135.42,0,0,0,256.21,283c-16.72.36-33.44,1.74-50.08,3-30,2.17-58.55-1.95-84.54-18.31-3.18-2-7.23-2.75-11.21-4.27a12.85,12.85,0,0,0,.21,2,7,7,0,0,0,.87,1.59c7.38,11.43,16.72,20.7,29.6,26.05,18.68,7.75,38.07,7.24,57.61,6.08,17.81-1,35.54-2.68,53.34-3,20.41-.29,40.39,3.11,58.63,12.81,29.38,15.7,46.24,39.37,44.87,73.89a11.2,11.2,0,0,0,.65,3C358.47,384.89,360.5,384.09,363.11,383.08ZM323.23,246.87l.43.43c1.16-.29,2.32-.58,3.48-.79,7.23-1.09,14.18-2.75,20.41-7,21.2-14.48,35.17-33.8,39.73-59.28,1.52-8.61,2.53-17.37,0-26.05a5.49,5.49,0,0,1,2.46-6.59c2.75-1.66,5.14-.72,7,1.45a14.08,14.08,0,0,1,2.32,4.34c2.46,7.82,1.44,15.78.58,23.67-2,18.74-9.85,35.17-21.64,49.79-4.78,5.86-10,11.36-15,17,3.48-1.67,7.53-2.82,10.43-5.28a143.57,143.57,0,0,0,17.29-17.23,103.12,103.12,0,0,0,23.6-58.48c1.08-14.33-2.32-27.21-13.25-37.27-11.5-10.57-26.49-12.52-41.39-17q20.94,38.53,6.87,78.45c-9.19,26.13-24.68,47.63-51,59.57.14.22.36.51.5.72,2.9-.79,5.87-1.52,9.7-2.53A24.73,24.73,0,0,1,323.23,246.87ZM420,303.54c2,.36,3,.94,4.13.79,5.79-.65,11.58-1.37,17.37-2.24,15.12-2.39,24.75-12.09,31.7-24.75,5.43-9.85,7.89-20.48,4-31.56-5.5-15.49-24-19.54-34.31-7.16-3.33,4-5.06,9.41-7.16,14.4-4.56,11-10.35,20.92-21.28,26.78-2.17,1.16-4.56,2-6.88,3,4.93,6.44,6.08,7,13.68,5.06,10.14-2.6,18.75-8.1,24-17.08,3.33-5.64,5.07-12.37,7.17-18.67,1-3,2.6-4.85,5.79-4.92,2.82-.07,5.13,2.46,5.42,5.72a6.38,6.38,0,0,1-.14,2.89c-2,5.87-3.62,12-6.37,17.59C449.59,288.41,434.9,295.29,420,303.54ZM128.25,254l.58-.58c-1.08-4.27-2.75-8.46-3.26-12.81-2-17,2.61-31.91,16.29-42.7,15.7-12.45,33.87-13.82,52.76-9.12,4.12,1,8,2.83,12.95,4.64-5.5-8.83-11.07-16.22-20-20.27-10.06-4.56-20.63-5.35-31.41-4.2-14.84,1.52-26.85,8.33-35.46,20.34-13.18,18.46-11.87,38.21.36,56.45C123,248.75,125.79,251.28,128.25,254ZM46.9,195.27c2.54-.73,4-1.16,5.43-1.52,3.11-.73,6.66-.73,9.34-2.32,4.27-2.61,7.74-6.37,11.8-9.34,6.22-4.56,8.39-11.29,10.42-18.23,4.41-15.13,9.62-30,19.68-42.56,2-2.46,3.48-5.36,5.43-8.4-11.58-1.73-19.47,3.77-26.42,10.57-16.35,16.07-25.47,36.33-32.2,57.83C49.07,185.71,48.13,190.27,46.9,195.27ZM226,28.59c9.7,0,19.18-.8,28.44.14,28.59,3,49.36,18,62.68,43.21,2.17,4.13,4.27,7.53,9.12,8.4,4.05-16.22-6.52-44.66-29.1-57.4C270.4,7.89,238.26,16.21,226,28.59Zm36.76,318.88c-4.34-.44-8.83-.94-13.31-1.23-14.62-.8-28.52,3-42.34,7.31-16.5,5.14-32.93,10.28-49.58,14.83a146.69,146.69,0,0,1-38.07,5.22c-13.82.07-26.78-4.49-40.24-8.47a36.32,36.32,0,0,0,13.75,9.77c18.75,8.32,38.51,8.9,58.48,6.73,19-2,36.55-8.54,53.85-16.21,10.2-4.49,20.34-9.34,30.9-12.74C244.63,350,253.82,349.13,262.72,347.47Zm-36.4,23.38c-.15-.51-.22-1-.36-1.52-1.23-.08-2.75-.66-3.77-.22-5.71,2.46-11.21,5.28-16.86,7.81-25.55,11.51-51.82,19.4-80.33,16.51-9.85-1-20-1.45-28.3-8a13.82,13.82,0,0,0-4.49-2.17c-.8-.29-1.88.22-2.82.44.14.94,0,2.24.58,2.75,2.75,2.31,5.42,4.85,8.54,6.58,19.1,11.15,40,13.83,61.51,11.15,18.32-2.24,34.89-9.34,49.8-20C215.46,380,220.82,375.26,226.32,370.85Zm16.21-.44c-38.28,38.94-82.43,56.38-137.44,37.85,2.17,2.1,3.77,3.69,5.36,5.21a4,4,0,0,0,1.16.87c18.16,9.77,37.56,12.67,57.82,9.92,12.09-1.67,23.31-6.23,33.8-12.31,10.28-6,20.05-12.81,27.07-22.65C234.71,383.15,238.48,376.64,242.53,370.41ZM302,12.16a15.44,15.44,0,0,0,2,1.45c12.3,6.73,20.33,17.29,26.78,29.38,3,5.65,3.47,5.93,8,1.3,8-8.18,16.86-15,27.79-18.74.14-.07.14-.44.14-.65C352,14,328.22,11.29,302,12.16Zm-87.28,260a4.36,4.36,0,0,0,.14-.94,17.66,17.66,0,0,0-2.75-1.6c-10.35-4-19-10.56-26.63-18.52-3.26-3.33-6.37-6.88-9.77-10.14a7.64,7.64,0,0,0-9.56-.94c-3,2-4,5.94-2.46,9.63a16.2,16.2,0,0,0,2,3.83c7.24,9.49,16.65,15.35,28,18.82C201.06,274.66,207.65,269.67,214.67,272.13Zm30.18,118.18c-.36-.21-.65-.43-1-.65-18.74,25.62-44.8,39.52-75.05,46.76a49.1,49.1,0,0,0,8.61-.29c25.84-2.9,47-14.26,62.39-35.39C242,397.7,243.11,393.86,244.85,390.31ZM157,355.72c-25.25.58-50.66,4-75.55-3.84C106,365.85,131.29,363.25,157,355.72Zm319.18-33.94c.07.21.21.43.28.65a8.06,8.06,0,0,0,2.32-.29c9.19-3.62,18.46-7.17,27.5-11.15,2.46-1.08,4.2-3.69,6.23-5.57-.29-.36-.51-.72-.8-1.09a33.51,33.51,0,0,0-19.83,6.73c-3.84,2.83-7.74,5.5-11.65,8.18C479,320.18,477.53,320.91,476.16,321.78ZM412.32,119.2c1.3,1.38,1.88,2.1,2.53,2.75a33.85,33.85,0,0,1,11.22,20.34c.15,1.16,1.38,2.1,2.1,3.18.65-1.08,1.81-2.17,1.88-3.33C431.28,131.87,423.83,122,412.32,119.2Z" transform="translate(-27.58)"/><path d="M236.67,56c19.68,1.37,34.88,9.11,46.46,23.81a88.48,88.48,0,0,1,13.39,24.53c1.16,3.19-.07,7.09-2.82,8-3.4,1.09-5-1.37-6.37-3.83-3.91-7.24-6.95-15.13-11.8-21.64C266.05,74,253.24,66.58,237,66.29a26.66,26.66,0,0,0-5.28.8c-3.12.65-6-.65-6.52-3.26a5.14,5.14,0,0,1,3.76-6.15C231.82,56.81,234.79,56.38,236.67,56Z" transform="translate(-27.58)"/><path d="M470.37,97.71c2.09,1.51,4.12,2.38,5.21,3.9,7.38,10.64,17.29,17.73,29.24,22.51,8.46,3.4,15.56,8.9,22.21,15.06a12.41,12.41,0,0,1,2.75,3.69c1.31,2.6.51,5-1.8,6.66a4.45,4.45,0,0,1-6.23-.8c-7.6-8.54-17.44-13.32-27.65-17.66-11.5-4.85-20.33-13.1-27.35-23.23-1.09-1.59-1.23-4.34-.73-6.3C466.38,100.17,468.56,99.22,470.37,97.71Z" transform="translate(-27.58)"/><path d="M429.55,55.29A62.29,62.29,0,0,1,459.8,68.47a5.29,5.29,0,0,1,.58,7.45c-1.74,2.1-4.85,1.88-7.82.29-6.3-3.4-12.66-6.66-19.11-9.7-1.88-.87-4.19-.94-6.29-1.37-3-.58-5.29-2-5.14-5.36C422.16,57.18,425.06,55.29,429.55,55.29Z" transform="translate(-27.58)"/></svg>