<?xml version="1.0" encoding="utf-8"?>
<!-- Generator: Adobe Illustrator 24.1.2, SVG Export Plug-In . SVG Version: 6.00 Build 0)  -->
<svg version="1.1" id="Layer_1" xmlns="http://www.w3.org/2000/svg" xmlns:xlink="http://www.w3.org/1999/xlink" x="0px" y="0px"
	 viewBox="0 0 2605.5 486.9" style="enable-background:new 0 0 2605.5 486.9;" xml:space="preserve">
<style type="text/css">
	.st0{display:none;fill:#2A3F7F;}
	.st1{fill:#2B2B2B;}
	.st2{fill:#2A2A2A;}
	.st3{fill:#29488E;}
	.st4{fill:#2159AA;}
</style>
<path class="st0" d="M789.6,102.6c83.8,0,148,61.4,148,142.3c0,80.3-64.2,141.3-148.1,141.3c-83.8,0-147.8-61-147.8-141.3
	C641.6,163.9,705.8,102.6,789.6,102.6z M789.6,317.8c42.8,0,75.6-31.9,75.6-73.4c0-41.6-32.8-73.7-75.6-73.7S714,202.7,714,244.4
	C714,285.8,746.8,317.8,789.6,317.8z M1426.5,162.8h43.5v216.4h-43.5V162.8z M1388.9,162.3v221h-2l-128.5-125v121.3h-43.5V158.8h2.2
	l128.2,124.7V162.3H1388.9z M1177.2,157.5v221.8h-43.5V285l-62.3,90.6h-0.3l-62.4-90.6v94.3h-43.5V157.5h2.4l103.7,143l103.5-143
	H1177.2z M1861.6,269c0,2.9-0.4,5.8-1,8.6c-0.5,2.5-1.3,4.9-2.3,7.3c-1.6,4.2-4.6,8.8-9.6,14.4c-5.2,5.7-10.9,11.1-17,15.9
	c-6.5,5.3-13.9,10.9-22,16.5s-16.4,11.1-25,16.2l-0.2,0.1c-8.8,5.1-19.3,10.6-31,16.4s-24,11.7-36.6,17.7
	c-12.9,6.1-26.1,12-39.4,17.6s-25.8,10.6-37.3,15l-0.3,0.1c-7.9,2.7-16.6,5.6-25.9,8.6c-9.5,3-19,5.9-28.1,8.4s-17.5,4.7-25.1,6.4
	c-6,1.5-12.1,2.5-18.3,3.2c-2.7,0.3-5.5,0.7-8.5,1l-14.8,1.5l3.4-13.8c1.2-4.8,1.2-9.8-0.1-14.5c-1.8-6.2-4-12.4-6.5-18.4l-4.6-11.1
	l15.3-3.2c4.9-1,11.8-2.5,20.7-4.5c8.7-1.9,18-4.1,27.7-6.5c9.3-2.3,18.5-4.6,27.5-7c8.8-2.3,17-4.6,24.4-6.7s13.6-4.1,18.6-6
	l0.3-0.1l0.3-0.1c7.4-2.3,16.3-5.3,26.3-9.1c10.2-3.9,20.9-8,31.7-12.5c11.1-4.6,22.2-9.2,32.8-13.8c10.8-4.7,21.1-9.2,30.5-13.5
	s17.6-8.2,24.4-11.8c8.3-4.4,12.3-6.8,14.2-8l11.9-7.6c2.4-2.2,4.9-4.1,7.6-5.8c1.4-0.9,2.4-1.6,3.3-2.3c-2.3-1.3-4.6-2.5-7-3.6
	c-5.3-2.4-10.8-4.4-16.4-6.1c-6.2-1.9-12.9-3.7-19.8-5.4c-6.6-1.6-13.3-2.9-19.9-3.8c-4.7-0.3-10.5-0.6-17.3-1
	c-7.1-0.3-14.7-0.5-22.4-0.5s-15.7,0.2-23.7,0.5c-7.8,0.3-14.7,0.8-20.4,1.4h-0.3c-10.6,0.9-14,1.5-15,1.8c-0.5,0.1-1,0.3-1.5,0.5
	l-0.2,0.1c-0.6,0.8-2.4,3.4-7.2,11.5c-5,8.5-10.8,18.2-17.7,29.5c-10.7,17.5-18,29.4-22.9,37.5c-5.2,8.6-9.1,14.8-11.5,18.5
	c-2.7,4-6.3,9.5-12.8,9.5h-1.2l-1.3-0.3c-2.5-0.7-4.9-2-6.7-3.9c-3.1-3.1-4.9-7.7-5.4-14.3l-0.1-1.6l0.4-1.6c0.3-1.3,1-3.6,3.9-11
	c2-5.3,4.6-11.5,7.7-18.5s6.5-14.6,10.2-22.4s7.2-15.2,10.6-21.9l2-4.4c-1.4-0.9-2.8-2-4.1-3.1c-3.3-3.1-6.1-6.7-8.4-10.6
	c-2.2-3.7-3.8-7.6-5-11.6c-1.7-6.1-1.1-11.3,1.9-15.2l0.4-0.6l0.5-0.5c3.5-3.5,8.6-5.8,16-7.2c8.6-2.2,15.4-4.1,20.1-5.6
	s8.1-2.6,10.3-3.5c0.4-0.2,0.9-0.4,1.3-0.6c1-1.3,2.2-3,3.3-4.6c6-10.7,11.7-20.3,16.8-28.6c3.9-6.4,7.7-11.9,11.2-16.7
	c-3.6,0.2-7.8,0.4-12.6,0.7c-9.8,0.7-20.3,1.5-31.3,2.5s-22.8,2.1-34.7,3.5c-8.7,1-17.2,2-25.1,3l-16.4,2.1l5.7-15.5
	c0.7-1.9,1.3-3.6,1.7-5.2c0.3-1.1,0.6-2.2,0.8-3.3l1.4-7.3l12.1-1.3c13.2-1.3,25.6-2.6,36.7-3.8c10.9-1.1,20.1-2.1,27.5-2.8h0.2
	c9.5-0.7,21.3-1.2,35.2-1.5c9.3-0.2,18.7-0.3,28.1-0.3c4.6,0,9.4,0,14,0.1c14.1,0.2,27.3,0.4,39.2,0.8c12.4,0.4,21.3,1.1,27.3,2.1
	c17.4,2.5,29.2,5.2,36,8.3c12.8,5.8,14.7,15.1,14.7,20.2c0,3.9-0.8,7.9-2.2,11.5c-1.8,4.3-4.5,8.1-8,11.1c-3.9,3.5-8.1,6.7-12.5,9.4
	c-6.1,3.8-12.5,7.2-19.1,10.1c-8.9,4.8-20.1,10.1-33.4,15.8c-5.3,2.3-10.8,4.7-16.4,7.1c14.5,0.7,29,2.3,43.3,4.9
	c17.6,3.4,33.2,8.5,46.4,15.2c9,4.3,15.2,8.6,19,13C1859.3,255.6,1861.7,262.2,1861.6,269z M1790.5,152.5l-3.6-0.4
	c-14.9-1.6-33.3-2.8-54.8-3.5l-9.4-0.2c0.4,1.9,0.5,3.8,0.5,5.8c0,1.9-0.1,3.8-0.3,5.7c-0.4,2.3-1,4.5-1.9,6.6
	c-1,2.5-2.3,4.9-3.6,7.3c-1.1,1.9-2.5,4.3-4.3,7.2l1.8-0.6c10.7-3.3,22.2-7.2,34.1-11.6s23-8.8,33-12.8
	C1785,154.8,1787.8,153.6,1790.5,152.5z M1824.6,269c0,2.2-0.3,4.4-0.8,6.5c-0.4,1.9-1,3.8-1.8,5.5c-1,3-3.6,6.9-7.8,11.6
	c-4.9,5.3-10.2,10.3-15.9,14.8c-6.4,5.2-13.5,10.6-21.4,16.1c-7.9,5.5-16,10.8-24.4,15.9c-8.7,5-18.9,10.4-30.4,16.1
	s-23.7,11.6-36.5,17.6c-12.8,6-25.8,11.8-39,17.4s-25.6,10.5-37,14.8c-7.7,2.7-16.3,5.5-25.7,8.6c-9.4,3-18.6,5.8-27.7,8.3
	c-9.1,2.5-17.3,4.6-24.7,6.3c-5.6,1.4-11.3,2.4-17.1,3c-2.7,0.3-5.5,0.7-8.6,1l-0.6,0.1c1.6-6.4,1.5-13.2-0.2-19.6
	c-1.9-6.6-4.3-13.1-6.9-19.5l3.5-0.7c4.9-1,11.8-2.5,20.9-4.5c9.1-2,18.4-4.2,27.9-6.5c9.6-2.4,18.8-4.7,27.7-7s17.1-4.6,24.7-6.8
	c7.5-2.2,14-4.3,19.4-6.3c7.7-2.4,16.7-5.5,26.9-9.3s20.9-8,32-12.6c11.1-4.5,22.1-9.1,33-13.8c10.9-4.7,21.2-9.2,30.7-13.6
	c9.6-4.4,17.9-8.4,24.9-12.1c7-3.7,12.1-6.5,15.1-8.6l12.6-8c2.1-2,4.3-3.8,6.8-5.3c2.4-1.5,4.7-3.3,6.8-5.3l6-6l-5.5-5
	c-3.8-2.8-8-5.1-12.3-7c-5.7-2.5-11.6-4.7-17.6-6.6c-6.5-2-13.3-3.8-20.4-5.5c-7-1.7-14.1-3-21.1-4c-4.7-0.3-10.7-0.7-17.9-1
	s-14.8-0.5-22.9-0.5c-8,0-16.1,0.2-24.2,0.5c-8.1,0.3-15.1,0.8-21.1,1.5c-8.4,0.7-13.9,1.3-16.6,2c-2.2,0.4-4.3,1.5-6,3
	c-1,0.7-4,5.3-9.1,13.8c-5,8.6-10.9,18.4-17.6,29.4c-10.1,16.4-17.7,28.9-22.9,37.5c-5.2,8.6-9,14.6-11.4,18c-2.3,3.5-3.9,5.2-4.5,5
	c-0.8-0.2-1.5-0.7-2-1.3c-1.3-1.4-2.2-4-2.5-8c0.3-1.3,1.5-4.6,3.5-9.8s4.5-11.3,7.6-18.1c3-6.9,6.4-14.3,10.1-22.1
	c3.7-7.9,7.2-15.2,10.6-21.9l7-15.6h-4c-2.4,0-4.8-1.2-7.3-3.5c-2.6-2.4-4.8-5.2-6.5-8.3c-1.7-2.9-3.1-6-4-9.3
	c-0.8-3-0.8-5.2,0.3-6.6c2-2,5.7-3.5,11.1-4.5c9-2.3,16-4.3,20.9-5.8c4.9-1.5,8.6-2.8,11.1-3.8c2-0.7,3.9-1.9,5.3-3.5
	c1-1.3,2.3-3.2,4-5.5c6-10.7,11.7-20.3,16.9-28.7c4.3-7.2,9.1-14.1,14.3-20.6l9.6-11.6H1659c-5,0-12.3,0.3-21.9,1
	c-9.6,0.7-20,1.5-31.4,2.5c-11.4,1-23.1,2.2-35,3.5c-8.9,1-17.3,2-25.2,3c0.7-1.9,1.4-3.9,2-5.9c0.3-1.2,0.7-2.6,1-4.2l4.7-0.5
	c13.3-1.3,25.5-2.6,36.7-3.8s20.4-2.1,27.4-2.8c9.4-0.7,21-1.2,34.7-1.5s27.7-0.4,41.8-0.3c14.1,0.2,27.1,0.4,39,0.8
	c11.9,0.3,20.5,1,25.9,2c16.4,2.4,27.6,4.9,33.5,7.6c5.9,2.7,8.8,6.4,8.8,11.1c0,2.7-0.5,5.3-1.5,7.8c-1.3,2.9-3.2,5.5-5.5,7.6
	c-3.4,3.1-7.1,5.9-11.1,8.3c-5.8,3.6-11.9,6.8-18.1,9.6c-8.7,4.7-19.7,9.9-33,15.6c-13.3,5.7-27.4,11.7-42.5,18.1l-17.6,7.6h30.2
	c22.5,0.3,42.1,2.1,58.9,5.3c16.8,3.2,31.4,8,43.8,14.3c7.7,3.7,13,7.2,15.8,10.6C1823.2,260.3,1824.7,264.6,1824.6,269z
	 M1783.1,154.5c6.2-3.2,8.8-5.1,7.8-5.8c-4.7-2.7-14.7-4.8-29.9-6.5c-15.3-1.7-33.8-2.9-55.6-3.5l-25.7-0.5l3.5,4.5
	c0.8,1.6,1.4,3.3,2,5c0.7,2.1,1,4.3,1,6.6c0,1.4-0.1,2.9-0.3,4.3c-0.3,1.5-0.7,2.9-1.3,4.3c-0.9,2.1-1.9,4.1-3,6
	c-1.3,2.3-3.2,5.4-5.5,9.1c-7,10.7-11,16.9-11.8,18.6s-0.3,2.3,1.8,2c0.7-0.7,3.3-1.8,8-3.3s10.2-3.3,16.6-5.3
	c11.1-3.3,22.6-7.3,34.7-11.8c12.1-4.6,23.1-8.8,33.2-12.8C1768.7,161.3,1776.9,157.7,1783.1,154.5L1783.1,154.5z M2605.4,249.3
	c0.1,7.6-0.7,15.3-2.3,22.7c-2.3,10.4-4.7,20.6-7.4,30.8c-2.6,10.2-5.9,20.1-9.9,29.8c-2.7,6.6-5.3,12.9-7.8,18.9
	c-2.6,6.2-5.7,12.2-9.3,17.9c-1.6,2.6-3.4,5.2-5.3,7.6c-1.9,2.3-3.8,4.4-5.9,6.5c-6.5,7-14.3,9.1-23.6,6.5
	c-17.4-3.9-29.5-14.1-36.1-30.5c-4.5-11.3-7-23.4-7.6-35.5c-0.5-10.1-0.4-20.1,0.1-30.2c0.6-10.2,1.1-20.2,1.7-30.2
	c0.2-8.6,0.6-17.2,0.9-25.8c0.4-8.6,0.2-17.3-0.6-25.8c0-0.7,0-1.5,0-2.6c0-1.1-0.4-2.2-1.1-3.1c-1.5,0.3-3,1-4.1,2.1
	c-1.1,1.1-2.3,2.2-3.6,3.1c-2.6,2.3-4.9,5.1-6.6,8.1c-1.7,2.9-3.4,6-5,9.1c-8.3,17-15,34.7-20.2,52.9c-5.2,18.2-9,36.7-11.4,55.4
	c-0.6,5.2-1.4,10.4-2.4,15.5s-1.8,10.4-2.4,15.5c0,1.5,0,3.1-0.2,4.6c-0.2,1.6,0,3.1,0.3,4.6c0.4,6.5-2.6,10-9.2,10.4
	c-6.3,0.5-12.5-1.1-17.9-4.4c-5.3-3.3-9.6-8.1-12.3-13.8c-2.8-5.7-4.9-11.8-6.2-18c-1.3-6.2-2.3-12.4-3.1-18.5
	c-1-6.7-1.9-13.4-2.5-20c0.1-0.4,0.3-0.7,0.4-1.1c6.2-15.7,11.4-31.8,15.6-48.2c0.6-2.2,1-4.4,1.2-6.7c0.1-2.1,0.4-4.3,0.7-6.7
	s-0.9-3.9-3.7-4.6c-2.1-0.5-4.3,0.6-5.1,2.6c-0.7,0.7-1.1,1.6-1.3,2.6c-0.1,0.9-0.4,1.8-0.7,2.6c-2.5,8.8-5.4,17.4-8.7,25.8
	c-0.1-11,0.2-22,0.9-33c0.6-8.9,1.1-17.6,1.5-26.1s0.9-17.1,1.5-26.1c0.3-4.8,1.2-8,2.7-9.6c1.5-1.6,4.7-2.4,9.5-2.4
	c10.9-0.2,21.6,3.6,30.1,10.5c4.3,2.9,6.4,8.2,5.3,13.4c-2.6,14.7-4.2,29.5-4.9,44.4c-0.7,14.8-1.1,29.6-1.2,44.4l0.1,4.1
	c0.1,1.6,0.4,3.2,1.1,4.6c1.6-5.5,3-10.8,4.2-15.8s2.4-10.1,3.7-15.3c2.6-9.3,5.5-18.7,8.6-28c3.1-9.3,6.5-18.5,10.2-27.5
	c2.6-7.1,6.5-13.6,11.6-19.3c8.1-9.7,18.5-13,31.2-9.7c18.9,5.3,31,17.7,36.4,37.2c3.1,11.1,4.7,22.5,4.6,34c-0.6,11-0.9,22-1.1,33
	s-0.6,22-1.1,33c-0.9,12.2-0.5,24.5,1,36.6c0,0.8,0.1,1.6,0.3,2.3c0.2,0.9,0.4,2,0.8,3.3c5.2-4.2,9.7-9.1,13.5-14.6
	c3.6-5.3,6.7-10.8,9.4-16.6c12.4-24.9,22.5-51,30-77.8c0.7-1.8,1.3-3.6,1.7-5.4c0.5-1.9,1.1-3.9,1.7-6c0.9-2,3-3.1,5.1-2.6
	C2604,245.4,2605.4,246.9,2605.4,249.3z M2398.9,245.7c2.8,0.7,4,2.2,3.7,4.6c-0.3,2.4-0.5,4.6-0.7,6.7c-0.2,2.3-0.6,4.5-1.2,6.7
	c-4.2,16.4-9.4,32.5-15.6,48.2c-0.1,0.4-0.3,0.7-0.4,1.1c-0.7-7.8-1.2-15.5-1.4-23.3c-0.1-3.5-0.1-6.9-0.1-10.4
	c3.3-8.4,6.2-17,8.7-25.8c0.4-0.8,0.6-1.7,0.7-2.6c0.1-1,0.6-1.9,1.3-2.6C2394.7,246.4,2396.8,245.3,2398.9,245.7z M2383.2,289.8
	c0.2,7.8,0.7,15.5,1.4,23.3c-6.1,15.2-12.9,30.2-20.4,45.1c-1.6,3.3-3.5,6.5-5.8,9.4c-2.3,2.9-4.8,5.7-7.4,8.4
	c-6.8,6.6-15.2,9.1-25.2,7.5c-10.3-1.6-18.6-5.4-24.9-11.3c-6.3-5.9-11-13.7-14.2-23.3c-2.7-8.3-4.8-16.8-6-25.5c1-3.5,2-7.1,3-10.6
	c4.3-15.5,8.2-31.1,11.8-46.6c1-4.1,1.4-8.2,1.4-12.4c0.7-3.4-0.4-5.3-3.2-5.6c-3.8-0.6-6.2,0.3-7.2,2.7c-0.7,1.7-1.3,3.5-2,5.2
	s-1.3,3.4-2,5.2c-1.3,5.9-2.8,11.8-4.4,17.6c0.1-2.1,0.3-4.2,0.4-6.2c0.2-13.1,0.7-25.9,1.6-38.5s2.3-24.9,4.2-37
	c0.6-5.2,2.1-8.8,4.5-10.9s6.3-2.8,11.9-2.2c3.8,0.6,7.5,1.4,11.1,2.4c3.8,1.1,7.4,2.8,10.6,5c5.6,3.7,7.7,8.7,6.4,14.9
	c-2.6,15.5-4.5,30.9-5.9,46.3c-1.4,15.4-1.8,30.8-1.2,46.2c0.4,9.3,1,18.6,1.6,27.9c0.6,9.2,1.9,18.3,3.7,27.3
	c0.4,1.7,0.6,3.2,0.8,4.4s0.5,2.7,0.8,4.4c1.1,3.4,2.8,3.9,5.2,1.5c1.1-0.8,2.1-1.7,3.1-2.6c1-1,1.9-1.9,2.6-2.6
	c4.6-4.7,8.7-10,12.2-15.6c3.4-5.5,6.6-11.3,9.6-17.2c6.1-11.8,11.8-23.6,17.1-35.6c1.7-3.7,3.2-7.5,4.7-11.2
	C2383.1,282.9,2383.2,286.3,2383.2,289.8z M2329.9,96.9c3.1,2.7,4,6,2.7,9.8c-1.4,3.2-2.4,6.5-3,9.8c-0.7,3.5-1.3,6.9-1.9,10.4
	c-0.6,3.7-1.5,7.3-2.7,10.9c-1.2,3.5-2.6,7-4.3,10.4c-1.7,4.2-4.8,5.7-9.2,4.8c-3.6-0.5-6.9-1.9-9.9-4c-2.8-2-4.5-5.1-5.3-9.2
	c-1.5-5.1-2.6-10.3-3.6-15.4c-0.9-4.9-1.3-10-1-15c0-2.8,0-5.3-0.1-7.5c0-2.3,0.1-4.7,0.4-7c0-3.1,0.4-5.2,1.5-6.2s2.9-1.8,5.6-2.1
	C2311,85.3,2321.2,88.8,2329.9,96.9z M2293.7,248.1c2.8,0.3,3.8,2.2,3.2,5.6c0,4.2-0.4,8.3-1.4,12.4c-3.6,15.5-7.5,31.1-11.8,46.6
	c-1,3.6-2,7.1-3,10.6c-0.4-2.9-0.8-5.9-1.1-9c-0.8-7.2-1.3-14.4-1.6-21.4c-0.2-4.8-0.2-9.6,0.1-14.2c1.6-5.8,3.1-11.7,4.4-17.6
	c0.7-1.7,1.3-3.5,2-5.2s1.3-3.4,2-5.2C2287.5,248.4,2289.9,247.5,2293.7,248.1z M2279.5,314.4c0.3,3.1,0.7,6.1,1.1,9
	c-3.5,12-7.3,24-11.4,36c-1.3,3.5-2.8,6.9-4.3,10.4c-1.5,3.5-3.5,6.8-5.8,9.9c-4.7,5.9-10.6,8.7-17.4,8.5
	c-18.9-0.1-32.8-8.5-41.9-25.3c-4.5-7.7-8-16-10.5-24.6c-2.5-8.6-4.5-17.4-6-26.2c-0.7-2.4-1.1-4.9-1.4-7.5c-0.2-2.4-0.7-4.7-1.4-7
	c-2.7,8-5.3,15.7-8,23.3c-2.7,7.6-5.3,15.2-8,22.8c-3.5,10.5-8.1,20.5-13.6,30.1c-7.7,12.8-18.6,18.1-32.7,15.9
	c-14.1-1.9-25.6-8.3-34.3-19.2c-10.8-14.7-16.6-30.4-17.1-47.3c-0.5-9.1-0.5-18.1-0.2-27c5.8-5,10.8-11,14.6-17.6
	c2.8-5.7,4.5-11.8,4.9-18.1c0-2.8-1.6-4.4-4.7-5.1s-5.5,0.8-7.2,4.2c-1.4,3.1-3.1,6.1-5,8.9c2.6-14.7,7.4-28.9,14.3-42.1
	c1.6-3.4,3.6-6.6,5.8-9.6c2.3-3,4.7-5.9,7.4-8.6c7.1-8,15.2-13.3,24.3-16c9.5-2.7,19.3-3.7,29.1-2.7c5.8,0.6,11.5,1.8,17.1,3.7
	c5.8,2,10.8,5.6,14.6,10.4c1.7-1.4,2.6-2.8,2.8-4.2c0.2-1.4,0.6-2.8,1.2-4.1c2-4.8,5.4-7.8,10.1-8.9c4.8-1.1,9.7-1.2,14.5-0.2
	c4.8,1.1,9.4,2.9,13.6,5.5c3.8,2.7,5.6,6.8,5.3,12.3c-2.9,15.5-5,31-6.4,46.5c-1.3,15.5-1.4,31-0.2,46.5c0.8,10.3,2,20.6,3.5,30.9
	c1.5,10.3,3.9,20.5,7.1,30.4c0.8,4.3,2.7,8.3,5.3,11.8c1.5-0.6,2.9-1.6,3.8-2.9c0.8-1.2,1.6-2.4,2.3-3.4c3.6-5.4,6.8-11.2,9.3-17.1
	c2.5-5.9,4.8-11.8,6.8-17.6c4-11.1,7.9-22.2,11.7-33.5c1.9-5.5,3.6-11.1,5.2-16.8c-0.2,4.6-0.3,9.3-0.1,14.2
	C2278.3,300,2278.8,307.1,2279.5,314.4z M2176.7,264.3c1-5.5,1.2-11.2,0.8-16.8c0-6.2-1.1-12.3-3.3-18c-2.3-5.7-5.3-11-9-15.9
	c-1.7-2.6-4-4.7-6.8-6.1c-2.8-2-5.4-2-7.7,0.1l-4.6,3.2c-4.7,4.1-8.8,9-12,14.3c-3.2,5.3-5.8,11-7.8,16.9
	c-11.6,30.1-15.4,62.6-11.2,94.6c1.1,12.2,4.6,24.1,10.3,35c2.3-0.8,4.4-2.2,6.1-4c1.4-1.6,2.9-3.2,4.6-5c4-4.7,7.5-9.8,10.6-15.1
	c3-5.2,5.9-10.7,8.6-16.6c3.6-8.2,6.8-16.6,9.5-25.2c2.7-8.4,5.3-16.8,7.9-25.1C2174.3,275.2,2175.7,269.8,2176.7,264.3z
	 M2081.6,255.4c3.1,0.7,4.7,2.4,4.7,5.1c-0.4,6.3-2.1,12.5-4.9,18.1c-3.8,6.7-8.8,12.6-14.6,17.6c0.3-7.5,0.9-15,1.9-22.4
	c0.2-1.8,0.5-3.6,0.8-5.4c1.9-2.8,3.6-5.8,5-8.9C2076.1,256.2,2078.5,254.8,2081.6,255.4z M2069.4,268.6c-0.3,1.8-0.6,3.6-0.8,5.4
	c-0.9,7.4-1.5,14.8-1.9,22.4c0,0-0.1,0.1-0.1,0.1c-5.9,4.9-12.4,9-19.5,12.1c-1.6,0.7-3.2,1.1-4.9,1.4c-1.6,0.2-3.3,0.3-4.9,0.3
	c-15.2-0.5-27.2-5.2-36.1-14c-8.6-8.4-14.8-19.1-17.7-30.8c-0.7-3.4-1.4-6.8-1.9-10s-1.2-6.4-1.9-9.5c-1.7,4.9-3.1,9.9-4.2,15
	c-1.1,5.2-2.4,10.4-3.7,15.5c-2.6,12.1-5.3,24.2-8.1,36.2c-2.8,12.1-4.9,24.4-6.5,36.7c-0.7,4.8-1.3,9.8-1.9,14.7
	c-0.6,5-1.2,9.9-1.9,14.7c-0.6,5.5-2.5,9.6-5.8,12.2s-7.4,3.6-12.6,3c-11.4-1.2-19.7-6.8-25-16.7c-3.2-5.4-5.4-11.3-6.4-17.5
	c-4-15.4-7.2-30.8-9.6-46.1c-2.4-15.4-3.4-31.1-2.9-46.7c0.6-10.3,1-20.7,1.4-31c0.4-10.3,1.7-20.5,4-30.5c1.6-7.2,3.9-12,6.8-14.3
	c2.9-2.3,8.1-3.3,15.7-3c9.7,0.4,19.1,3.1,27.5,7.9c5.2,3.4,7.7,8.5,7.4,15.4c-1.3,9.3-2.3,18.7-3,28.2s-1.7,19-3,28.7
	c-0.6,7.2-0.7,14.5-0.2,21.7c0.4,7.4,0.3,14.8-0.2,22.2c1.7-4.1,3-8.4,4-12.7c1-4.3,1.8-8.7,2.4-13.2c2.6-11.1,5.1-21.9,7.6-32.6
	c2.5-10.9,5.5-21.6,9.1-32.1c1.3-3.8,2.8-7.5,4.5-11.2s3.3-7.3,5-11.2c4-6.9,9.9-9.9,17.4-9c13.1,1.2,23,8.1,29.7,20.8
	c2.8,6,4.8,12.3,5.9,18.8c1.1,6.6,1.6,13.2,1.3,19.9c0.1,4.5-0.1,8.9-0.3,13.2c-0.3,4.3-0.6,8.5-0.9,12.6c0,2.8,0.1,5.6,0.4,8.5
	c0.2,2.9,0.8,5.8,1.9,8.5c1.1,2.8,2.8,3.4,5.2,2c1.7-1.1,3.5-2,5.4-2.9c2-1,3.8-2.3,5.4-4c4.4-4.2,8.7-8.4,12.7-12.8
	C2066.2,273,2067.9,270.9,2069.4,268.6z"/>
<g id="XMLID_1_">
	<g>
		<path class="st1" d="M235.1,347.5c-4.3-0.4-8.8-0.9-13.3-1.2c-14.6-0.8-28.5,3-42.3,7.3c-16.5,5.1-32.9,10.3-49.6,14.8
			c-12.4,3.4-25.2,5.2-38.1,5.2c-13.8,0.1-26.8-4.5-40.2-8.5c3.8,4.3,8.5,7.6,13.8,9.8c18.8,8.3,38.5,8.9,58.5,6.7
			c19-2,36.5-8.5,53.8-16.2c10.2-4.5,20.3-9.3,30.9-12.7C217.1,350,226.2,349.1,235.1,347.5z M295.6,246.9l0.4,0.4
			c1.2-0.3,2.3-0.6,3.5-0.8c7.2-1.1,14.2-2.8,20.4-7c21.2-14.5,35.2-33.8,39.7-59.3c1.5-8.6,2.5-17.4,0-26.1
			c-0.9-2.5,0.2-5.3,2.5-6.6c2.8-1.7,5.1-0.7,7,1.4c1,1.3,1.8,2.8,2.3,4.3c2.5,7.8,1.4,15.8,0.6,23.7c-2,18.7-9.9,35.2-21.6,49.8
			c-4.8,5.9-10,11.4-15,17c3.5-1.7,7.5-2.8,10.4-5.3c6.2-5.2,12-11,17.3-17.2c13.8-16.6,22-37,23.6-58.5
			c1.1-14.3-2.3-27.2-13.3-37.3c-11.5-10.6-26.5-12.5-41.4-17c14,25.7,16.3,51.8,6.9,78.4c-9.2,26.1-24.7,47.6-51,59.6
			c0.1,0.2,0.4,0.5,0.5,0.7c2.9-0.8,5.9-1.5,9.7-2.5C297.4,245.5,296.5,246.2,295.6,246.9z M217.3,390.3c-0.3-0.2-0.6-0.4-0.9-0.6
			c-18.7,25.6-44.8,39.5-75.1,46.8c2.9,0.2,5.8,0.1,8.6-0.3c25.8-2.9,47-14.3,62.4-35.4C214.4,397.7,215.5,393.9,217.3,390.3z
			 M538.5,182.6c4.3,23.2,4.8,46.3-1.2,69.1c-6.7,25.9-20.6,47.4-42.1,63.8c-22.6,17.2-48,24.4-76.1,21.9
			c-6.3-0.6-12.4-2.7-18.6-4.1c-1.1-0.2-2.3-0.5-3.3-0.9c-0.6,12.7-3.7,24.4-10.2,34.9c-10.2,16.4-24.6,27.4-43.4,32.3
			c-21.7,5.6-42,2-61-9.4c-2.8-1.7-4.9-2.1-7.8,0c-8.7,6.4-16.1,14-21.3,23.2c-10.3,18.3-19.7,37.1-29.4,55.7
			c-2.2,4.3-4.1,8.9-6.3,13.3c-1.9,4.1-4.6,5.4-7.7,4c-3.1-1.4-4.8-5.6-3.2-9.3c2.7-6.1,5.4-12.3,8.4-18.3
			c10.9-21.9,21.7-43.9,32.6-65.8c2.4-4.9,4.6-9.8,6.9-14.7c1.1-2.2,1.2-4.1-1.4-5.4c-2.8-1.5-3.2,1.1-4,2.5
			c-7.4,13-14.3,26.2-22.2,38.9c-10.9,17.5-19.9,36-28.6,54.8c-2.2,4.6-4.2,9.4-6.6,14c-2,3.7-4.5,4.5-7.7,3c-2.9-1.5-4-5-2.7-8
			c4.7-10.9,9.6-21.7,14.3-32.6c0.6-1.6,0.9-4.9,0.4-5.1c-2-0.9-4.6-1.6-6.7-1c-7.9,2.1-15.5,5.4-23.4,7c-35,6.9-66.5-0.9-94-24
			c-19.2-16.1-30.9-36.6-36-60.9c-1.4-6.6-1.2-13.7-1.9-20.5c-0.2-1.8-0.9-3.6-2-5c-18-18.2-27.4-40.5-30.8-65.4
			c-2.8-20.9-1.9-42.2,2.9-62.8c3.2-14.8,7.4-29.4,12.6-43.6c10-26.2,25.4-49.3,43.4-70.6c15.8-18.8,33.6-35.6,54.2-49
			c17.3-11.1,35.8-20.2,55.2-26.9c20.4-7.3,41.5-12.3,63-15.1C244.6,1,256.4,0.1,268.1,0c14.9-0.1,29.9,0.5,44.7,2
			c24.3,2.6,47.8,9.3,71,17.1c15.1,5,29.8,10.9,43.6,18.5c31,16.9,57.2,39.2,77.9,68C522,128.5,533.3,154.8,538.5,182.6z M528.1,235
			c2.6-17.5,2-35.4-1.7-52.7c-4.4-21.4-11.7-41.7-24.5-59.6c-1.3-1.6-3.1-2.8-5-3.4c-6-2.1-12.4-3.3-18.1-5.9
			c-10-4.4-17.8-11.7-24.1-20.6c-1.7-2.3-2-5.1,0.5-6.7c1.9-1,4.1-1.4,6.2-1c1.4,0.2,2.6,2,3.6,3.4c5.2,7,12.1,12.5,20.2,15.8
			c1.1,0.4,2.3,0.7,3.5,0.9c0.1-0.3,0.4-0.7,0.5-0.9c-6.1-6.7-11.9-13.8-18.3-20.2c-10.9-11-23.1-20.6-36.4-28.7
			c-15.7-9.5-31.8-18.1-50-21.7c-17.3-3.5-34.1-3-49.7,6.1c-10.7,6.2-17.8,14.9-17.4,28.1c0.4,13.2,7.1,22.7,18.2,29.1
			c5.6,3.2,11.7,6.6,18.8,2.9c-0.2-0.5-0.3-1.1-0.4-1.7c-3.3-9.3-7.2-18.3-10-27.7c-2.5-8.1,1.4-16.6,7.8-20c3.7-2,7.4-1.5,9.1,1.2
			c1.9,2.9,1.1,4.9-3,7.9c-4.1,3-4.6,6.7-1.6,10.5c3.3,4.3,8.1,5.3,13.2,5.4c8.9,0.1,17.8-0.7,26.6,0.1c11,1,20.8,5.9,29,13.3
			c3,2.8,3.3,5.2,1.1,7.9c-1.9,2.3-5.1,2.5-8,0c-9.9-8.5-21.4-11.5-34.1-11.3c-5.1,0.2-10.1,0.6-15.1,0.7c-2.6,0-5.2-0.5-8-0.8
			c0.1,1,0.3,1.9,0.6,2.8c3.8,8.6,9.5,15.3,18.7,18.3c3.6,1.2,7.1,2.2,10.7,3.1c15.9,3.9,22.7,16.2,23.1,30.5c0,0.8,0.2,1.6,0.4,2.4
			c1.1-0.7,1.9-1.8,2.2-3.1c1-6.2,1.9-12.5,3-18.8c0.3-1.7,0.6-3.8,1.7-4.8c1.5-1.1,3.4-1.5,5.2-1.2c2.7,0.6,3.9,2.9,4.1,5.7
			c0.4,7.7-0.9,15.4-3.8,22.6c-1.6,3.2-3.3,6.6-5.2,10.5c1.6-0.4,2.8-0.6,3.9-0.8c7.3-1.3,14.6-3.6,21.9-3.6
			c28.3,0.1,50.5,12,65.7,36c9.3,14.6,13,30.9,12.8,48.1c0,1.8,0.2,3.6,0.4,6.2c0.9-1,1.2-1.2,1.3-1.5
			C527.8,236.8,528,235.9,528.1,235z M508.3,263.2c5.3-12.4,7.5-25.8,6.3-39.2c-1.4-18.4-7.9-34.3-21.4-47.1
			c-12.1-11.5-26.5-17.2-43.1-17.5c-8.6-0.3-17.2,1-25.4,3.8c-11.7,4.1-22.2,9.8-28.3,21.1c-4.3,8.1-7.8,16.6-12,24.8
			c-8.9,17.2-19.5,33.2-36.5,43.7c-1,0.6-1.6,1.8-2.8,3.2c20.7,2.2,33-9.6,44.3-23.6c-2.8,5.4-6,10.5-9.6,15.4
			c-4,5.3-8.7,10.1-13,15.3c-0.6,0.6-0.6,1.9-0.7,2.5c-2,0.5-3.8,0.9-5.6,1.4c0.9,1.3,1.7,2,2.6,2c5.2,0.1,10.6,0.6,15.6-0.1
			c7.1-1,12.2-5.5,15.3-11.8c3-6.1,5.2-12.5,8.3-18.6c8-15.9,24-20.6,38.5-15.2c17.2,6.3,22.9,24.3,20.8,39.7
			c-1.6,11.4-6.9,21.3-13.7,30.3c-5.2,6.9-12.1,12.3-20.1,15.6c-8.6,3.5-17.1,7.7-26.7,7.3c-0.2,0-0.3,0.4-0.7,0.7
			c1.3,2.2,3.6,2.2,5.8,2.2c12,0.6,23.2-2.3,34.2-6.9c16.2-6.7,27.9-18,35.8-33.2c6.3-12,8.8-25.7,7.1-39.2
			c-1.7-14.8-7.7-27.2-19.4-36.6c-11.2-9-23.9-10.9-37.6-7.2c-5.9,1.8-11.2,5.2-15.2,9.9c-1.9,2-4,3.1-6.5,0.9
			c-2.2-2-2.2-4.2-0.6-6.7c3-4.6,7.3-8.3,12.3-10.6c20.2-9.3,39.9-6.2,56,8.3c19.2,17.2,25.5,39.6,20.2,64.8
			c-1.7,8.2-4.8,16.1-7.2,24.1c0.4,0.3,0.8,0.6,1.2,0.8c3-1.5,7.1-2.2,9-4.6C500.4,276.6,505.3,270.3,508.3,263.2z M484.9,305.4
			c-0.3-0.4-0.5-0.7-0.8-1.1c-7.2,0.1-14.1,2.4-19.8,6.7c-3.8,2.8-7.7,5.5-11.6,8.2c-1.2,0.9-2.7,1.7-4.1,2.5h0
			c0.1,0.2,0.2,0.4,0.3,0.6c0.8,0,1.6-0.1,2.3-0.3c9.2-3.6,18.5-7.2,27.5-11.2C481.2,309.9,482.9,307.3,484.9,305.4z M445.6,277.3
			c5.4-9.9,7.9-20.5,4-31.6c-5.5-15.5-24-19.5-34.3-7.2c-3.3,4-5.1,9.4-7.2,14.4c-4.6,11-10.4,20.9-21.3,26.8c-2.2,1.2-4.6,2-6.9,3
			c4.9,6.4,6.1,7,13.7,5.1c10.1-2.6,18.8-8.1,24-17.1c3.3-5.6,5.1-12.4,7.2-18.7c1-3,2.6-4.9,5.8-4.9c2.8-0.1,5.1,2.5,5.4,5.7
			c0.2,1,0.1,1.9-0.1,2.9c-2,5.9-3.6,12-6.4,17.6c-7.5,15-22.2,21.9-37.1,30.1c2,0.4,3,0.9,4.1,0.8c5.8-0.6,11.6-1.4,17.4-2.2
			C429,299.7,438.7,290,445.6,277.3z M402.5,142.1c1.2-10.3-6.2-20.1-17.7-22.9c1.3,1.4,1.9,2.1,2.5,2.8c6,5.2,10,12.4,11.2,20.3
			c0.2,1.2,1.4,2.1,2.1,3.2C401.2,144.4,402.4,143.3,402.5,142.1z M382.7,338.6c0.7-15.1-4.6-28.4-13.5-40.2
			c-14.3-18.9-33.5-29.8-56.5-33.9c-14.5-2.5-29.1-3.9-43.6-5.9c-31.7-4.4-58.7-17-79.5-42.4c-11.9-14.6-28.2-21.1-47.3-18.4
			c-15,2.1-26.1,9.8-31.4,24.3c-4.6,12.7-0.7,24.2,6.7,34.7c3.3,4.7,6.7,9.7,13,11c-0.5-2.2-1.1-4.4-1.9-6.6c-1-2.4-2.6-4.6-3.7-7
			c-4.1-9,0.6-21.5,9.5-25.6c8.3-3.8,18.2-0.9,25.4,7c4.4,4.8,8.8,9.6,13.8,13.8c13.1,11,28.9,16,45.4,18.8
			c16.4,2.7,32.9,4.6,49.1,8.1c27.4,5.9,50.4,19.1,66.9,42.5c11.5,16.3,17,34.3,15.7,54.3c-0.1,1.9-2.6,4.6,0.5,5.5
			c1.2,0.3,3.8-2.4,4.7-4.3c4.8-9.7,5.9-20.1,4.6-30.6c-0.6-4.6-1.7-9.2-2.5-13.8c-0.4-2.8,0.4-5.1,3.5-5.9s5.2,0.2,6.7,2.8
			c0.8,1.2,1.4,2.6,1.7,4c1.2,6.9,2.4,13.7,3,20.6c0.4,4.5,0.1,9.1,0.1,14c0.5-0.5,1.1-0.9,1.3-1.3
			C379.2,356.3,382.3,347.9,382.7,338.6z M339,25.5c0.1-0.1,0.1-0.4,0.1-0.6c-14.7-10.9-38.5-13.6-64.7-12.7c0.6,0.5,1.3,1,2,1.4
			c12.3,6.7,20.3,17.3,26.8,29.4c3,5.6,3.5,5.9,8,1.3C319.2,36.1,328.1,29.3,339,25.5z M335.5,383.1c4.9-14.2,4.1-29.8-2.2-43.4
			c-10.6-23.8-29.3-39.2-53.3-48.3c-16.4-6.1-33.9-8.9-51.4-8.3c-16.7,0.4-33.4,1.7-50.1,3c-30,2.2-58.6-2-84.5-18.3
			c-3.2-2-7.2-2.8-11.2-4.3c0,0.7,0.1,1.3,0.2,2c0.2,0.6,0.5,1.1,0.9,1.6c7.4,11.4,16.7,20.7,29.6,26c18.7,7.8,38.1,7.2,57.6,6.1
			c17.8-1,35.5-2.7,53.3-3c20.4-0.3,40.4,3.1,58.6,12.8c29.4,15.7,46.2,39.4,44.9,73.9c0.1,1,0.3,2,0.6,3
			C330.9,384.9,332.9,384.1,335.5,383.1z M314.4,209.4c18.3-26.1,23.8-54.3,12.4-84.7c-3.5-9.4-8.8-18-16.9-24.3
			c-3-2.3-6.4-3-10.1-3c0.1,1.1,0.2,2.1,0.4,3.2c6.4,29.6,2.8,57.9-11.2,84.7c-8.8,16.8-20.4,31.1-37.9,39.9c-1,0.6-1.9,1.2-2.8,1.8
			c2.5,0.9,5,1.7,6.8,0.9c7.7-3.1,15.4-6.2,22.5-10.2c11.2-6.4,19.2-16.3,25.8-27.2c0.6-0.9,2.1-1.2,3.2-1.8
			c0.1,1.2,0.8,2.8,0.4,3.6c-2.6,4.7-5.2,9.5-8.3,13.9c-9.5,13.5-20.7,25-37.1,30.2c-3.9,1.3-7.7,3.1-11.8,4.7
			c3.6,1.2,7.1,0.1,10.6,0.6c5.9,0.9,12,0.1,17.5-2.3C292.6,232.4,305.1,222.8,314.4,209.4z M316.8,381.1
			c0.6-17.9-4.9-33.6-17.2-46.8c-15.9-16.9-36.5-24-58.8-27.1c-18.5-2.6-37-0.6-55.5,1c-18.5,1.6-37,3.2-55.5,0.4
			c-13.6-2.1-26.5-6.5-37.5-15c-15.7-12.2-24.5-29-30.8-47.4c-3.3-10.1-5.9-20.3-9.7-30.3c-4.7-12.4-14.4-12.6-23.4-6.1
			c-7.9,5.7-12.1,13.9-14.2,23.1c-3.3,14.5-3.3,29.6-0.1,44.1c4.5,20.8,13.5,39,30.5,52.5c2.5,1.8,5.2,3.5,8,4.9
			c0.2-0.4,0.4-0.6,0.7-1c-2.8-2.9-6.2-5.5-8.3-8.8c-4.1-6.4-7.7-13-10.9-19.8c-8.4-18.6-10.4-38.1-6.8-58.2c0.8-4.3,1.8-8.7,3-13
			c0.8-2.7,2.7-4.3,5.8-3.5c2.8,0.8,4.5,3.5,4,6.4c-0.1,0.6-0.1,1.2-0.3,1.8c-4.1,17.4-4.5,34.9,0.4,52.2
			C43.4,301,48,311,55.4,319.3c14.8,16.7,34.3,23.3,55.8,24.9c13.8,1,27.4-0.4,41-2.4l53-7.6c-3.3-0.5-6.6-1.4-9.9-1.4
			c-7.1-0.2-14.3,0-21.3-0.1c-13.7-0.2-27,3.5-41,1.9c-15.7-1.8-31.3-3-45.8-10c-9.9-4.7-18.4-12-24.7-21.1c-2-3-1.4-6,1.3-7.9
			c2.3-1.7,5-1,7,2.1c7.2,10.9,17.7,17.2,29.6,21.3c19.2,6.7,39.1,5.9,59,4.8c16.1-0.9,32.1-2.5,48.3-0.5
			c28.1,3.4,51.1,16.4,70.1,37.1c6.1,6.2,8.8,15.6,18.1,18.5c0-9.1-2.9-18.1-8.2-25.6c-5.3-7.4-11.2-14.7-16.9-22.3
			c1.4,0.6,2.8,1.3,4.1,2.2c17.3,12.9,30,29,33.8,50.9c0.3,1.5,0.4,2.5,2.6,2.4C314.5,386.3,316.6,384.8,316.8,381.1z M298.7,80.3
			c4-16.2-6.5-44.7-29.1-57.4c-26.7-15.1-58.9-6.7-71.1,5.6c9.7,0,19.2-0.8,28.4,0.1c28.6,3,49.4,18,62.7,43.2
			C291.7,76.1,293.8,79.5,298.7,80.3z M266.5,198.3c17.1-21.6,25.8-45.9,24.8-73.7c-0.6-19-4.8-36.8-14.8-53
			c-8.2-13.6-19.5-23.5-34.8-28.7c-14.2-4.8-28.4-4.8-43.1-2.7c-18,2.7-35,9.8-49.6,20.6c-5.3,3.9-6.6,4.2-8.9,1.4
			c-2.5-3-1.8-5.3,2.8-9.3c7.2-6.3,15.6-10.6,24.4-14.3c1-0.5,1.9-1,2.8-1.7c-7.2-1.5-14.7-0.8-21.6,2c-19.6,8-37.4,19.9-52.2,35.1
			c-5.3,5.4-9.3,11.7-10.2,19.8c-0.4,3.4,0.9,6.2,3.6,7c2.2,0.7,5.5-0.1,7.7-1.3c3.9-2.2,7.1-5.4,10.9-7.8
			c20.8-12.8,42.9-19.1,67.6-14.6c27.4,5,43.8,27.4,47,51.7c2,15.2-0.4,30.2-1.7,45.3c-0.2,5.4-2.7,11.2,0.8,16.9
			c1.2-1.6,2.5-2.8,3.1-4.4c2.9-8,5.9-15.9,8.2-24.1c4-13.5,4.5-27.4,3-41.5c-0.3-2.8,0.6-5.2,3.7-6.2c3.7-1.2,7,1.6,7.4,6.8
			c0.8,12.5,0.8,25-2.2,37.3c-4,16.7-9.4,32.9-17.6,48.1c-0.4,1.1-0.4,2.3-0.1,3.4c0.5,1.1,1.1,2,1.9,2.9c4.1,0.9,6.9-1,8.5-4.8
			c0.1-0.3,0.6-0.8,0.7-0.7c3.5,0.9,4.6-2,6-4c6.5-9.4,11.6-19.6,15.3-30.4c4.8-13.6,5.6-27.7,5.4-42c-0.1-1.9,0.5-3.7,1.5-5.2
			c1.3-1.1,3-1.5,4.7-1.2c3.1,0.7,4,3.5,4.2,6.4c1.6,26.1-5.1,49.9-18.7,71.9c-0.7,1.3-1.2,2.6-1.6,3.9c0.4,0.3,0.9,0.6,1.3,0.9
			C260.1,204.9,263.6,201.9,266.5,198.3z M214.9,370.5c0,0,0.1-0.1,0.1-0.1h0C214.9,370.5,214.9,370.5,214.9,370.5
			c-38.3,38.9-82.4,56.3-137.3,37.7c2.2,2.1,3.8,3.7,5.4,5.2c0.3,0.4,0.7,0.6,1.2,0.9c18.2,9.8,37.6,12.7,57.8,9.9
			c12.1-1.7,23.3-6.2,33.8-12.3c10.3-6,20.1-12.8,27.1-22.7C207.1,383.2,210.9,376.7,214.9,370.5z M212.8,152.8
			c0.7-9.5,1-19-1.2-28.4c-3.8-16.4-12.8-28.7-28.8-34.7c-17.4-6.6-34.9-4.8-51.7,2c-23.2,9.5-41.3,25.5-54.3,47
			c-1.9,3.1-3.2,6.8-4.9,10.2c0.5,0.4,1,0.8,1.5,1.2c1.7-1.2,3.5-2.2,5.2-3.4c23-14.9,47.8-19.8,74.5-14.1c4.2,1.1,8.2,2.6,12,4.6
			c2.1,0.8,3.2,3.1,2.4,5.2c-0.1,0.2-0.1,0.3-0.2,0.5c-1.2,2.5-3.2,3.5-5.9,2.3c-1-0.4-2-0.7-3.1-0.9c-6.5-1.4-13-3.5-19.6-4
			c-13.6-1.3-27.3,1.1-39.7,6.7c-18.8,8.6-34.6,20.3-37.6,42.8c-0.8,5.9-3.3,12.2,1.6,17.8c0.3,0.4,0.1,1.2,0.2,1.7
			c1.7,6.7,3.5,13.4,5.4,20c0.3,1,1.5,1.7,2.3,2.6l1.5-0.4c0.1-3.2,0.5-6.4,0.3-9.6c-1.5-23.8,12.5-49.4,36-58.2
			c22.5-8.5,44.4-7.2,65.4,5c1.4,0.9,3,1.5,4.4,2.2v-16.5c0-5.6-0.1-11.1-0.1-16.6c0-13.1-7.8-19.9-19-22.2
			c-9.9-1.9-20-1.1-29.5,2.4c-1.5,0.4-3.2,0.1-4.5-0.8c-1-1.1-1.4-2.6-1.2-4c0.7-1.6,2-2.9,3.6-3.6c11.2-4.9,22.9-6.1,34.8-2.8
			c13.8,3.8,23.7,11.7,25.6,26.7c1.1,8.3,0.7,16.8,1.4,25.2c0.9,9.7,2.2,19.3,3.6,28.9c1.1,7.7,4.3,14.9,9.3,20.8
			c1.7,2,3.8,3.3,5.9,2.1c1.2-0.6,1.7-3.3,1.7-5.1c0.1-3.6-0.9-7.2-0.6-10.8C210.7,180.6,211.8,166.7,212.8,152.8z M198.7,370.9
			L198.7,370.9c-0.1-0.5-0.2-1-0.3-1.5c-1.2-0.1-2.8-0.7-3.8-0.2c-5.7,2.5-11.2,5.3-16.9,7.8c-25.5,11.5-51.8,19.4-80.3,16.5
			c-9.8-1-20-1.4-28.3-8c-1.4-1-2.9-1.7-4.5-2.2c-0.8-0.3-1.9,0.2-2.8,0.4c0.1,0.9,0,2.2,0.6,2.8c2.8,2.3,5.4,4.8,8.5,6.6
			c19.1,11.1,40,13.8,61.5,11.1c18.3-2.2,34.9-9.3,49.8-20C187.9,380,193.2,375.3,198.7,370.9z M187.1,272.2
			c0.1-0.3,0.1-0.6,0.1-0.9c-0.9-0.6-1.8-1.1-2.8-1.6c-10.4-4-19-10.6-26.6-18.5c-3.3-3.3-6.4-6.9-9.8-10.1
			c-2.6-2.5-6.6-2.9-9.6-0.9c-3,2-4,5.9-2.5,9.6c0.5,1.4,1.2,2.7,2,3.8c7.2,9.5,16.6,15.3,28,18.8
			C173.5,274.7,180.1,269.7,187.1,272.2L187.1,272.2z M167,188.8c4.1,1,8,2.8,13,4.6c-5.5-8.8-11.1-16.2-20-20.3
			c-10.1-4.6-20.6-5.4-31.4-4.2c-14.8,1.5-26.8,8.3-35.5,20.3c-13.2,18.5-11.9,38.2,0.4,56.4c1.9,3,4.7,5.5,7.2,8.3l0.6-0.6
			c-1.1-4.3-2.8-8.5-3.3-12.8c-2-17,2.6-31.9,16.3-42.7C130,185.5,148.1,184.1,167,188.8z M129.4,355.7c-25.3,0.6-50.7,4-75.6-3.8
			C78.4,365.9,103.7,363.3,129.4,355.7z M81.4,112.9c-11.6-1.7-19.5,3.8-26.4,10.6c-16.3,16.1-25.5,36.3-32.2,57.8
			c-1.3,4.4-2.3,9-3.5,14c2.5-0.7,4-1.2,5.4-1.5c3.1-0.7,6.7-0.7,9.3-2.3c4.3-2.6,7.7-6.4,11.8-9.3c6.2-4.6,8.4-11.3,10.4-18.2
			c4.4-15.1,9.6-30,19.7-42.6C78,118.8,79.5,115.9,81.4,112.9z"/>
		<path d="M215,370.4c0,0-0.1,0.1-0.1,0.1C214.9,370.5,214.9,370.5,215,370.4L215,370.4z"/>
	</g>
	<g>
	</g>
</g>
<g id="XMLID_2_">
	<g>
		<path class="st2" d="M268.9,104.3c1.2,3.2-0.1,7.1-2.8,8c-3.4,1.1-5-1.4-6.4-3.8c-3.9-7.2-6.9-15.1-11.8-21.6
			c-9.5-12.9-22.3-20.3-38.5-20.6c-1.8,0.1-3.6,0.4-5.3,0.8c-3.1,0.7-6-0.6-6.5-3.3c-0.6-2.7,1-5.5,3.8-6.2c2.9-0.9,5.8-1.3,7.7-1.7
			c19.7,1.4,34.9,9.1,46.5,23.8C261.3,87.2,265.8,95.5,268.9,104.3z"/>
	</g>
	<g>
	</g>
</g>
<g id="XMLID_4_">
	<g>
		<path class="st2" d="M502.2,142.9c1.3,2.6,0.5,5-1.8,6.7c-1.9,1.5-4.7,1.1-6.2-0.8c-7.6-8.5-17.4-13.3-27.7-17.7
			c-11.5-4.9-20.3-13.1-27.3-23.2c-1.1-1.6-1.2-4.3-0.7-6.3c0.4-1.4,2.5-2.3,4.4-3.8c2.1,1.5,4.1,2.4,5.2,3.9
			c7.4,10.6,17.3,17.7,29.2,22.5c8.5,3.4,15.6,8.9,22.2,15.1C500.6,140.2,501.5,141.5,502.2,142.9z"/>
	</g>
	<g>
	</g>
</g>
<g id="XMLID_3_">
	<g>
		<path class="st2" d="M432.2,68.5c2.2,1.9,2.5,5.2,0.6,7.4c-1.7,2.1-4.8,1.9-7.8,0.3c-6.3-3.4-12.7-6.7-19.1-9.7
			c-1.9-0.9-4.2-0.9-6.3-1.4c-3-0.6-5.3-2-5.1-5.4c0.1-2.6,3-4.5,7.5-4.5C413,56.9,423.5,61.4,432.2,68.5z"/>
	</g>
	<g>
	</g>
</g>
<g>
	<path class="st3" d="M650.5,233.4c0-76.9,62.6-139.6,139.1-139.6s139.3,62.8,139.3,139.6c0,76.2-62.8,138.6-139.5,138.6
		C713.1,372,650.5,309.6,650.5,233.4z M874.5,233.1c0-46.8-38.2-85-85-85c-46.7,0-84.7,38.2-84.7,85c0,46.5,38,84.5,84.7,84.5
		C836.3,317.6,874.5,279.6,874.5,233.1z"/>
	<path class="st4" d="M1171.4,145.1v221.8h-43.5v-94.3l-62.3,90.6h-0.3l-62.4-90.6v94.3h-43.5V145.1h2.4l103.7,143l103.5-143H1171.4
		z"/>
	<path class="st4" d="M1383,149.9v221h-2l-128.5-125v121.3H1209V146.4h2.1l128.2,124.7V149.9H1383z"/>
	<path class="st4" d="M1420.6,150.4h43.5v216.5h-43.5V150.4z"/>
	<path class="st3" d="M1720.1,285.7c0,39.5-28.4,81.2-83.5,81.2h-101.1V99.3h73c47.5,0,77.7,34.9,77.7,70.9c0,28.4-18.8,46-25.2,46
		C1686.7,216.1,1720.1,242.7,1720.1,285.7z M1589.1,151.6v52.3h21.7c12.8,0,25.2-11,25.2-26.6c0-15.1-11.8-25.7-24.2-25.7H1589.1z
		 M1667.6,281.9c0-15.4-10.6-30.9-36.2-30.9h-42.3v63.4h42.5C1649,314.4,1667.6,302.5,1667.6,281.9z"/>
	<path class="st4" d="M1858.4,366.9l-68.9-102.3v102.3H1746l-0.1-216.5h70.6c40.4,0,73.6,31.2,73.6,70.1c0,27.8-16.8,52.1-40,60.3
		l61.5,86.1H1858.4z M1789.3,247.9l27.9,0.1c14.8,0.1,27.9-11.8,27.9-27.3s-13.3-27.3-27.9-27.3h-27.9V247.9z"/>
	<path class="st4" d="M2063.7,336.7h-86.6l-13.8,30.2h-47l103.4-221.8h1.3l103.5,221.8h-47.1L2063.7,336.7z M2046.8,299.6
		l-26.3-57.9l-26.5,57.9H2046.8z"/>
	<path class="st4" d="M2146.1,150.4h43.5v216.5h-43.5V150.4z"/>
	<path class="st4" d="M2401.2,149.9v221h-2l-128.5-125v121.3h-43.5V146.4h2.1l128.2,124.7V149.9H2401.2z"/>
</g>
</svg>
