<?xml version="1.0" encoding="utf-8"?>
<!-- Generator: Adobe Illustrator 24.1.2, SVG Export Plug-In . SVG Version: 6.00 Build 0)  -->
<svg version="1.1" id="Layer_1" xmlns="http://www.w3.org/2000/svg" xmlns:xlink="http://www.w3.org/1999/xlink" x="0px" y="0px"
	 viewBox="0 0 1809.1 278.2" style="enable-background:new 0 0 1809.1 278.2;" xml:space="preserve">
<style type="text/css">
	.st0{display:none;fill:#2A3F7F;}
	.st1{fill:#29488E;}
	.st2{fill:#2159AA;}
</style>
<path class="st0" d="M139.1,8.8c83.8,0,148,61.4,148,142.3c0,80.3-64.2,141.3-148.1,141.3c-83.8,0-147.8-61-147.8-141.3
	C-8.9,70.1,55.3,8.8,139.1,8.8z M139.1,224c42.8,0,75.6-31.9,75.6-73.4c0-41.6-32.8-73.7-75.6-73.7s-75.6,32-75.6,73.7
	C63.5,192,96.3,224,139.1,224z M776,69h43.5v216.4H776V69z M738.4,68.5v221h-2l-128.5-125v121.3h-43.5V65h2.2l128.2,124.7V68.5
	H738.4z M526.7,63.7v221.8h-43.5v-94.3l-62.3,90.6h-0.3l-62.4-90.6v94.3h-43.5V63.7h2.4l103.7,143l103.5-143H526.7z M1211.1,175.2
	c0,2.9-0.4,5.8-1,8.6c-0.5,2.5-1.3,4.9-2.3,7.3c-1.6,4.2-4.6,8.8-9.6,14.4c-5.2,5.7-10.9,11.1-17,15.9c-6.5,5.3-13.9,10.9-22,16.5
	s-16.4,11.1-25,16.2l-0.2,0.1c-8.8,5.1-19.3,10.6-31,16.4s-24,11.7-36.6,17.7c-12.9,6.1-26.1,12-39.4,17.6s-25.8,10.6-37.3,15
	l-0.3,0.1c-7.9,2.7-16.6,5.6-25.9,8.6c-9.5,3-19,5.9-28.1,8.4s-17.5,4.7-25.1,6.4c-6,1.5-12.1,2.5-18.3,3.2c-2.7,0.3-5.5,0.7-8.5,1
	l-14.8,1.5l3.4-13.8c1.2-4.8,1.2-9.8-0.1-14.5c-1.8-6.2-4-12.4-6.5-18.4l-4.6-11.1l15.3-3.2c4.9-1,11.8-2.5,20.7-4.5
	c8.7-1.9,18-4.1,27.7-6.5c9.3-2.3,18.5-4.6,27.5-7c8.8-2.3,17-4.6,24.4-6.7s13.6-4.1,18.6-6l0.3-0.1l0.3-0.1
	c7.4-2.3,16.3-5.3,26.3-9.1c10.2-3.9,20.9-8,31.7-12.5c11.1-4.6,22.2-9.2,32.8-13.8c10.8-4.7,21.1-9.2,30.5-13.5s17.6-8.2,24.4-11.8
	c8.3-4.4,12.3-6.8,14.2-8l11.9-7.6c2.4-2.2,4.9-4.1,7.6-5.8c1.4-0.9,2.4-1.6,3.3-2.3c-2.3-1.3-4.6-2.5-7-3.6
	c-5.3-2.4-10.8-4.4-16.4-6.1c-6.2-1.9-12.9-3.7-19.8-5.4c-6.6-1.6-13.3-2.9-19.9-3.8c-4.7-0.3-10.5-0.6-17.3-1
	c-7.1-0.3-14.7-0.5-22.4-0.5s-15.7,0.2-23.7,0.5c-7.8,0.3-14.7,0.8-20.4,1.4h-0.3c-10.6,0.9-14,1.5-15,1.8c-0.5,0.1-1,0.3-1.5,0.5
	l-0.2,0.1c-0.6,0.8-2.4,3.4-7.2,11.5c-5,8.5-10.8,18.2-17.7,29.5c-10.7,17.5-18,29.4-22.9,37.5c-5.2,8.6-9.1,14.8-11.5,18.5
	c-2.7,4-6.3,9.5-12.8,9.5h-1.2l-1.3-0.3c-2.5-0.7-4.9-2-6.7-3.9c-3.1-3.1-4.9-7.7-5.4-14.3l-0.1-1.6l0.4-1.6c0.3-1.3,1-3.6,3.9-11
	c2-5.3,4.6-11.5,7.7-18.5s6.5-14.6,10.2-22.4s7.2-15.2,10.6-21.9l2-4.4c-1.4-0.9-2.8-2-4.1-3.1c-3.3-3.1-6.1-6.7-8.4-10.6
	c-2.2-3.7-3.8-7.6-5-11.6c-1.7-6.1-1.1-11.3,1.9-15.2l0.4-0.6l0.5-0.5c3.5-3.5,8.6-5.8,16-7.2c8.6-2.2,15.4-4.1,20.1-5.6
	s8.1-2.6,10.3-3.5c0.4-0.2,0.9-0.4,1.3-0.6c1-1.3,2.2-3,3.3-4.6c6-10.7,11.7-20.3,16.8-28.6c3.9-6.4,7.7-11.9,11.2-16.7
	c-3.6,0.2-7.8,0.4-12.6,0.7c-9.8,0.7-20.3,1.5-31.3,2.5s-22.8,2.1-34.7,3.5c-8.7,1-17.2,2-25.1,3l-16.4,2.1l5.7-15.5
	c0.7-1.9,1.3-3.6,1.7-5.2c0.3-1.1,0.6-2.2,0.8-3.3l1.4-7.3l12.1-1.3c13.2-1.3,25.6-2.6,36.7-3.8c10.9-1.1,20.1-2.1,27.5-2.8h0.2
	c9.5-0.7,21.3-1.2,35.2-1.5c9.3-0.2,18.7-0.3,28.1-0.3c4.6,0,9.4,0,14,0.1c14.1,0.2,27.3,0.4,39.2,0.8c12.4,0.4,21.3,1.1,27.3,2.1
	c17.4,2.5,29.2,5.2,36,8.3c12.8,5.8,14.7,15.1,14.7,20.2c0,3.9-0.8,7.9-2.2,11.5c-1.8,4.3-4.5,8.1-8,11.1c-3.9,3.5-8.1,6.7-12.5,9.4
	c-6.1,3.8-12.5,7.2-19.1,10.1c-8.9,4.8-20.1,10.1-33.4,15.8c-5.3,2.3-10.8,4.7-16.4,7.1c14.5,0.7,29,2.3,43.3,4.9
	c17.6,3.4,33.2,8.5,46.4,15.2c9,4.3,15.2,8.6,19,13C1208.8,161.8,1211.2,168.4,1211.1,175.2z M1140,58.7l-3.6-0.4
	c-14.9-1.6-33.3-2.8-54.8-3.5l-9.4-0.2c0.4,1.9,0.5,3.8,0.5,5.8c0,1.9-0.1,3.8-0.3,5.7c-0.4,2.3-1,4.5-1.9,6.6
	c-1,2.5-2.3,4.9-3.6,7.3c-1.1,1.9-2.5,4.3-4.3,7.2l1.8-0.6c10.7-3.3,22.2-7.2,34.1-11.6s23-8.8,33-12.8
	C1134.5,61,1137.3,59.8,1140,58.7z M1174.1,175.2c0,2.2-0.3,4.4-0.8,6.5c-0.4,1.9-1,3.8-1.8,5.5c-1,3-3.6,6.9-7.8,11.6
	c-4.9,5.3-10.2,10.3-15.9,14.8c-6.4,5.2-13.5,10.6-21.4,16.1s-16,10.8-24.4,15.9c-8.7,5-18.9,10.4-30.4,16.1s-23.7,11.6-36.5,17.6
	s-25.8,11.8-39,17.4s-25.6,10.5-37,14.8c-7.7,2.7-16.3,5.5-25.7,8.6c-9.4,3-18.6,5.8-27.7,8.3s-17.3,4.6-24.7,6.3
	c-5.6,1.4-11.3,2.4-17.1,3c-2.7,0.3-5.5,0.7-8.6,1l-0.6,0.1c1.6-6.4,1.5-13.2-0.2-19.6c-1.9-6.6-4.3-13.1-6.9-19.5l3.5-0.7
	c4.9-1,11.8-2.5,20.9-4.5s18.4-4.2,27.9-6.5c9.6-2.4,18.8-4.7,27.7-7s17.1-4.6,24.7-6.8c7.5-2.2,14-4.3,19.4-6.3
	c7.7-2.4,16.7-5.5,26.9-9.3s20.9-8,32-12.6c11.1-4.5,22.1-9.1,33-13.8c10.9-4.7,21.2-9.2,30.7-13.6c9.6-4.4,17.9-8.4,24.9-12.1
	s12.1-6.5,15.1-8.6l12.6-8c2.1-2,4.3-3.8,6.8-5.3c2.4-1.5,4.7-3.3,6.8-5.3l6-6l-5.5-5c-3.8-2.8-8-5.1-12.3-7
	c-5.7-2.5-11.6-4.7-17.6-6.6c-6.5-2-13.3-3.8-20.4-5.5c-7-1.7-14.1-3-21.1-4c-4.7-0.3-10.7-0.7-17.9-1s-14.8-0.5-22.9-0.5
	c-8,0-16.1,0.2-24.2,0.5s-15.1,0.8-21.1,1.5c-8.4,0.7-13.9,1.3-16.6,2c-2.2,0.4-4.3,1.5-6,3c-1,0.7-4,5.3-9.1,13.8
	c-5,8.6-10.9,18.4-17.6,29.4c-10.1,16.4-17.7,28.9-22.9,37.5c-5.2,8.6-9,14.6-11.4,18c-2.3,3.5-3.9,5.2-4.5,5
	c-0.8-0.2-1.5-0.7-2-1.3c-1.3-1.4-2.2-4-2.5-8c0.3-1.3,1.5-4.6,3.5-9.8s4.5-11.3,7.6-18.1c3-6.9,6.4-14.3,10.1-22.1
	c3.7-7.9,7.2-15.2,10.6-21.9l7-15.6h-4c-2.4,0-4.8-1.2-7.3-3.5c-2.6-2.4-4.8-5.2-6.5-8.3c-1.7-2.9-3.1-6-4-9.3
	c-0.8-3-0.8-5.2,0.3-6.6c2-2,5.7-3.5,11.1-4.5c9-2.3,16-4.3,20.9-5.8s8.6-2.8,11.1-3.8c2-0.7,3.9-1.9,5.3-3.5c1-1.3,2.3-3.2,4-5.5
	c6-10.7,11.7-20.3,16.9-28.7c4.3-7.2,9.1-14.1,14.3-20.6l9.6-11.6h-12.9c-5,0-12.3,0.3-21.9,1s-20,1.5-31.4,2.5s-23.1,2.2-35,3.5
	c-8.9,1-17.3,2-25.2,3c0.7-1.9,1.4-3.9,2-5.9c0.3-1.2,0.7-2.6,1-4.2l4.7-0.5c13.3-1.3,25.5-2.6,36.7-3.8s20.4-2.1,27.4-2.8
	c9.4-0.7,21-1.2,34.7-1.5s27.7-0.4,41.8-0.3c14.1,0.2,27.1,0.4,39,0.8c11.9,0.3,20.5,1,25.9,2c16.4,2.4,27.6,4.9,33.5,7.6
	c5.9,2.7,8.8,6.4,8.8,11.1c0,2.7-0.5,5.3-1.5,7.8c-1.3,2.9-3.2,5.5-5.5,7.6c-3.4,3.1-7.1,5.9-11.1,8.3c-5.8,3.6-11.9,6.8-18.1,9.6
	c-8.7,4.7-19.7,9.9-33,15.6c-13.3,5.7-27.4,11.7-42.5,18.1l-17.6,7.6h30.2c22.5,0.3,42.1,2.1,58.9,5.3s31.4,8,43.8,14.3
	c7.7,3.7,13,7.2,15.8,10.6C1172.7,166.5,1174.2,170.8,1174.1,175.2z M1132.6,60.7c6.2-3.2,8.8-5.1,7.8-5.8
	c-4.7-2.7-14.7-4.8-29.9-6.5c-15.3-1.7-33.8-2.9-55.6-3.5l-25.7-0.5l3.5,4.5c0.8,1.6,1.4,3.3,2,5c0.7,2.1,1,4.3,1,6.6
	c0,1.4-0.1,2.9-0.3,4.3c-0.3,1.5-0.7,2.9-1.3,4.3c-0.9,2.1-1.9,4.1-3,6c-1.3,2.3-3.2,5.4-5.5,9.1c-7,10.7-11,16.9-11.8,18.6
	s-0.3,2.3,1.8,2c0.7-0.7,3.3-1.8,8-3.3s10.2-3.3,16.6-5.3c11.1-3.3,22.6-7.3,34.7-11.8c12.1-4.6,23.1-8.8,33.2-12.8
	C1118.2,67.5,1126.4,63.9,1132.6,60.7L1132.6,60.7z M1954.9,155.5c0.1,7.6-0.7,15.3-2.3,22.7c-2.3,10.4-4.7,20.6-7.4,30.8
	c-2.6,10.2-5.9,20.1-9.9,29.8c-2.7,6.6-5.3,12.9-7.8,18.9c-2.6,6.2-5.7,12.2-9.3,17.9c-1.6,2.6-3.4,5.2-5.3,7.6
	c-1.9,2.3-3.8,4.4-5.9,6.5c-6.5,7-14.3,9.1-23.6,6.5c-17.4-3.9-29.5-14.1-36.1-30.5c-4.5-11.3-7-23.4-7.6-35.5
	c-0.5-10.1-0.4-20.1,0.1-30.2c0.6-10.2,1.1-20.2,1.7-30.2c0.2-8.6,0.6-17.2,0.9-25.8c0.4-8.6,0.2-17.3-0.6-25.8c0-0.7,0-1.5,0-2.6
	s-0.4-2.2-1.1-3.1c-1.5,0.3-3,1-4.1,2.1s-2.3,2.2-3.6,3.1c-2.6,2.3-4.9,5.1-6.6,8.1c-1.7,2.9-3.4,6-5,9.1c-8.3,17-15,34.7-20.2,52.9
	c-5.2,18.2-9,36.7-11.4,55.4c-0.6,5.2-1.4,10.4-2.4,15.5s-1.8,10.4-2.4,15.5c0,1.5,0,3.1-0.2,4.6c-0.2,1.6,0,3.1,0.3,4.6
	c0.4,6.5-2.6,10-9.2,10.4c-6.3,0.5-12.5-1.1-17.9-4.4c-5.3-3.3-9.6-8.1-12.3-13.8c-2.8-5.7-4.9-11.8-6.2-18s-2.3-12.4-3.1-18.5
	c-1-6.7-1.9-13.4-2.5-20c0.1-0.4,0.3-0.7,0.4-1.1c6.2-15.7,11.4-31.8,15.6-48.2c0.6-2.2,1-4.4,1.2-6.7c0.1-2.1,0.4-4.3,0.7-6.7
	s-0.9-3.9-3.7-4.6c-2.1-0.5-4.3,0.6-5.1,2.6c-0.7,0.7-1.1,1.6-1.3,2.6c-0.1,0.9-0.4,1.8-0.7,2.6c-2.5,8.8-5.4,17.4-8.7,25.8
	c-0.1-11,0.2-22,0.9-33c0.6-8.9,1.1-17.6,1.5-26.1s0.9-17.1,1.5-26.1c0.3-4.8,1.2-8,2.7-9.6s4.7-2.4,9.5-2.4
	c10.9-0.2,21.6,3.6,30.1,10.5c4.3,2.9,6.4,8.2,5.3,13.4c-2.6,14.7-4.2,29.5-4.9,44.4c-0.7,14.8-1.1,29.6-1.2,44.4l0.1,4.1
	c0.1,1.6,0.4,3.2,1.1,4.6c1.6-5.5,3-10.8,4.2-15.8s2.4-10.1,3.7-15.3c2.6-9.3,5.5-18.7,8.6-28s6.5-18.5,10.2-27.5
	c2.6-7.1,6.5-13.6,11.6-19.3c8.1-9.7,18.5-13,31.2-9.7c18.9,5.3,31,17.7,36.4,37.2c3.1,11.1,4.7,22.5,4.6,34c-0.6,11-0.9,22-1.1,33
	s-0.6,22-1.1,33c-0.9,12.2-0.5,24.5,1,36.6c0,0.8,0.1,1.6,0.3,2.3c0.2,0.9,0.4,2,0.8,3.3c5.2-4.2,9.7-9.1,13.5-14.6
	c3.6-5.3,6.7-10.8,9.4-16.6c12.4-24.9,22.5-51,30-77.8c0.7-1.8,1.3-3.6,1.7-5.4c0.5-1.9,1.1-3.9,1.7-6c0.9-2,3-3.1,5.1-2.6
	C1953.5,151.6,1954.9,153.1,1954.9,155.5z M1748.4,151.9c2.8,0.7,4,2.2,3.7,4.6c-0.3,2.4-0.5,4.6-0.7,6.7c-0.2,2.3-0.6,4.5-1.2,6.7
	c-4.2,16.4-9.4,32.5-15.6,48.2c-0.1,0.4-0.3,0.7-0.4,1.1c-0.7-7.8-1.2-15.5-1.4-23.3c-0.1-3.5-0.1-6.9-0.1-10.4
	c3.3-8.4,6.2-17,8.7-25.8c0.4-0.8,0.6-1.7,0.7-2.6c0.1-1,0.6-1.9,1.3-2.6C1744.2,152.6,1746.3,151.5,1748.4,151.9z M1732.7,196
	c0.2,7.8,0.7,15.5,1.4,23.3c-6.1,15.2-12.9,30.2-20.4,45.1c-1.6,3.3-3.5,6.5-5.8,9.4s-4.8,5.7-7.4,8.4c-6.8,6.6-15.2,9.1-25.2,7.5
	c-10.3-1.6-18.6-5.4-24.9-11.3c-6.3-5.9-11-13.7-14.2-23.3c-2.7-8.3-4.8-16.8-6-25.5c1-3.5,2-7.1,3-10.6
	c4.3-15.5,8.2-31.1,11.8-46.6c1-4.1,1.4-8.2,1.4-12.4c0.7-3.4-0.4-5.3-3.2-5.6c-3.8-0.6-6.2,0.3-7.2,2.7c-0.7,1.7-1.3,3.5-2,5.2
	c-0.7,1.7-1.3,3.4-2,5.2c-1.3,5.9-2.8,11.8-4.4,17.6c0.1-2.1,0.3-4.2,0.4-6.2c0.2-13.1,0.7-25.9,1.6-38.5s2.3-24.9,4.2-37
	c0.6-5.2,2.1-8.8,4.5-10.9s6.3-2.8,11.9-2.2c3.8,0.6,7.5,1.4,11.1,2.4c3.8,1.1,7.4,2.8,10.6,5c5.6,3.7,7.7,8.7,6.4,14.9
	c-2.6,15.5-4.5,30.9-5.9,46.3s-1.8,30.8-1.2,46.2c0.4,9.3,1,18.6,1.6,27.9c0.6,9.2,1.9,18.3,3.7,27.3c0.4,1.7,0.6,3.2,0.8,4.4
	s0.5,2.7,0.8,4.4c1.1,3.4,2.8,3.9,5.2,1.5c1.1-0.8,2.1-1.7,3.1-2.6c1-1,1.9-1.9,2.6-2.6c4.6-4.7,8.7-10,12.2-15.6
	c3.4-5.5,6.6-11.3,9.6-17.2c6.1-11.8,11.8-23.6,17.1-35.6c1.7-3.7,3.2-7.5,4.7-11.2C1732.6,189.1,1732.7,192.5,1732.7,196z
	 M1679.4,3.1c3.1,2.7,4,6,2.7,9.8c-1.4,3.2-2.4,6.5-3,9.8c-0.7,3.5-1.3,6.9-1.9,10.4c-0.6,3.7-1.5,7.3-2.7,10.9
	c-1.2,3.5-2.6,7-4.3,10.4c-1.7,4.2-4.8,5.7-9.2,4.8c-3.6-0.5-6.9-1.9-9.9-4c-2.8-2-4.5-5.1-5.3-9.2c-1.5-5.1-2.6-10.3-3.6-15.4
	c-0.9-4.9-1.3-10-1-15c0-2.8,0-5.3-0.1-7.5c0-2.3,0.1-4.7,0.4-7c0-3.1,0.4-5.2,1.5-6.2s2.9-1.8,5.6-2.1
	C1660.5-8.5,1670.7-5,1679.4,3.1z M1643.2,154.3c2.8,0.3,3.8,2.2,3.2,5.6c0,4.2-0.4,8.3-1.4,12.4c-3.6,15.5-7.5,31.1-11.8,46.6
	c-1,3.6-2,7.1-3,10.6c-0.4-2.9-0.8-5.9-1.1-9c-0.8-7.2-1.3-14.4-1.6-21.4c-0.2-4.8-0.2-9.6,0.1-14.2c1.6-5.8,3.1-11.7,4.4-17.6
	c0.7-1.7,1.3-3.5,2-5.2s1.3-3.4,2-5.2C1637,154.6,1639.4,153.7,1643.2,154.3z M1629,220.6c0.3,3.1,0.7,6.1,1.1,9
	c-3.5,12-7.3,24-11.4,36c-1.3,3.5-2.8,6.9-4.3,10.4s-3.5,6.8-5.8,9.9c-4.7,5.9-10.6,8.7-17.4,8.5c-18.9-0.1-32.8-8.5-41.9-25.3
	c-4.5-7.7-8-16-10.5-24.6s-4.5-17.4-6-26.2c-0.7-2.4-1.1-4.9-1.4-7.5c-0.2-2.4-0.7-4.7-1.4-7c-2.7,8-5.3,15.7-8,23.3
	c-2.7,7.6-5.3,15.2-8,22.8c-3.5,10.5-8.1,20.5-13.6,30.1c-7.7,12.8-18.6,18.1-32.7,15.9c-14.1-1.9-25.6-8.3-34.3-19.2
	c-10.8-14.7-16.6-30.4-17.1-47.3c-0.5-9.1-0.5-18.1-0.2-27c5.8-5,10.8-11,14.6-17.6c2.8-5.7,4.5-11.8,4.9-18.1
	c0-2.8-1.6-4.4-4.7-5.1s-5.5,0.8-7.2,4.2c-1.4,3.1-3.1,6.1-5,8.9c2.6-14.7,7.4-28.9,14.3-42.1c1.6-3.4,3.6-6.6,5.8-9.6
	c2.3-3,4.7-5.9,7.4-8.6c7.1-8,15.2-13.3,24.3-16c9.5-2.7,19.3-3.7,29.1-2.7c5.8,0.6,11.5,1.8,17.1,3.7c5.8,2,10.8,5.6,14.6,10.4
	c1.7-1.4,2.6-2.8,2.8-4.2s0.6-2.8,1.2-4.1c2-4.8,5.4-7.8,10.1-8.9c4.8-1.1,9.7-1.2,14.5-0.2c4.8,1.1,9.4,2.9,13.6,5.5
	c3.8,2.7,5.6,6.8,5.3,12.3c-2.9,15.5-5,31-6.4,46.5c-1.3,15.5-1.4,31-0.2,46.5c0.8,10.3,2,20.6,3.5,30.9s3.9,20.5,7.1,30.4
	c0.8,4.3,2.7,8.3,5.3,11.8c1.5-0.6,2.9-1.6,3.8-2.9c0.8-1.2,1.6-2.4,2.3-3.4c3.6-5.4,6.8-11.2,9.3-17.1s4.8-11.8,6.8-17.6
	c4-11.1,7.9-22.2,11.7-33.5c1.9-5.5,3.6-11.1,5.2-16.8c-0.2,4.6-0.3,9.3-0.1,14.2C1627.8,206.2,1628.3,213.3,1629,220.6z
	 M1526.2,170.5c1-5.5,1.2-11.2,0.8-16.8c0-6.2-1.1-12.3-3.3-18c-2.3-5.7-5.3-11-9-15.9c-1.7-2.6-4-4.7-6.8-6.1c-2.8-2-5.4-2-7.7,0.1
	l-4.6,3.2c-4.7,4.1-8.8,9-12,14.3s-5.8,11-7.8,16.9c-11.6,30.1-15.4,62.6-11.2,94.6c1.1,12.2,4.6,24.1,10.3,35
	c2.3-0.8,4.4-2.2,6.1-4c1.4-1.6,2.9-3.2,4.6-5c4-4.7,7.5-9.8,10.6-15.1c3-5.2,5.9-10.7,8.6-16.6c3.6-8.2,6.8-16.6,9.5-25.2
	c2.7-8.4,5.3-16.8,7.9-25.1C1523.8,181.4,1525.2,176,1526.2,170.5z M1431.1,161.6c3.1,0.7,4.7,2.4,4.7,5.1
	c-0.4,6.3-2.1,12.5-4.9,18.1c-3.8,6.7-8.8,12.6-14.6,17.6c0.3-7.5,0.9-15,1.9-22.4c0.2-1.8,0.5-3.6,0.8-5.4c1.9-2.8,3.6-5.8,5-8.9
	C1425.6,162.4,1428,161,1431.1,161.6z M1418.9,174.8c-0.3,1.8-0.6,3.6-0.8,5.4c-0.9,7.4-1.5,14.8-1.9,22.4l-0.1,0.1
	c-5.9,4.9-12.4,9-19.5,12.1c-1.6,0.7-3.2,1.1-4.9,1.4c-1.6,0.2-3.3,0.3-4.9,0.3c-15.2-0.5-27.2-5.2-36.1-14
	c-8.6-8.4-14.8-19.1-17.7-30.8c-0.7-3.4-1.4-6.8-1.9-10s-1.2-6.4-1.9-9.5c-1.7,4.9-3.1,9.9-4.2,15c-1.1,5.2-2.4,10.4-3.7,15.5
	c-2.6,12.1-5.3,24.2-8.1,36.2c-2.8,12.1-4.9,24.4-6.5,36.7c-0.7,4.8-1.3,9.8-1.9,14.7c-0.6,5-1.2,9.9-1.9,14.7
	c-0.6,5.5-2.5,9.6-5.8,12.2s-7.4,3.6-12.6,3c-11.4-1.2-19.7-6.8-25-16.7c-3.2-5.4-5.4-11.3-6.4-17.5c-4-15.4-7.2-30.8-9.6-46.1
	c-2.4-15.4-3.4-31.1-2.9-46.7c0.6-10.3,1-20.7,1.4-31s1.7-20.5,4-30.5c1.6-7.2,3.9-12,6.8-14.3s8.1-3.3,15.7-3
	c9.7,0.4,19.1,3.1,27.5,7.9c5.2,3.4,7.7,8.5,7.4,15.4c-1.3,9.3-2.3,18.7-3,28.2s-1.7,19-3,28.7c-0.6,7.2-0.7,14.5-0.2,21.7
	c0.4,7.4,0.3,14.8-0.2,22.2c1.7-4.1,3-8.4,4-12.7c1-4.3,1.8-8.7,2.4-13.2c2.6-11.1,5.1-21.9,7.6-32.6c2.5-10.9,5.5-21.6,9.1-32.1
	c1.3-3.8,2.8-7.5,4.5-11.2s3.3-7.3,5-11.2c4-6.9,9.9-9.9,17.4-9c13.1,1.2,23,8.1,29.7,20.8c2.8,6,4.8,12.3,5.9,18.8
	c1.1,6.6,1.6,13.2,1.3,19.9c0.1,4.5-0.1,8.9-0.3,13.2c-0.3,4.3-0.6,8.5-0.9,12.6c0,2.8,0.1,5.6,0.4,8.5c0.2,2.9,0.8,5.8,1.9,8.5
	c1.1,2.8,2.8,3.4,5.2,2c1.7-1.1,3.5-2,5.4-2.9c2-1,3.8-2.3,5.4-4c4.4-4.2,8.7-8.4,12.7-12.8C1415.7,179.2,1417.4,177.1,1418.9,174.8
	z"/>
<g>
	<path class="st1" d="M0,139.6C0,62.7,62.6,0,139.1,0s139.3,62.8,139.3,139.6c0,76.2-62.8,138.6-139.5,138.6
		C62.6,278.2,0,215.8,0,139.6z M224,139.3c0-46.8-38.2-85-85-85c-46.7,0-84.7,38.2-84.7,85c0,46.5,38,84.5,84.7,84.5
		C185.8,223.8,224,185.8,224,139.3z"/>
	<path class="st2" d="M529.1,51.3v221.8h-43.6v-94.3l-62.3,90.6h-0.3l-62.4-90.6v94.3H317V51.3h2.4l103.7,143l103.5-143H529.1z"/>
	<path class="st2" d="M747.3,56.1v221h-2l-128.5-125v121.3h-43.5V52.6h2.1l128.2,124.7V56.1H747.3z"/>
	<path class="st2" d="M791.5,56.6H835v216.5h-43.5V56.6z"/>
	<path class="st1" d="M1099.9,191.9c0,39.5-28.4,81.2-83.5,81.2H915.3V5.5h73c47.5,0,77.7,34.9,77.7,70.9c0,28.4-18.8,46-25.2,46
		C1066.6,122.3,1099.9,148.9,1099.9,191.9z M968.9,57.8v52.3h21.7c12.8,0,25.2-11,25.2-26.6c0-15.1-11.8-25.7-24.2-25.7H968.9z
		 M1047.5,188.1c0-15.4-10.6-30.9-36.2-30.9H969v63.4h42.5C1028.9,220.6,1047.5,208.7,1047.5,188.1z"/>
	<path class="st2" d="M1246.4,273.1l-68.9-102.3v102.3H1134l-0.1-216.5h70.6c40.4,0,73.6,31.2,73.6,70.1c0,27.8-16.8,52.1-40,60.3
		l61.5,86.1L1246.4,273.1L1246.4,273.1z M1177.4,154.1l27.9,0.1c14.8,0.1,27.9-11.8,27.9-27.3s-13.3-27.3-27.9-27.3h-27.9V154.1z"/>
	<path class="st2" d="M1458.3,242.9h-86.6l-13.8,30.2h-47l103.4-221.8h1.3l103.5,221.8H1472L1458.3,242.9z M1441.4,205.8l-26.3-57.9
		l-26.5,57.9H1441.4z"/>
	<path class="st2" d="M1547.3,56.6h43.5v216.5h-43.5V56.6z"/>
	<path class="st2" d="M1809.1,56.1v221h-2l-128.5-125v121.3h-43.5V52.6h2.1l128.2,124.7V56.1H1809.1z"/>
</g>
</svg>
