<?xml version="1.0" encoding="utf-8"?>
<!-- Generator: Adobe Illustrator 24.1.2, SVG Export Plug-In . SVG Version: 6.00 Build 0)  -->
<svg version="1.1" id="Capa_1" xmlns="http://www.w3.org/2000/svg" xmlns:xlink="http://www.w3.org/1999/xlink" x="0px" y="0px"
	 viewBox="0 0 788 788" style="enable-background:new 0 0 788 788;" xml:space="preserve">
<g>
	<g>
		<path d="M394,788C176.7,788,0,611.3,0,394C0,176.7,176.7,0,394,0c217.3,0,394,176.7,394,394C788,611.3,611.2,788,394,788z
			 M394,40.5C199.1,40.5,40.5,199.1,40.5,394c0,194.9,158.6,353.5,353.5,353.5c94.3,0,183-36.8,249.9-103.7
			C710.7,577,747.5,488.3,747.5,394C747.5,199.1,588.9,40.5,394,40.5z"/>
		<path d="M394,176.8c-70.4,0-127.6,57.2-127.6,127.6c0,14.5,11.7,26.2,26.2,26.2c14.5,0,26.2-11.7,26.2-26.2
			c0-41.4,33.7-75.1,75.1-75.1c41.4,0,75.1,33.7,75.1,75.1c0,41.4-33.7,75.1-75.1,75.1c-14.5,0-26.2,11.7-26.2,26.2v91.4
			c0,14.5,11.7,26.2,26.2,26.2s26.2-11.7,26.2-26.2v-67.9c57.8-12.1,101.4-63.5,101.4-124.9C521.6,234,464.4,176.8,394,176.8z"/>
		<path d="M394,541.5c-18.2,0-32.9,14.7-32.9,32.9s14.8,32.9,32.9,32.9c18.2,0,32.9-14.7,32.9-32.9S412.2,541.5,394,541.5z"/>
	</g>
</g>
</svg>
