<?xml version="1.0" encoding="utf-8"?>
<!-- Generator: Adobe Illustrator 24.1.2, SVG Export Plug-In . SVG Version: 6.00 Build 0)  -->
<svg version="1.1" id="Layer_1" xmlns="http://www.w3.org/2000/svg" xmlns:xlink="http://www.w3.org/1999/xlink" x="0px" y="0px"
	 viewBox="0 0 26.2 24.4" style="enable-background:new 0 0 26.2 24.4;" xml:space="preserve">
<style type="text/css">
	.st0{fill:#3E68DD;}
	.st1{fill:#FFC515;}
</style>
<path class="st0" d="M11.1,20.3l-4.6,1.6c0,0-0.1,0-0.1,0c0,0,0.1,0,0.1,0c0,0,0.1,0.1,0.1,0.1V22l0.1-4.6c0-1.2-0.5-2.9-1.3-3.8
	L2.6,9.8c0,0,0-0.1,0-0.1c0,0,0,0.1,0,0.2c0,0.1,0,0.1-0.1,0.1c0,0,0,0,0.1,0l4.7-1.3c1.2-0.3,2.6-1.3,3.3-2.3l2.7-3.8
	c0,0,0-0.1,0-0.1c0,0-0.1,0-0.1,0s-0.1,0-0.1,0c0,0,0,0,0,0.1l2.7,3.8c0.7,1,2.1,2,3.3,2.3l4.7,1.3c0,0,0.1,0,0.1,0
	c0,0-0.1-0.1-0.1-0.1c0-0.1,0-0.1,0-0.2c0,0,0,0,0,0.1l-2.9,3.7c-0.8,1-1.3,2.6-1.3,3.8l0.1,2.3l0.1,2.3v0.1c0,0,0-0.1,0.1-0.1
	c0,0,0.1,0,0.1,0c0,0,0,0-0.1,0l-4.6-1.6C13.9,19.9,12.2,19.9,11.1,20.3z M18.8,24.3c1.7,0.6,3.3-0.5,3.2-2.4L22,19.6l-0.1-2.3
	c0-0.6,0.3-1.7,0.7-2.2l2.9-3.7c1.1-1.4,0.5-3.3-1.2-3.8l-4.7-1.3c-0.6-0.2-1.5-0.8-1.9-1.3l-2.7-3.8c-1-1.5-3-1.5-4,0L8.4,4.9
	C8,5.5,7.1,6.1,6.5,6.3L1.8,7.6C0,8.1-0.6,10,0.6,11.4l2.9,3.7c0.4,0.5,0.7,1.6,0.7,2.2l-0.1,4.6c0,1.8,1.5,2.9,3.2,2.4l4.6-1.6
	c0.6-0.2,1.7-0.2,2.4,0C14.3,22.7,18.8,24.3,18.8,24.3z"/>
<path class="st1" d="M13.1,17.4c-1.7,0-3.6,0.8-3.6,0.8s0.3-1.9-0.2-3.5s-1.9-3.2-1.9-3.2s2.2-0.6,3.6-1.6s2.1-2.5,2.1-2.5
	s1,1.5,2.3,2.5c1.3,1,3.4,1.6,3.4,1.6s-1.2,1.3-1.7,3c-0.5,1.7-0.4,3.7-0.4,3.7S14.7,17.4,13.1,17.4z"/>
<path class="st1" d="M13.1,17.4c-1.6-0.1-3.6,0.8-3.6,0.8s0.3-1.9-0.2-3.5s-1.9-3.2-1.9-3.2l5.7,1.2C13.2,16.8,13.1,15.9,13.1,17.4z
	"/>
<g id="XMLID_1_">
	<g>
		<path class="st1" d="M13.1,12.6l5.7-1.2c0,0-1.4,1.5-1.9,3.2c-0.5,1.7-0.2,3.5-0.2,3.5s-2-0.9-3.6-0.8
			C13.1,15.9,13,16.8,13.1,12.6z"/>
	</g>
	<g>
	</g>
</g>
</svg>
