<?xml version="1.0" encoding="utf-8"?>
<!-- Generator: Adobe Illustrator 24.1.2, SVG Export Plug-In . SVG Version: 6.00 Build 0)  -->
<svg version="1.1" id="Capa_1" xmlns="http://www.w3.org/2000/svg" xmlns:xlink="http://www.w3.org/1999/xlink" x="0px" y="0px"
	 viewBox="0 0 110 110" style="enable-background:new 0 0 110 110;" xml:space="preserve">
<style type="text/css">
	.st0{fill:#F5C002;}
	.st1{clip-path:url(#SVGID_2_);}
	.st2{fill:#F1C9A5;}
	.st3{fill:#E4B692;}
	.st4{opacity:0.1;fill:#DDAC8C;enable-background:new    ;}
	.st5{fill:#303030;}
	.st6{fill:#FB621E;}
	.st7{opacity:0.2;fill:#E53D0C;enable-background:new    ;}
	.st8{fill:#E53D0C;}
	.st9{fill:#FFFFFF;}
</style>
<g>
	<circle class="st0" cx="55" cy="55" r="55"/>
	<g>
		<g>
			<g>
				<defs>
					<circle id="SVGID_1_" cx="55" cy="55" r="72.4"/>
				</defs>
				<clipPath id="SVGID_2_">
					<use xlink:href="#SVGID_1_"  style="overflow:visible;"/>
				</clipPath>
				<g class="st1">
					<g>
						<path class="st2" d="M48.7,110.1h11.9c2.1-0.4,4.2-1,6.3-1.6c5.8-1.7,11.1-4.8,16.8-6.6c0.6-0.3,1.2-0.7,1.9-1
							c0.1-0.1,0.3-0.2,0.4-0.3c0.1-0.1,1.3-0.9,0.7-0.5c0.7-0.6,1.5-0.9,2.3-1.2c0.1-0.1,0.2-0.1,0.3-0.2
							C83.2,90.4,55,85.2,55,85.2s-27.7,5.1-34,13.4c2.9,1.5,5.6,3.4,8.2,5.4c0.4,0.1,0.7,0.2,1.1,0.4c4.5,2.1,9.2,3.6,14,4.8
							C45.8,109.5,47.3,109.8,48.7,110.1z"/>
						<path class="st3" d="M66.9,108.5c5.8-1.7,11.1-4.8,16.8-6.6c0.6-0.3,1.2-0.7,1.9-1c0.1-0.1,0.3-0.2,0.4-0.3
							c0.1-0.1,1.3-0.9,0.7-0.5c0.7-0.6,1.5-0.9,2.3-1.2c0.1-0.1,0.2-0.1,0.3-0.2C83.2,90.4,55,85.2,55,85.2v24.9h5.6
							C62.7,109.6,64.8,109.1,66.9,108.5z"/>
						<rect x="46.8" y="67.2" class="st2" width="16.3" height="27.3"/>
						<rect x="55" y="67.2" class="st3" width="8.2" height="27.3"/>
						<path class="st4" d="M46.8,79.9c1.5,4.2,7.4,6.6,11.8,6.6c1.6,0,3.1-0.3,4.6-0.7V67.2H46.8V79.9z"/>
						<path class="st2" d="M76,50c0-17.1-9.4-26.8-21-26.8S34,32.9,34,50c0,23,9.4,30.9,21,30.9S76,72,76,50z"/>
						<path class="st3" d="M72.8,61.8c-3.8-0.4-6.4-4.5-5.7-9.2c0.6-4.7,4.2-8.1,8.1-7.7c3.8,0.4,6.4,4.5,5.7,9.2
							C80.2,58.7,76.6,62.2,72.8,61.8z"/>
						<path class="st2" d="M29.3,54.1c-0.6-4.7,1.9-8.8,5.7-9.2s7.4,3.1,8.1,7.7c0.6,4.7-1.9,8.8-5.7,9.2
							C33.5,62.2,29.9,58.7,29.3,54.1z"/>
						<path class="st3" d="M76,50c0-17.1-9.4-26.8-21-26.8v57.7C66.6,80.9,76,72,76,50z"/>
					</g>
					<path class="st5" d="M73.9,64.3c-1.1,3.2-3,7-6.5,7c-4.3,0-7.4-3.5-12.4-3.5l0,0l0,0c-4.9,0-8,3.5-12.4,3.5
						c-3.5,0-5.4-3.8-6.5-7l-1-6.1v7.3c0,0,1.6,8.6,4.8,10.7c2.6,2.3,10.9,6.2,15,6.2l0,0l0,0l0,0l0,0c4.1,0,12.5-3.9,15-6.2
						c3.1-2.1,4.8-10.7,4.8-10.7v-7.3L73.9,64.3z"/>
					<path class="st5" d="M44.8,26.5c0,0,3.9,15.8,25.6,23.8c-2-3.5-2.4-7.8-2.4-7.8s3.5,3.7,9.3,6.7c3.2-6.3,6.9-15.8-1.5-21
						C67.5,22.9,47.6,13.6,44.8,26.5z"/>
					<path class="st5" d="M37.6,48.9c0,0,1.6-18,8.3-22c-5.7-2.5-14.5,5.1-13.5,9.8C33.3,41.3,37.6,48.9,37.6,48.9z"/>
					<path class="st6" d="M48.7,110.1h11.9c2.1-0.4,4.2-1,6.3-1.6c5.8-1.7,11.1-4.8,16.8-6.6c0.6-0.3,1.2-0.7,1.9-1
						c0.1-0.1,0.3-0.2,0.4-0.3c0.1-0.1,1.3-0.9,0.7-0.5c0.7-0.6,1.5-0.9,2.3-1.2c0.1-0.1,0.2-0.1,0.3-0.2c-3.4-4.8-14-8.5-22.6-10.9
						c-0.4,6.1-5.4,11-11.6,11s-11.2-4.8-11.6-11c-8.4,2.3-18.8,6-22.4,10.7c2.9,1.5,5.6,3.4,8.2,5.4c0.4,0.1,0.7,0.2,1.1,0.4
						c4.5,2.1,9.2,3.6,14,4.8C45.8,109.5,47.3,109.8,48.7,110.1z"/>
					<path class="st7" d="M66.6,87.9c-0.4,6.1-5.4,11-11.6,11s-11.2-4.8-11.6-11c-8.4,2.3-18.8,6-22.4,10.7c0.3,0.2,0.6,0.3,1,0.5
						c5-3.5,13.6-6.3,20.8-8.2c0.4,6.1,5.7,11,12.3,11s11.9-4.8,12.3-11c7.3,1.9,16,4.7,21.1,8.3c0.2-0.1,0.4-0.1,0.6-0.2
						c0.1-0.1,0.2-0.1,0.3-0.2C85.8,94,75.1,90.3,66.6,87.9z"/>
					<path class="st8" d="M40,88.9c1.1,7.3,7.4,12.9,15,12.9s13.9-5.6,15-12.9c-1.2-0.4-2.3-0.7-3.4-1c-0.4,6.1-5.4,11-11.6,11
						s-11.2-4.8-11.6-11C42.3,88.2,41.1,88.5,40,88.9z"/>
					<path class="st9" d="M58.4,73.3c0,0-0.5-2.2-3.4-2.2c-2.7,0-3.4,2.2-3.4,2.2H58.4z"/>
				</g>
			</g>
		</g>
	</g>
</g>
</svg>
