<?xml version="1.0" encoding="utf-8"?>
<!-- Generator: Adobe Illustrator 24.1.2, SVG Export Plug-In . SVG Version: 6.00 Build 0)  -->
<svg version="1.1" id="Layer_1" xmlns="http://www.w3.org/2000/svg" xmlns:xlink="http://www.w3.org/1999/xlink" x="0px" y="0px"
	 viewBox="0 0 22.2 32" style="enable-background:new 0 0 22.2 32;" xml:space="preserve">
<g>
	<g>
		<path d="M6.2,7.3H16c0.7,0,1.2-0.5,1.2-1.2V6c0-3.3-2.7-6-6-6h-0.1c-3.3,0-6,2.7-6,6v0.1C5.1,6.8,5.6,7.3,6.2,7.3z"/>
		<path d="M11.1,20.1h0.1c3.3,0,6-2.7,6-6v-2.4c0-0.8-0.6-1.4-1.4-1.4H6.4c-0.8,0-1.4,0.6-1.4,1.4v2.4C5.1,17.4,7.7,20.1,11.1,20.1z
			"/>
		<path d="M21.1,10.7L21.1,10.7c-0.7,0-1.2,0.6-1.2,1.2v2.6c0,4.7-3.9,8.6-8.6,8.6H11c-4.7,0-8.6-3.9-8.6-8.6v-2.6
			c0-0.7-0.5-1.2-1.2-1.2h0c-0.7,0-1.2,0.6-1.2,1.2v2.6c0,5.3,3.7,9.7,8.7,10.8v1.9H6.2c-1.3,0-2.4,1.1-2.4,2.4v0
			c0,1.3,1.1,2.4,2.4,2.4h2.5h4.9H16c1.3,0,2.4-1.1,2.4-2.4v0c0-1.3-1.1-2.4-2.4-2.4h-2.5v-1.9c4.9-1.1,8.7-5.5,8.7-10.8v-2.6
			C22.2,11.2,21.7,10.7,21.1,10.7z"/>
	</g>
</g>
</svg>
