<?xml version="1.0" encoding="utf-8"?>
<!-- Generator: Adobe Illustrator 24.1.2, SVG Export Plug-In . SVG Version: 6.00 Build 0)  -->
<svg version="1.1" id="Layer_1" xmlns="http://www.w3.org/2000/svg" xmlns:xlink="http://www.w3.org/1999/xlink" x="0px" y="0px"
	 viewBox="0 0 16.6 20.6" style="enable-background:new 0 0 16.6 20.6;" xml:space="preserve">
<path d="M3.3,20.6c-1.8,0-3.3-1.5-3.3-3.3v-12C0,3.5,1.5,2,3.3,2H4c0.1-1.1,1.1-2,2.3-2h4c1.2,0,2.1,0.9,2.3,2h0.7
	c1.8,0,3.3,1.5,3.3,3.3v12c0,1.8-1.5,3.3-3.3,3.3H3.3z M3.3,3.6c-0.9,0-1.7,0.8-1.7,1.7v12c0,0.9,0.8,1.7,1.7,1.7h10
	c0.9,0,1.7-0.8,1.7-1.7v-12c0-0.9-0.8-1.7-1.7-1.7h-0.7v0.7c0,1.3-1,2.3-2.3,2.3h-4C5,6.6,4,5.6,4,4.3V3.6H3.3z M6.3,1.6
	c-0.4,0-0.7,0.3-0.7,0.7v2C5.6,4.7,5.9,5,6.3,5h4C10.7,5,11,4.7,11,4.3v-2c0-0.4-0.3-0.7-0.7-0.7H6.3z"/>
<path d="M13.3,2.3h-1c0-1.1-0.9-2-2-2h-4c-1.1,0-2,0.9-2,2h-1c-1.7,0-3,1.3-3,3v12c0,1.7,1.3,3,3,3h10c1.7,0,3-1.3,3-3v-12
	C16.3,3.6,15,2.3,13.3,2.3z M5.3,2.3c0-0.6,0.4-1,1-1h4c0.6,0,1,0.4,1,1v2c0,0.6-0.4,1-1,1h-4c-0.6,0-1-0.4-1-1V2.3z M15.3,17.3
	c0,1.1-0.9,2-2,2h-10c-1.1,0-2-0.9-2-2v-12c0-1.1,0.9-2,2-2h1v1c0,1.1,0.9,2,2,2h4c1.1,0,2-0.9,2-2v-1h1c1.1,0,2,0.9,2,2V17.3z"/>
</svg>
