<?xml version="1.0" encoding="utf-8"?>
<!-- Generator: Adobe Illustrator 24.1.2, SVG Export Plug-In . SVG Version: 6.00 Build 0)  -->
<svg version="1.1" id="Layer_1" xmlns="http://www.w3.org/2000/svg" xmlns:xlink="http://www.w3.org/1999/xlink" x="0px" y="0px"
	 viewBox="0 0 24 24" style="enable-background:new 0 0 24 24;" xml:space="preserve">
<path d="M0,3.7C0,1.6,1.6,0,3.7,0H17c1.1,0,2.3,0.5,3.1,1.3L22.7,4C23.5,4.8,24,5.9,24,7v13.3c0,2-1.6,3.7-3.7,3.7H3.7
	c-2,0-3.7-1.6-3.7-3.7V3.7z M3.7,2C2.7,2,2,2.7,2,3.7v16.7C2,21.3,2.7,22,3.7,22H4v-7c0-1.7,1.3-3,3-3h10c1.7,0,3,1.3,3,3v7h0.3
	c0.9,0,1.7-0.7,1.7-1.7V7c0-0.6-0.2-1.2-0.7-1.6l-2.7-2.7c-0.3-0.3-0.8-0.6-1.3-0.7v3.6c0,1.7-1.3,3-3,3h-6c-1.7,0-3-1.3-3-3V2H3.7z
	 M18,22v-7c0-0.6-0.4-1-1-1H7c-0.6,0-1,0.4-1,1v7H18z M7.3,2v3.7c0,0.6,0.4,1,1,1h6c0.6,0,1-0.4,1-1V2H7.3z"/>
</svg>
