<?xml version="1.0" encoding="utf-8"?>
<!-- Generator: Adobe Illustrator 24.1.2, SVG Export Plug-In . SVG Version: 6.00 Build 0)  -->
<svg version="1.1" id="Layer_1" xmlns="http://www.w3.org/2000/svg" xmlns:xlink="http://www.w3.org/1999/xlink" x="0px" y="0px"
	 viewBox="0 0 30 27" style="enable-background:new 0 0 30 27;" xml:space="preserve">
<style type="text/css">
	.st0{fill-rule:evenodd;clip-rule:evenodd;fill:#0F0F0F;}
</style>
<path class="st0" d="M3.7,5.3c-1,1.7-1.3,4-0.7,6.3c0.2,0.9,0.8,2,1.8,3.2c1,1.2,2.2,2.5,3.5,3.8c2.6,2.5,5.4,4.6,6.7,5.7
	c1.3-1,4.1-3.2,6.7-5.7c1.3-1.2,2.5-2.5,3.5-3.8c1-1.3,1.6-2.4,1.8-3.2c0.6-2.4,0.3-4.7-0.7-6.3c-0.9-1.6-2.5-2.7-4.7-2.7
	c-1.9,0-3.2,1.4-4.1,3.3c-0.4,0.9-0.8,1.8-0.9,2.5c-0.1,0.3-0.2,0.6-0.2,0.8C16.2,10,15.4,10,15,10c-0.4,0-1.2,0-1.4-0.7
	c0-0.2-0.1-0.5-0.2-0.8c-0.2-0.7-0.5-1.6-0.9-2.5c-0.9-1.9-2.3-3.3-4.1-3.3C6.2,2.7,4.6,3.7,3.7,5.3z M15,5c0-0.1,0.1-0.2,0.1-0.3
	C16.2,2.6,18.2,0,21.7,0c3.2,0,5.6,1.6,7,4c1.4,2.3,1.7,5.4,1,8.3c-0.4,1.4-1.2,2.9-2.3,4.2c-1.1,1.4-2.4,2.8-3.8,4.1
	c-2.7,2.6-5.6,4.9-7,5.9c-0.9,0.7-2.2,0.7-3.1,0c-1.4-1-4.3-3.3-7-5.9c-1.4-1.3-2.7-2.7-3.8-4.1c-1.1-1.4-2-2.8-2.3-4.2
	c-0.7-3-0.4-6,1-8.3c1.4-2.4,3.8-4,7-4c3.5,0,5.5,2.6,6.5,4.7C14.9,4.8,15,4.9,15,5z"/>
</svg>
