<?xml version="1.0" encoding="utf-8"?>
<!-- Generator: Adobe Illustrator 24.1.2, SVG Export Plug-In . SVG Version: 6.00 Build 0)  -->
<svg version="1.1" id="Layer_1" xmlns="http://www.w3.org/2000/svg" xmlns:xlink="http://www.w3.org/1999/xlink" x="0px" y="0px"
	 viewBox="0 0 13.9 21" style="enable-background:new 0 0 13.9 21;" xml:space="preserve">
<rect width="13.9" height="2"/>
<path d="M7,21L7,21c0.6,0,1-0.4,1-1V7.4l3.9,3.9c0.4,0.4,1.1,0.3,1.4-0.1c0.3-0.4,0.3-0.9,0-1.3L7.8,4.4C7.6,4.1,7.3,4,7,4l0,0
	C6.8,4,6.5,4.1,6.3,4.3L0.7,9.9c-0.4,0.4-0.4,1,0,1.4c0.4,0.4,1,0.4,1.4,0L6,7.4V20C6,20.6,6.5,21,7,21z"/>
</svg>
