<?xml version="1.0" encoding="utf-8"?>
<!-- Generator: Adobe Illustrator 24.1.2, SVG Export Plug-In . SVG Version: 6.00 Build 0)  -->
<svg version="1.1" id="Capa_1" xmlns="http://www.w3.org/2000/svg" xmlns:xlink="http://www.w3.org/1999/xlink" x="0px" y="0px"
	 viewBox="0 0 754.2 800" style="enable-background:new 0 0 754.2 800;" xml:space="preserve">
<g>
	<path d="M611,514c-46,0-87,21.9-113.3,55.8L277.9,447c5.1-14.8,8-30.7,8-47.2c0-16.6-2.8-32.4-8.1-47.3l219.6-122.6
		C523.4,264,564.6,286,610.8,286c78.7,0,143-64.1,143-143S689.7,0,610.8,0s-143,64.1-143,143c0,16.6,2.8,32.6,8.1,47.3L256.5,313
		c-26.1-34.2-67.3-56.1-113.5-56.1c-78.7,0-143,64.1-143,143s64.3,143,143.2,143c46.2,0,87.4-22.1,113.6-56.3l219.6,122.8
		c-5.3,15-8.3,31.1-8.3,47.7c0,78.7,64.1,143,143,143s143-64.1,143-143S689.9,514,611,514z M611,45c54.2,0,98.2,44,98.2,98.2
		s-44,98.2-98.2,98.2s-98.2-44-98.2-98.2S557,45,611,45z M143.2,498C89,498,45,454,45,399.8s44-98.2,98.2-98.2s98.2,44,98.2,98.2
		S197.2,498,143.2,498z M611,755c-54.2,0-98.2-44-98.2-98.2s44-98.2,98.2-98.2s98.2,44,98.2,98.2S665.1,755,611,755z"/>
</g>
</svg>
