<svg xmlns="http://www.w3.org/2000/svg" xmlns:xlink="http://www.w3.org/1999/xlink" x="0px" y="0px"
	 viewBox="0 0 94.5 75.1" style="enable-background:new 0 0 94.5 75.1;" xml:space="preserve">
<path d="M16,58.5c0-6.8,0-13.7,0-21.1c-5.4,0-10.6,0-16,0C0,24.7,0,12.5,0,0c23.2,0,46.3,0,69.6,0c0,12.1,0,24.2,0,36.9
	c-0.9,0.1-1.9,0.2-2.9,0.2c-11.7,0-23.3,0.1-35-0.1c-2,0-3.3,0.9-4.7,3.4C23.5,46.6,19.8,52.3,16,58.5z M18.6,47.8
	c2.5-4.1,4.9-7.6,7-11.6c1.3-2.5,2.7-3.6,4.7-3.5c11.2,0.1,22.4,0.1,33.6,0.1c1,0,2,0,3,0c0-9.9,0-19.2,0-28.4
	c-21.5,0-42.8,0-64.1,0c0,9.5,0,18.8,0,28.5c5.3,0,10.5,0,15.9,0C18.6,38.2,18.6,43,18.6,47.8z"/>
<path d="M69.2,16.4c0.5,1.5,0.4,3.3-0.5,4.6h23.1v28.7H75.9v14.8c-2.5-4.1-4.8-8.2-7.3-11.9c-1.1-1.6-2.7-3-4.1-3.1
	c-10.3-0.3-20.5-0.1-30.8-0.1h-6V37.2c-0.3,1.5-0.9,3-1.6,4.5c-0.3,0.7-0.7,1.2-1.2,1.6V54h3.5c11.5,0,23,0.1,34.5-0.1
	c2.1,0,3.5,1.2,4.9,3.7c3.5,6,7.1,11.7,10.8,17.6V53.9h16V16.4C86,16.4,77.6,16.4,69.2,16.4z"/>
</svg>
